<?xml version="1.0"?>
<Project_Data Version="8.00">
<Project_Settings>
<ProfileName>MP4 with video player (up to 720p)</ProfileName>
<ProjectWidth>854</ProjectWidth>
<ProjectHeight>480</ProjectHeight>
<IsCustomProject>1</IsCustomProject>
<SavedProjectSettings>1</SavedProjectSettings>
<LastFlashTemplate>-1</LastFlashTemplate>
</Project_Settings>


<AutoSaveFile>C:\Users\Cuong Nguyen Ngoc\AppData\Local\TechSmith\Camtasia Studio\8.0\Auto-Saves\after create install netbeans1050cbb4.autosave.camproj</AutoSaveFile>

<ProjectID>5A6C0BAA-70A5-4168-B78A-313640D7FEB2</ProjectID>

<PowerPointProject>0</PowerPointProject>

<PowerPointFilename></PowerPointFilename>


<Project_Notes>
</Project_Notes>

<Project_MetaData>
<Project_MetaData_Object>
<FieldArrayKey>8</FieldArrayKey>
<Value>after create install netbeans</Value>
</Project_MetaData_Object>
<Project_MetaData_Object>
<FieldArrayKey>13</FieldArrayKey>
<Value>2015-06-30 01:40:35 AM</Value>
</Project_MetaData_Object>
<Project_MetaData_Object>
<FieldArrayKey>16</FieldArrayKey>
<Value>ENU</Value>
</Project_MetaData_Object>
</Project_MetaData>

<CSMLData>
<GoProject id="1" version="3.0" >
 <Project id="2" editRate="30/1" version="3.0" >
  <Author></Author>
  <Comment></Comment>
  <System></System>
  <SourceBin id="3"  >
    <Source id="4" src="E:\Camtasia Video\first download netbeans.trec" lastMod="20150629T183959" rect="(0,0,1364,768)" >
      <SourceTrack range="(0,5582)" type="0" editRate="30/1" trackRect="(0,0,1364,768)" sampleRate="0/1" bitDepth="0" numChannels="0" filename="first download netbeans.trec!Strack0.tsc2" metaData="first download netbeans.trec;" />
      <SourceTrack range="(0,8204288)" type="2" editRate="44100/1" trackRect="(0,0,0,0)" sampleRate="44100/1" bitDepth="16" numChannels="2" filename="first download netbeans.trec!Maudio1.mp4" metaData="" />
      <SourceTrack range="(0,8204288)" type="2" editRate="44100/1" trackRect="(0,0,0,0)" sampleRate="44100/1" bitDepth="16" numChannels="2" filename="first download netbeans.trec!$audio2.mp4" metaData="" />
    </Source>
    <Source id="5" src="E:\Camtasia Video\install netbeans.trec" lastMod="20150629T183332" rect="(0,0,1364,768)" >
      <SourceTrack range="(0,41773)" type="0" editRate="30/1" trackRect="(0,0,1364,768)" sampleRate="0/1" bitDepth="0" numChannels="0" filename="install netbeans.trec!Strack0.tsc2" metaData="install netbeans.trec;" />
      <SourceTrack range="(0,61388800)" type="2" editRate="44100/1" trackRect="(0,0,0,0)" sampleRate="44100/1" bitDepth="16" numChannels="2" filename="install netbeans.trec!Maudio1.mp4" metaData="" />
      <SourceTrack range="(0,61388800)" type="2" editRate="44100/1" trackRect="(0,0,0,0)" sampleRate="44100/1" bitDepth="16" numChannels="2" filename="install netbeans.trec!$audio2.mp4" metaData="" />
    </Source>
    <Source id="6" src="E:\Camtasia Video\createFirstDemo.trec" lastMod="20150629T192655" rect="(0,0,1364,768)" >
      <SourceTrack range="(0,4786)" type="0" editRate="30/1" trackRect="(0,0,1364,768)" sampleRate="0/1" bitDepth="0" numChannels="0" filename="createFirstDemo.trec!Strack0.tsc2" metaData="createFirstDemo.trec;" />
      <SourceTrack range="(0,7057408)" type="2" editRate="44100/1" trackRect="(0,0,0,0)" sampleRate="44100/1" bitDepth="16" numChannels="2" filename="createFirstDemo.trec!Maudio1.mp4" metaData="" />
      <SourceTrack range="(0,7013376)" type="2" editRate="44100/1" trackRect="(0,0,0,0)" sampleRate="44100/1" bitDepth="16" numChannels="2" filename="createFirstDemo.trec!$audio2.mp4" metaData="" />
    </Source>
  </SourceBin>
  <Timeline id="7"  >
   <Attributes>
    <Attribute id="8" value="854" name="width"/>
    <Attribute id="9" value="480" name="height"/>
    <Attribute id="10" value="(0,0,0,255)" name="backgroundColor"/>
   </Attributes>
    <GenericMixer id="11"  name="Unified Mixer">
     <MetaData>
      <entry key="MixerType" val="TimelineMixer"/>
     </MetaData>
     <Tracks>
      <GenericTrack id="12"  >
       <Attributes>
        <Attribute id="13" value="" name="ident"/>
        <Attribute id="14" value="0" name="audioMuted"/>
        <Attribute id="15" value="0" name="videoHidden"/>
       </Attributes>
       <MetaData>
        <entry key="IsLocked" val="False"/>
        <entry key="WinTrackHeight" val="62"/>
       </MetaData>
       <Medias>
        <AMFile id="16" start="0" duration="154" scalar="1/1" mediaStart="33/1" mediaDuration="154/1" trackNumber="2" src="4" channelNumber="0,1" >
         <Parameters>
          <InterpolatingParam id="17" interp="linr"  time="0/1" value="1" leadInLength="0/1"  name="volume"/>
          <Parameter id="18"  name="captions"/>
         </Parameters>
         <Attributes>
          <Attribute id="19" value="" name="ident"/>
          <Attribute id="20" value="44100" name="sampleRate"/>
          <Attribute id="21" value="16" name="bitDepth"/>
          <Attribute id="22" value="1" name="gain"/>
          <Attribute id="23" value="0" name="mixToMono"/>
         </Attributes>
         <MetaData>
          <entry key="WinSubProjectDisplayName" val=""/>
         </MetaData>
        </AMFile>
        <AMFile id="24" start="154" duration="1254" scalar="1/1" mediaStart="206/1" mediaDuration="1254/1" trackNumber="2" src="4" channelNumber="0,1" >
         <Parameters>
          <InterpolatingParam id="25" interp="linr"  time="0/1" value="1" leadInLength="0/1"  name="volume"/>
          <Parameter id="26"  name="captions"/>
         </Parameters>
         <Attributes>
          <Attribute id="27" value="" name="ident"/>
          <Attribute id="28" value="44100" name="sampleRate"/>
          <Attribute id="29" value="16" name="bitDepth"/>
          <Attribute id="30" value="1" name="gain"/>
          <Attribute id="31" value="0" name="mixToMono"/>
         </Attributes>
         <MetaData>
          <entry key="WinSubProjectDisplayName" val=""/>
         </MetaData>
        </AMFile>
        <AMFile id="32" start="1441" duration="523" scalar="1/1" mediaStart="1496/1" mediaDuration="523/1" trackNumber="2" src="4" channelNumber="0,1" >
         <Parameters>
          <InterpolatingParam id="33" interp="linr"  time="0/1" value="1" leadInLength="0/1"  name="volume"/>
          <Parameter id="34"  name="captions"/>
         </Parameters>
         <Attributes>
          <Attribute id="35" value="" name="ident"/>
          <Attribute id="36" value="44100" name="sampleRate"/>
          <Attribute id="37" value="16" name="bitDepth"/>
          <Attribute id="38" value="1" name="gain"/>
          <Attribute id="39" value="0" name="mixToMono"/>
         </Attributes>
         <MetaData>
          <entry key="WinSubProjectDisplayName" val=""/>
         </MetaData>
        </AMFile>
        <AMFile id="40" start="1964" duration="223" scalar="1/1" mediaStart="2039/1" mediaDuration="223/1" trackNumber="2" src="4" channelNumber="0,1" >
         <Parameters>
          <InterpolatingParam id="41" interp="linr"  time="0/1" value="1" leadInLength="0/1"  name="volume"/>
          <Parameter id="42"  name="captions"/>
         </Parameters>
         <Attributes>
          <Attribute id="43" value="" name="ident"/>
          <Attribute id="44" value="44100" name="sampleRate"/>
          <Attribute id="45" value="16" name="bitDepth"/>
          <Attribute id="46" value="1" name="gain"/>
          <Attribute id="47" value="0" name="mixToMono"/>
         </Attributes>
         <MetaData>
          <entry key="WinSubProjectDisplayName" val=""/>
         </MetaData>
        </AMFile>
        <AMFile id="48" start="2187" duration="80" scalar="1/1" mediaStart="2308/1" mediaDuration="80/1" trackNumber="2" src="4" channelNumber="0,1" >
         <Parameters>
          <InterpolatingParam id="49" interp="linr"  time="0/1" value="1" leadInLength="0/1"  name="volume"/>
          <Parameter id="50"  name="captions"/>
         </Parameters>
         <Attributes>
          <Attribute id="51" value="" name="ident"/>
          <Attribute id="52" value="44100" name="sampleRate"/>
          <Attribute id="53" value="16" name="bitDepth"/>
          <Attribute id="54" value="1" name="gain"/>
          <Attribute id="55" value="0" name="mixToMono"/>
         </Attributes>
         <MetaData>
          <entry key="WinSubProjectDisplayName" val=""/>
         </MetaData>
        </AMFile>
        <AMFile id="56" start="2267" duration="80" scalar="1/1" mediaStart="2415/1" mediaDuration="80/1" trackNumber="2" src="4" channelNumber="0,1" >
         <Parameters>
          <InterpolatingParam id="57" interp="linr"  time="0/1" value="1" leadInLength="0/1"  name="volume"/>
          <Parameter id="58"  name="captions"/>
         </Parameters>
         <Attributes>
          <Attribute id="59" value="" name="ident"/>
          <Attribute id="60" value="44100" name="sampleRate"/>
          <Attribute id="61" value="16" name="bitDepth"/>
          <Attribute id="62" value="1" name="gain"/>
          <Attribute id="63" value="0" name="mixToMono"/>
         </Attributes>
         <MetaData>
          <entry key="WinSubProjectDisplayName" val=""/>
         </MetaData>
        </AMFile>
        <AMFile id="64" start="2347" duration="69" scalar="1/1" mediaStart="2624/1" mediaDuration="69/1" trackNumber="2" src="4" channelNumber="0,1" >
         <Parameters>
          <InterpolatingParam id="65" interp="linr"  time="0/1" value="1" leadInLength="0/1"  name="volume"/>
          <Parameter id="66"  name="captions"/>
         </Parameters>
         <Attributes>
          <Attribute id="67" value="" name="ident"/>
          <Attribute id="68" value="44100" name="sampleRate"/>
          <Attribute id="69" value="16" name="bitDepth"/>
          <Attribute id="70" value="1" name="gain"/>
          <Attribute id="71" value="0" name="mixToMono"/>
         </Attributes>
         <MetaData>
          <entry key="WinSubProjectDisplayName" val=""/>
         </MetaData>
        </AMFile>
        <AMFile id="72" start="2416" duration="143" scalar="1/1" mediaStart="2728/1" mediaDuration="143/1" trackNumber="2" src="4" channelNumber="0,1" >
         <Parameters>
          <InterpolatingParam id="73" interp="linr"  time="0/1" value="1" leadInLength="0/1"  name="volume"/>
          <Parameter id="74"  name="captions"/>
         </Parameters>
         <Attributes>
          <Attribute id="75" value="" name="ident"/>
          <Attribute id="76" value="44100" name="sampleRate"/>
          <Attribute id="77" value="16" name="bitDepth"/>
          <Attribute id="78" value="1" name="gain"/>
          <Attribute id="79" value="0" name="mixToMono"/>
         </Attributes>
         <MetaData>
          <entry key="WinSubProjectDisplayName" val=""/>
         </MetaData>
        </AMFile>
        <AMFile id="80" start="2559" duration="759" scalar="1/1" mediaStart="2888/1" mediaDuration="759/1" trackNumber="2" src="4" channelNumber="0,1" >
         <Parameters>
          <InterpolatingParam id="81" interp="linr"  time="0/1" value="1" leadInLength="0/1"  name="volume"/>
          <Parameter id="82"  name="captions"/>
         </Parameters>
         <Attributes>
          <Attribute id="83" value="" name="ident"/>
          <Attribute id="84" value="44100" name="sampleRate"/>
          <Attribute id="85" value="16" name="bitDepth"/>
          <Attribute id="86" value="1" name="gain"/>
          <Attribute id="87" value="0" name="mixToMono"/>
         </Attributes>
         <MetaData>
          <entry key="WinSubProjectDisplayName" val=""/>
         </MetaData>
        </AMFile>
        <AMFile id="88" start="3318" duration="193" scalar="1/1" mediaStart="3687/1" mediaDuration="193/1" trackNumber="2" src="4" channelNumber="0,1" >
         <Parameters>
          <InterpolatingParam id="89" interp="linr"  time="0/1" value="1" leadInLength="0/1"  name="volume"/>
          <Parameter id="90"  name="captions"/>
         </Parameters>
         <Attributes>
          <Attribute id="91" value="" name="ident"/>
          <Attribute id="92" value="44100" name="sampleRate"/>
          <Attribute id="93" value="16" name="bitDepth"/>
          <Attribute id="94" value="1" name="gain"/>
          <Attribute id="95" value="0" name="mixToMono"/>
         </Attributes>
         <MetaData>
          <entry key="WinSubProjectDisplayName" val=""/>
         </MetaData>
        </AMFile>
        <AMFile id="96" start="3511" duration="175" scalar="1/1" mediaStart="4056/1" mediaDuration="175/1" trackNumber="2" src="4" channelNumber="0,1" >
         <Parameters>
          <InterpolatingParam id="97" interp="linr"  time="0/1" value="1" leadInLength="0/1"  name="volume"/>
          <Parameter id="98"  name="captions"/>
         </Parameters>
         <Attributes>
          <Attribute id="99" value="" name="ident"/>
          <Attribute id="100" value="44100" name="sampleRate"/>
          <Attribute id="101" value="16" name="bitDepth"/>
          <Attribute id="102" value="1" name="gain"/>
          <Attribute id="103" value="0" name="mixToMono"/>
         </Attributes>
         <MetaData>
          <entry key="WinSubProjectDisplayName" val=""/>
         </MetaData>
        </AMFile>
        <AMFile id="104" start="3686" duration="412" scalar="1/1" mediaStart="4383/1" mediaDuration="412/1" trackNumber="2" src="4" channelNumber="0,1" >
         <Parameters>
          <InterpolatingParam id="105" interp="linr"  time="0/1" value="1" leadInLength="0/1"  name="volume"/>
          <Parameter id="106"  name="captions"/>
         </Parameters>
         <Attributes>
          <Attribute id="107" value="" name="ident"/>
          <Attribute id="108" value="44100" name="sampleRate"/>
          <Attribute id="109" value="16" name="bitDepth"/>
          <Attribute id="110" value="1" name="gain"/>
          <Attribute id="111" value="0" name="mixToMono"/>
         </Attributes>
         <MetaData>
          <entry key="WinSubProjectDisplayName" val=""/>
         </MetaData>
        </AMFile>
        <AMFile id="112" start="4098" duration="906" scalar="1/1" mediaStart="4889/1" mediaDuration="906/1" trackNumber="2" src="5" channelNumber="0,1" >
         <Parameters>
          <InterpolatingParam id="113" interp="linr"  time="0/1" value="1" leadInLength="0/1"  name="volume"/>
          <Parameter id="114"  name="captions"/>
         </Parameters>
         <Attributes>
          <Attribute id="115" value="" name="ident"/>
          <Attribute id="116" value="44100" name="sampleRate"/>
          <Attribute id="117" value="16" name="bitDepth"/>
          <Attribute id="118" value="1" name="gain"/>
          <Attribute id="119" value="0" name="mixToMono"/>
         </Attributes>
         <MetaData>
          <entry key="WinSubProjectDisplayName" val=""/>
         </MetaData>
        </AMFile>
        <AMFile id="120" start="5004" duration="187" scalar="1/1" mediaStart="5814/1" mediaDuration="187/1" trackNumber="2" src="5" channelNumber="0,1" >
         <Parameters>
          <InterpolatingParam id="121" interp="linr"  time="0/1" value="1" leadInLength="0/1"  name="volume"/>
          <Parameter id="122"  name="captions"/>
         </Parameters>
         <Attributes>
          <Attribute id="123" value="" name="ident"/>
          <Attribute id="124" value="44100" name="sampleRate"/>
          <Attribute id="125" value="16" name="bitDepth"/>
          <Attribute id="126" value="1" name="gain"/>
          <Attribute id="127" value="0" name="mixToMono"/>
         </Attributes>
         <MetaData>
          <entry key="WinSubProjectDisplayName" val=""/>
         </MetaData>
        </AMFile>
        <AMFile id="128" start="5191" duration="41" scalar="1/1" mediaStart="6603/1" mediaDuration="41/1" trackNumber="2" src="5" channelNumber="0,1" >
         <Parameters>
          <InterpolatingParam id="129" interp="linr"  time="0/1" value="1" leadInLength="0/1"  name="volume"/>
          <Parameter id="130"  name="captions"/>
         </Parameters>
         <Attributes>
          <Attribute id="131" value="" name="ident"/>
          <Attribute id="132" value="44100" name="sampleRate"/>
          <Attribute id="133" value="16" name="bitDepth"/>
          <Attribute id="134" value="1" name="gain"/>
          <Attribute id="135" value="0" name="mixToMono"/>
         </Attributes>
         <MetaData>
          <entry key="WinSubProjectDisplayName" val=""/>
         </MetaData>
        </AMFile>
        <AMFile id="136" start="5232" duration="67" scalar="1/1" mediaStart="6733/1" mediaDuration="67/1" trackNumber="2" src="5" channelNumber="0,1" >
         <Parameters>
          <InterpolatingParam id="137" interp="linr"  time="0/1" value="1" leadInLength="0/1"  name="volume"/>
          <Parameter id="138"  name="captions"/>
         </Parameters>
         <Attributes>
          <Attribute id="139" value="" name="ident"/>
          <Attribute id="140" value="44100" name="sampleRate"/>
          <Attribute id="141" value="16" name="bitDepth"/>
          <Attribute id="142" value="1" name="gain"/>
          <Attribute id="143" value="0" name="mixToMono"/>
         </Attributes>
         <MetaData>
          <entry key="WinSubProjectDisplayName" val=""/>
         </MetaData>
        </AMFile>
        <AMFile id="144" start="5299" duration="314" scalar="1/1" mediaStart="6842/1" mediaDuration="314/1" trackNumber="2" src="5" channelNumber="0,1" >
         <Parameters>
          <InterpolatingParam id="145" interp="linr"  time="0/1" value="1" leadInLength="0/1"  name="volume"/>
          <Parameter id="146"  name="captions"/>
         </Parameters>
         <Attributes>
          <Attribute id="147" value="" name="ident"/>
          <Attribute id="148" value="44100" name="sampleRate"/>
          <Attribute id="149" value="16" name="bitDepth"/>
          <Attribute id="150" value="1" name="gain"/>
          <Attribute id="151" value="0" name="mixToMono"/>
         </Attributes>
         <MetaData>
          <entry key="WinSubProjectDisplayName" val=""/>
         </MetaData>
        </AMFile>
        <AMFile id="152" start="5613" duration="412" scalar="1/1" mediaStart="7270/1" mediaDuration="412/1" trackNumber="2" src="5" channelNumber="0,1" >
         <Parameters>
          <InterpolatingParam id="153" interp="linr"  time="0/1" value="1" leadInLength="0/1"  name="volume"/>
          <Parameter id="154"  name="captions"/>
         </Parameters>
         <Attributes>
          <Attribute id="155" value="" name="ident"/>
          <Attribute id="156" value="44100" name="sampleRate"/>
          <Attribute id="157" value="16" name="bitDepth"/>
          <Attribute id="158" value="1" name="gain"/>
          <Attribute id="159" value="0" name="mixToMono"/>
         </Attributes>
         <MetaData>
          <entry key="WinSubProjectDisplayName" val=""/>
         </MetaData>
        </AMFile>
        <AMFile id="160" start="6025" duration="118" scalar="1/1" mediaStart="7761/1" mediaDuration="118/1" trackNumber="2" src="5" channelNumber="0,1" >
         <Parameters>
          <InterpolatingParam id="161" interp="linr"  time="0/1" value="1" leadInLength="0/1"  name="volume"/>
          <Parameter id="162"  name="captions"/>
         </Parameters>
         <Attributes>
          <Attribute id="163" value="" name="ident"/>
          <Attribute id="164" value="44100" name="sampleRate"/>
          <Attribute id="165" value="16" name="bitDepth"/>
          <Attribute id="166" value="1" name="gain"/>
          <Attribute id="167" value="0" name="mixToMono"/>
         </Attributes>
         <MetaData>
          <entry key="WinSubProjectDisplayName" val=""/>
         </MetaData>
        </AMFile>
        <AMFile id="168" start="6143" duration="442" scalar="1/1" mediaStart="7971/1" mediaDuration="442/1" trackNumber="2" src="5" channelNumber="0,1" >
         <Parameters>
          <InterpolatingParam id="169" interp="linr"  time="0/1" value="1" leadInLength="0/1"  name="volume"/>
          <Parameter id="170"  name="captions"/>
         </Parameters>
         <Attributes>
          <Attribute id="171" value="" name="ident"/>
          <Attribute id="172" value="44100" name="sampleRate"/>
          <Attribute id="173" value="16" name="bitDepth"/>
          <Attribute id="174" value="1" name="gain"/>
          <Attribute id="175" value="0" name="mixToMono"/>
         </Attributes>
         <MetaData>
          <entry key="WinSubProjectDisplayName" val=""/>
         </MetaData>
        </AMFile>
        <AMFile id="176" start="6585" duration="754" scalar="1/1" mediaStart="8598/1" mediaDuration="754/1" trackNumber="2" src="5" channelNumber="0,1" >
         <Parameters>
          <InterpolatingParam id="177" interp="linr"  time="0/1" value="1" leadInLength="0/1"  name="volume"/>
          <Parameter id="178"  name="captions"/>
         </Parameters>
         <Attributes>
          <Attribute id="179" value="" name="ident"/>
          <Attribute id="180" value="44100" name="sampleRate"/>
          <Attribute id="181" value="16" name="bitDepth"/>
          <Attribute id="182" value="1" name="gain"/>
          <Attribute id="183" value="0" name="mixToMono"/>
         </Attributes>
         <MetaData>
          <entry key="WinSubProjectDisplayName" val=""/>
         </MetaData>
        </AMFile>
        <AMFile id="184" start="7339" duration="2051" scalar="1/1" mediaStart="14513/1" mediaDuration="2051/1" trackNumber="2" src="5" channelNumber="0,1" >
         <Parameters>
          <InterpolatingParam id="185" interp="linr"  time="0/1" value="1" leadInLength="0/1"  name="volume"/>
          <Parameter id="186"  name="captions"/>
         </Parameters>
         <Attributes>
          <Attribute id="187" value="" name="ident"/>
          <Attribute id="188" value="44100" name="sampleRate"/>
          <Attribute id="189" value="16" name="bitDepth"/>
          <Attribute id="190" value="1" name="gain"/>
          <Attribute id="191" value="0" name="mixToMono"/>
         </Attributes>
         <MetaData>
          <entry key="WinSubProjectDisplayName" val=""/>
         </MetaData>
        </AMFile>
        <AMFile id="192" start="9390" duration="2120" scalar="1/1" mediaStart="18393/1" mediaDuration="2120/1" trackNumber="2" src="5" channelNumber="0,1" >
         <Parameters>
          <InterpolatingParam id="193" interp="linr"  time="0/1" value="1" leadInLength="0/1"  name="volume"/>
          <Parameter id="194"  name="captions"/>
         </Parameters>
         <Attributes>
          <Attribute id="195" value="" name="ident"/>
          <Attribute id="196" value="44100" name="sampleRate"/>
          <Attribute id="197" value="16" name="bitDepth"/>
          <Attribute id="198" value="1" name="gain"/>
          <Attribute id="199" value="0" name="mixToMono"/>
         </Attributes>
         <MetaData>
          <entry key="WinSubProjectDisplayName" val=""/>
         </MetaData>
        </AMFile>
        <AMFile id="200" start="11510" duration="1189" scalar="1/1" mediaStart="21803/1" mediaDuration="1189/1" trackNumber="2" src="5" channelNumber="0,1" >
         <Parameters>
          <InterpolatingParam id="201" interp="linr"  time="0/1" value="1" leadInLength="0/1"  name="volume"/>
          <Parameter id="202"  name="captions"/>
         </Parameters>
         <Attributes>
          <Attribute id="203" value="" name="ident"/>
          <Attribute id="204" value="44100" name="sampleRate"/>
          <Attribute id="205" value="16" name="bitDepth"/>
          <Attribute id="206" value="1" name="gain"/>
          <Attribute id="207" value="0" name="mixToMono"/>
         </Attributes>
         <MetaData>
          <entry key="WinSubProjectDisplayName" val=""/>
         </MetaData>
        </AMFile>
        <AMFile id="208" start="12699" duration="1802" scalar="1/1" mediaStart="25973/1" mediaDuration="1802/1" trackNumber="2" src="5" channelNumber="0,1" >
         <Parameters>
          <InterpolatingParam id="209" interp="linr"  time="0/1" value="1" leadInLength="0/1"  name="volume"/>
          <Parameter id="210"  name="captions"/>
         </Parameters>
         <Attributes>
          <Attribute id="211" value="" name="ident"/>
          <Attribute id="212" value="44100" name="sampleRate"/>
          <Attribute id="213" value="16" name="bitDepth"/>
          <Attribute id="214" value="1" name="gain"/>
          <Attribute id="215" value="0" name="mixToMono"/>
         </Attributes>
         <MetaData>
          <entry key="WinSubProjectDisplayName" val=""/>
         </MetaData>
        </AMFile>
        <AMFile id="216" start="14501" duration="1862" scalar="1/1" mediaStart="28954/1" mediaDuration="1862/1" trackNumber="2" src="5" channelNumber="0,1" >
         <Parameters>
          <InterpolatingParam id="217" interp="linr"  time="0/1" value="1" leadInLength="0/1"  name="volume"/>
          <Parameter id="218"  name="captions"/>
         </Parameters>
         <Attributes>
          <Attribute id="219" value="" name="ident"/>
          <Attribute id="220" value="44100" name="sampleRate"/>
          <Attribute id="221" value="16" name="bitDepth"/>
          <Attribute id="222" value="1" name="gain"/>
          <Attribute id="223" value="0" name="mixToMono"/>
         </Attributes>
         <MetaData>
          <entry key="WinSubProjectDisplayName" val=""/>
         </MetaData>
        </AMFile>
        <AMFile id="224" start="16363" duration="1388" scalar="1/1" mediaStart="32400/1" mediaDuration="1388/1" trackNumber="2" src="5" channelNumber="0,1" >
         <Parameters>
          <InterpolatingParam id="225" interp="linr"  time="0/1" value="1" leadInLength="0/1"  name="volume"/>
          <Parameter id="226"  name="captions"/>
         </Parameters>
         <Attributes>
          <Attribute id="227" value="" name="ident"/>
          <Attribute id="228" value="44100" name="sampleRate"/>
          <Attribute id="229" value="16" name="bitDepth"/>
          <Attribute id="230" value="1" name="gain"/>
          <Attribute id="231" value="0" name="mixToMono"/>
         </Attributes>
         <MetaData>
          <entry key="WinSubProjectDisplayName" val=""/>
         </MetaData>
        </AMFile>
        <AMFile id="232" start="17751" duration="94" scalar="1/1" mediaStart="34164/1" mediaDuration="94/1" trackNumber="2" src="5" channelNumber="0,1" >
         <Parameters>
          <InterpolatingParam id="233" interp="linr"  time="0/1" value="1" leadInLength="0/1"  name="volume"/>
          <Parameter id="234"  name="captions"/>
         </Parameters>
         <Attributes>
          <Attribute id="235" value="" name="ident"/>
          <Attribute id="236" value="44100" name="sampleRate"/>
          <Attribute id="237" value="16" name="bitDepth"/>
          <Attribute id="238" value="1" name="gain"/>
          <Attribute id="239" value="0" name="mixToMono"/>
         </Attributes>
         <MetaData>
          <entry key="WinSubProjectDisplayName" val=""/>
         </MetaData>
        </AMFile>
        <AMFile id="240" start="17845" duration="384" scalar="1/1" mediaStart="828/1" mediaDuration="384/1" trackNumber="2" src="6" channelNumber="0,1" >
         <Parameters>
          <InterpolatingParam id="241" interp="linr"  time="0/1" value="1" leadInLength="0/1"  name="volume"/>
          <Parameter id="242"  name="captions"/>
         </Parameters>
         <Attributes>
          <Attribute id="243" value="" name="ident"/>
          <Attribute id="244" value="44100" name="sampleRate"/>
          <Attribute id="245" value="16" name="bitDepth"/>
          <Attribute id="246" value="1" name="gain"/>
          <Attribute id="247" value="0" name="mixToMono"/>
         </Attributes>
         <MetaData>
          <entry key="WinSubProjectDisplayName" val=""/>
         </MetaData>
        </AMFile>
        <AMFile id="248" start="18229" duration="1465" scalar="1/1" mediaStart="2313/1" mediaDuration="1465/1" trackNumber="2" src="6" channelNumber="0,1" >
         <Parameters>
          <InterpolatingParam id="249" interp="linr"  time="0/1" value="1" leadInLength="0/1"  name="volume"/>
          <Parameter id="250"  name="captions"/>
         </Parameters>
         <Attributes>
          <Attribute id="251" value="" name="ident"/>
          <Attribute id="252" value="44100" name="sampleRate"/>
          <Attribute id="253" value="16" name="bitDepth"/>
          <Attribute id="254" value="1" name="gain"/>
          <Attribute id="255" value="0" name="mixToMono"/>
         </Attributes>
         <MetaData>
          <entry key="WinSubProjectDisplayName" val=""/>
         </MetaData>
        </AMFile>
        <AMFile id="256" start="19694" duration="711" scalar="1/1" mediaStart="3793/1" mediaDuration="711/1" trackNumber="2" src="6" channelNumber="0,1" >
         <Parameters>
          <InterpolatingParam id="257" interp="linr"  time="0/1" value="1" leadInLength="0/1"  name="volume"/>
          <Parameter id="258"  name="captions"/>
         </Parameters>
         <Attributes>
          <Attribute id="259" value="" name="ident"/>
          <Attribute id="260" value="44100" name="sampleRate"/>
          <Attribute id="261" value="16" name="bitDepth"/>
          <Attribute id="262" value="1" name="gain"/>
          <Attribute id="263" value="0" name="mixToMono"/>
         </Attributes>
         <MetaData>
          <entry key="WinSubProjectDisplayName" val=""/>
         </MetaData>
        </AMFile>
        <AMFile id="264" start="20405" duration="62" scalar="1/1" mediaStart="4550/1" mediaDuration="62/1" trackNumber="2" src="6" channelNumber="0,1" >
         <Parameters>
          <InterpolatingParam id="265" interp="linr"  time="0/1" value="1" leadInLength="0/1"  name="volume"/>
          <Parameter id="266"  name="captions"/>
         </Parameters>
         <Attributes>
          <Attribute id="267" value="" name="ident"/>
          <Attribute id="268" value="44100" name="sampleRate"/>
          <Attribute id="269" value="16" name="bitDepth"/>
          <Attribute id="270" value="1" name="gain"/>
          <Attribute id="271" value="0" name="mixToMono"/>
         </Attributes>
         <MetaData>
          <entry key="WinSubProjectDisplayName" val=""/>
         </MetaData>
        </AMFile>
        <AMFile id="272" start="20467" duration="41" scalar="1/1" mediaStart="4648/1" mediaDuration="41/1" trackNumber="2" src="6" channelNumber="0,1" >
         <Parameters>
          <InterpolatingParam id="273" interp="linr"  time="0/1" value="1" leadInLength="0/1"  name="volume"/>
          <Parameter id="274"  name="captions"/>
         </Parameters>
         <Attributes>
          <Attribute id="275" value="" name="ident"/>
          <Attribute id="276" value="44100" name="sampleRate"/>
          <Attribute id="277" value="16" name="bitDepth"/>
          <Attribute id="278" value="1" name="gain"/>
          <Attribute id="279" value="0" name="mixToMono"/>
         </Attributes>
         <MetaData>
          <entry key="WinSubProjectDisplayName" val=""/>
         </MetaData>
        </AMFile>
       </Medias>
      </GenericTrack>
      <GenericTrack id="280"  >
       <Attributes>
        <Attribute id="281" value="" name="ident"/>
        <Attribute id="282" value="0" name="audioMuted"/>
        <Attribute id="283" value="0" name="videoHidden"/>
       </Attributes>
       <MetaData>
        <entry key="IsLocked" val="False"/>
        <entry key="WinTrackHeight" val="62"/>
       </MetaData>
       <Medias>
        <UnifiedMedia id="284"  >
         <AMFile id="285" start="0" duration="154" scalar="1/1" mediaStart="33/1" mediaDuration="154/1" trackNumber="1" src="4" channelNumber="0,1" >
          <Parameters>
           <InterpolatingParam id="286" interp="linr"  time="0/1" value="1" leadInLength="0/1"  name="volume"/>
           <Parameter id="287"  name="captions"/>
          </Parameters>
          <Attributes>
           <Attribute id="288" value="" name="ident"/>
           <Attribute id="289" value="44100" name="sampleRate"/>
           <Attribute id="290" value="16" name="bitDepth"/>
           <Attribute id="291" value="1" name="gain"/>
           <Attribute id="292" value="0" name="mixToMono"/>
          </Attributes>
         </AMFile>
         <ScreenVMFile id="293" start="0" duration="154" scalar="1/1" mediaStart="33/1" mediaDuration="154/1" trackNumber="0" src="4" >
          <Transformer>
           <VectorParam id="294"  name="translation">
            <InterpolatingParam id="295" interp="linr"  time="-9999999/1" value="0" leadInLength="0/1"  interpolater="leadin-linr"  />
            <InterpolatingParam id="296" interp="linr"  time="-9999999/1" value="0" leadInLength="0/1"  interpolater="leadin-linr"  />
            <InterpolatingParam id="297" interp="linr"  time="-9999999/1" value="0" leadInLength="0/1"  interpolater="leadin-linr"  />
           </VectorParam>
           <VectorParam id="298"  name="rotation">
            <InterpolatingParam id="299" interp="linr"  time="-9999999/1" value="0" leadInLength="0/1"  interpolater="leadin-linr"  />
            <InterpolatingParam id="300" interp="linr"  time="-9999999/1" value="0" leadInLength="0/1"  interpolater="leadin-linr"  />
            <InterpolatingParam id="301" interp="linr"  time="-9999999/1" value="0" leadInLength="0/1"  interpolater="leadin-linr"  />
           </VectorParam>
           <VectorParam id="302"  name="shear">
            <InterpolatingParam id="303" interp="linr"  time="-9999999/1" value="0" leadInLength="0/1"  interpolater="leadin-linr"  />
            <InterpolatingParam id="304" interp="linr"  time="-9999999/1" value="0" leadInLength="0/1"  interpolater="leadin-linr"  />
            <InterpolatingParam id="305" interp="linr"  time="-9999999/1" value="0" leadInLength="0/1"  interpolater="leadin-linr"  />
           </VectorParam>
           <VectorParam id="306"  name="scale">
            <InterpolatingParam id="307" interp="linr"  time="-9999999/1" value="0.625" leadInLength="0/1"  interpolater="leadin-linr"  />
            <InterpolatingParam id="308" interp="linr"  time="-9999999/1" value="0.625" leadInLength="0/1"  interpolater="leadin-linr"  />
            <InterpolatingParam id="309" interp="linr"  time="-9999999/1" value="1" leadInLength="0/1"  interpolater="leadin-linr"  />
           </VectorParam>
           <VectorParam id="310"  name="anchor">
            <InterpolatingParam id="311" interp="linr"  time="0/1" value="0" leadInLength="0/1"  />
            <InterpolatingParam id="312" interp="linr"  time="0/1" value="0" leadInLength="0/1"  />
            <InterpolatingParam id="313" interp="linr"  time="0/1" value="0" leadInLength="0/1"  />
           </VectorParam>
          </Transformer>
          <Parameters>
           <VectorParam id="314"  name="sourceCrop">
            <InterpolatingParam id="315" interp="linr"  time="0/1" value="0" leadInLength="0/1"  />
            <InterpolatingParam id="316" interp="linr"  time="0/1" value="0" leadInLength="0/1"  />
            <InterpolatingParam id="317" interp="linr"  time="0/1" value="0" leadInLength="0/1"  />
            <InterpolatingParam id="318" interp="linr"  time="0/1" value="0" leadInLength="0/1"  />
           </VectorParam>
           <VectorParam id="319"  name="geometryCrop">
            <InterpolatingParam id="320" interp="linr"  time="-9999999/1" value="0" leadInLength="0/1"  interpolater="leadin-linr"  />
            <InterpolatingParam id="321" interp="linr"  time="-9999999/1" value="0" leadInLength="0/1"  interpolater="leadin-linr"  />
            <InterpolatingParam id="322" interp="linr"  time="-9999999/1" value="0" leadInLength="0/1"  interpolater="leadin-linr"  />
            <InterpolatingParam id="323" interp="linr"  time="-9999999/1" value="0" leadInLength="0/1"  interpolater="leadin-linr"  />
           </VectorParam>
           <InterpolatingParam id="324" interp="linr"  time="-9999999/1" value="1" leadInLength="0/1"  interpolater="leadin-linr"  name="opacity"/>
           <InterpolatingParam id="325" interp="linr"  time="0/1" value="1" leadInLength="0/1"  name="cursorOpacity"/>
           <InterpolatingParam id="326" interp="linr"  time="0/1" value="1" leadInLength="0/1"  name="cursorScale"/>
          </Parameters>
          <Effects>
           <GenericEffect id="327" name = "CursorBaseEffectName" >
            <Parameters>
            <InterpolatingParam id="328" interp="linr"  time="-9999999/1" value="1" leadInLength="0/1"   name="cursorSize"/>
            <InterpolatingParam id="329" interp="linr"  time="-9999999/1" value="0" leadInLength="0/1"   name="highlightBlurRadius"/>
            <InterpolatingParam id="330" interp="linr"  time="-9999999/1" value="0" leadInLength="0/1"   name="highlightColorBlue"/>
            <InterpolatingParam id="331" interp="linr"  time="-9999999/1" value="255" leadInLength="0/1"   name="highlightColorGreen"/>
            <InterpolatingParam id="332" interp="linr"  time="-9999999/1" value="255" leadInLength="0/1"   name="highlightColorRed"/>
            <InterpolatingParam id="333" interp="linr"  time="-9999999/1" value="5" leadInLength="0/1"   name="highlightFeatherSize"/>
            <InterpolatingParam id="334" interp="linr"  time="-9999999/1" value="2" leadInLength="0/1"   name="highlightMagnification"/>
            <InterpolatingParam id="335" interp="linr"  time="-9999999/1" value="1" leadInLength="0/1"   name="highlightOpacity"/>
            <InterpolatingParam id="336" interp="linr"  time="-9999999/1" value="45" leadInLength="0/1"   name="highlightSize"/>
            <Parameter id="337"   name="highlightType">
             <Keyframes>
             <Keyframe id="338"  time="-9999999/1" value="0" leadInLength="0/1"  />
             </Keyframes>
            </Parameter>
            <InterpolatingParam id="339" interp="linr"  time="-9999999/1" value="0" leadInLength="0/1"   name="leftClickColorBlue"/>
            <InterpolatingParam id="340" interp="linr"  time="-9999999/1" value="0" leadInLength="0/1"   name="leftClickColorGreen"/>
            <InterpolatingParam id="341" interp="linr"  time="-9999999/1" value="255" leadInLength="0/1"   name="leftClickColorRed"/>
            <InterpolatingParam id="342" interp="linr"  time="-9999999/1" value="0.80000000000000004" leadInLength="0/1"   name="leftClickDuration"/>
            <InterpolatingParam id="343" interp="linr"  time="-9999999/1" value="20" leadInLength="0/1"   name="leftClickSize"/>
            <Parameter id="344"   name="leftClickSoundFilename">
             <Keyframes>
             <Keyframe id="345"  time="-9999999/1" value="" leadInLength="0/1"  />
             </Keyframes>
            </Parameter>
            <InterpolatingParam id="346" interp="linr"  time="-9999999/1" value="1" leadInLength="0/1"   name="leftClickSoundVolume"/>
            <Parameter id="347"   name="leftClickType">
             <Keyframes>
             <Keyframe id="348"  time="-9999999/1" value="0" leadInLength="0/1"  />
             </Keyframes>
            </Parameter>
            <InterpolatingParam id="349" interp="linr"  time="-9999999/1" value="1" leadInLength="0/1"   name="opacity"/>
            <InterpolatingParam id="350" interp="linr"  time="-9999999/1" value="255" leadInLength="0/1"   name="rightClickColorBlue"/>
            <InterpolatingParam id="351" interp="linr"  time="-9999999/1" value="0" leadInLength="0/1"   name="rightClickColorGreen"/>
            <InterpolatingParam id="352" interp="linr"  time="-9999999/1" value="0" leadInLength="0/1"   name="rightClickColorRed"/>
            <InterpolatingParam id="353" interp="linr"  time="-9999999/1" value="0.80000000000000004" leadInLength="0/1"   name="rightClickDuration"/>
            <InterpolatingParam id="354" interp="linr"  time="-9999999/1" value="20" leadInLength="0/1"   name="rightClickSize"/>
            <Parameter id="355"   name="rightClickSoundFilename">
             <Keyframes>
             <Keyframe id="356"  time="-9999999/1" value="" leadInLength="0/1"  />
             </Keyframes>
            </Parameter>
            <InterpolatingParam id="357" interp="linr"  time="-9999999/1" value="1" leadInLength="0/1"   name="rightClickSoundVolume"/>
            <Parameter id="358"   name="rightClickType">
             <Keyframes>
             <Keyframe id="359"  time="-9999999/1" value="0" leadInLength="0/1"  />
             </Keyframes>
            </Parameter>
            </Parameters>
            <MetaData>
             <entry key="effectIndex" val="0"/>
            </MetaData>
           </GenericEffect>
          </Effects>
          <Attributes>
           <Attribute id="360" value="" name="ident"/>
          </Attributes>
          <ExtraData>
           <Entry key="ZoomPanBin">
            <ZoomPanBin id="361"  >
             <ZoomPanKeyframes>
              <ZoomPanKeyframe id="362" timeRangeEnd="-9999999/1" timeRangeDuration="0/1" interpolaterName="leadin-linr"  />
             </ZoomPanKeyframes>
            </ZoomPanBin>
           </Entry>
           <Entry key="CursorEffectBin">
            <CursorEffectBin id="363"  >
             <CursorEffectKeyframes>
              <CursorEffectKeyframe id="364" timeRangeEnd="-9999999/1" timeRangeDuration="0/1" interpolaterName=""  />
             </CursorEffectKeyframes>
            </CursorEffectBin>
           </Entry>
          </ExtraData>
         </ScreenVMFile>
         <MetaData>
          <entry key="AutoAppliedSmartFocus" val="False"/>
          <entry key="WinSubProjectDisplayName" val=""/>
         </MetaData>
        </UnifiedMedia>
        <UnifiedMedia id="365"  >
         <AMFile id="366" start="154" duration="1254" scalar="1/1" mediaStart="206/1" mediaDuration="1254/1" trackNumber="1" src="4" channelNumber="0,1" >
          <Parameters>
           <InterpolatingParam id="367" interp="linr"  time="0/1" value="1" leadInLength="0/1"  name="volume"/>
           <Parameter id="368"  name="captions"/>
          </Parameters>
          <Attributes>
           <Attribute id="369" value="" name="ident"/>
           <Attribute id="370" value="44100" name="sampleRate"/>
           <Attribute id="371" value="16" name="bitDepth"/>
           <Attribute id="372" value="1" name="gain"/>
           <Attribute id="373" value="0" name="mixToMono"/>
          </Attributes>
         </AMFile>
         <ScreenVMFile id="374" start="154" duration="1254" scalar="1/1" mediaStart="206/1" mediaDuration="1254/1" trackNumber="0" src="4" >
          <Transformer>
           <VectorParam id="375"  name="translation">
            <InterpolatingParam id="376" interp="linr"  time="-9999999/1" value="1.8107041039516139e-010" leadInLength="0/1"  interpolater="leadin-linr"  />
            <InterpolatingParam id="377" interp="linr"  time="-9999999/1" value="7.6196826626073744e-011" leadInLength="0/1"  interpolater="leadin-linr"  />
            <InterpolatingParam id="378" interp="linr"  time="-9999999/1" value="0" leadInLength="0/1"  interpolater="leadin-linr"  />
           </VectorParam>
           <VectorParam id="379"  name="rotation">
            <InterpolatingParam id="380" interp="linr"  time="-9999999/1" value="0" leadInLength="0/1"  interpolater="leadin-linr"  />
            <InterpolatingParam id="381" interp="linr"  time="-9999999/1" value="0" leadInLength="0/1"  interpolater="leadin-linr"  />
            <InterpolatingParam id="382" interp="linr"  time="-9999999/1" value="0" leadInLength="0/1"  interpolater="leadin-linr"  />
           </VectorParam>
           <VectorParam id="383"  name="shear">
            <InterpolatingParam id="384" interp="linr"  time="-9999999/1" value="0" leadInLength="0/1"  interpolater="leadin-linr"  />
            <InterpolatingParam id="385" interp="linr"  time="-9999999/1" value="0" leadInLength="0/1"  interpolater="leadin-linr"  />
            <InterpolatingParam id="386" interp="linr"  time="-9999999/1" value="0" leadInLength="0/1"  interpolater="leadin-linr"  />
           </VectorParam>
           <VectorParam id="387"  name="scale">
            <InterpolatingParam id="388" interp="linr"  time="-9999999/1" value="0.625" leadInLength="0/1"  interpolater="leadin-linr"  />
            <InterpolatingParam id="389" interp="linr"  time="-9999999/1" value="0.625" leadInLength="0/1"  interpolater="leadin-linr"  />
            <InterpolatingParam id="390" interp="linr"  time="-9999999/1" value="1" leadInLength="0/1"  interpolater="leadin-linr"  />
           </VectorParam>
           <VectorParam id="391"  name="anchor">
            <InterpolatingParam id="392" interp="linr"  time="0/1" value="0" leadInLength="0/1"  />
            <InterpolatingParam id="393" interp="linr"  time="0/1" value="0" leadInLength="0/1"  />
            <InterpolatingParam id="394" interp="linr"  time="0/1" value="0" leadInLength="0/1"  />
           </VectorParam>
          </Transformer>
          <Parameters>
           <VectorParam id="395"  name="sourceCrop">
            <InterpolatingParam id="396" interp="linr"  time="0/1" value="0" leadInLength="0/1"  />
            <InterpolatingParam id="397" interp="linr"  time="0/1" value="0" leadInLength="0/1"  />
            <InterpolatingParam id="398" interp="linr"  time="0/1" value="0" leadInLength="0/1"  />
            <InterpolatingParam id="399" interp="linr"  time="0/1" value="0" leadInLength="0/1"  />
           </VectorParam>
           <VectorParam id="400"  name="geometryCrop">
            <InterpolatingParam id="401" interp="linr"  time="-9999999/1" value="0" leadInLength="0/1"  interpolater="leadin-linr"  />
            <InterpolatingParam id="402" interp="linr"  time="-9999999/1" value="0" leadInLength="0/1"  interpolater="leadin-linr"  />
            <InterpolatingParam id="403" interp="linr"  time="-9999999/1" value="0" leadInLength="0/1"  interpolater="leadin-linr"  />
            <InterpolatingParam id="404" interp="linr"  time="-9999999/1" value="0" leadInLength="0/1"  interpolater="leadin-linr"  />
           </VectorParam>
           <InterpolatingParam id="405" interp="linr"  time="-9999999/1" value="1" leadInLength="0/1"  interpolater="leadin-linr"  name="opacity"/>
           <InterpolatingParam id="406" interp="linr"  time="0/1" value="1" leadInLength="0/1"  name="cursorOpacity"/>
           <InterpolatingParam id="407" interp="linr"  time="0/1" value="1" leadInLength="0/1"  name="cursorScale"/>
          </Parameters>
          <Effects>
           <GenericEffect id="408" name = "CursorBaseEffectName" >
            <Parameters>
            <InterpolatingParam id="409" interp="linr"  time="-9999999/1" value="1" leadInLength="0/1"   name="cursorSize"/>
            <InterpolatingParam id="410" interp="linr"  time="-9999999/1" value="0" leadInLength="0/1"   name="highlightBlurRadius"/>
            <InterpolatingParam id="411" interp="linr"  time="-9999999/1" value="0" leadInLength="0/1"   name="highlightColorBlue"/>
            <InterpolatingParam id="412" interp="linr"  time="-9999999/1" value="255" leadInLength="0/1"   name="highlightColorGreen"/>
            <InterpolatingParam id="413" interp="linr"  time="-9999999/1" value="255" leadInLength="0/1"   name="highlightColorRed"/>
            <InterpolatingParam id="414" interp="linr"  time="-9999999/1" value="5" leadInLength="0/1"   name="highlightFeatherSize"/>
            <InterpolatingParam id="415" interp="linr"  time="-9999999/1" value="2" leadInLength="0/1"   name="highlightMagnification"/>
            <InterpolatingParam id="416" interp="linr"  time="-9999999/1" value="1" leadInLength="0/1"   name="highlightOpacity"/>
            <InterpolatingParam id="417" interp="linr"  time="-9999999/1" value="45" leadInLength="0/1"   name="highlightSize"/>
            <Parameter id="418"   name="highlightType">
             <Keyframes>
             <Keyframe id="419"  time="-9999999/1" value="0" leadInLength="0/1"  />
             </Keyframes>
            </Parameter>
            <InterpolatingParam id="420" interp="linr"  time="-9999999/1" value="0" leadInLength="0/1"   name="leftClickColorBlue"/>
            <InterpolatingParam id="421" interp="linr"  time="-9999999/1" value="0" leadInLength="0/1"   name="leftClickColorGreen"/>
            <InterpolatingParam id="422" interp="linr"  time="-9999999/1" value="255" leadInLength="0/1"   name="leftClickColorRed"/>
            <InterpolatingParam id="423" interp="linr"  time="-9999999/1" value="0.80000000000000004" leadInLength="0/1"   name="leftClickDuration"/>
            <InterpolatingParam id="424" interp="linr"  time="-9999999/1" value="20" leadInLength="0/1"   name="leftClickSize"/>
            <Parameter id="425"   name="leftClickSoundFilename">
             <Keyframes>
             <Keyframe id="426"  time="-9999999/1" value="" leadInLength="0/1"  />
             </Keyframes>
            </Parameter>
            <InterpolatingParam id="427" interp="linr"  time="-9999999/1" value="1" leadInLength="0/1"   name="leftClickSoundVolume"/>
            <Parameter id="428"   name="leftClickType">
             <Keyframes>
             <Keyframe id="429"  time="-9999999/1" value="0" leadInLength="0/1"  />
             </Keyframes>
            </Parameter>
            <InterpolatingParam id="430" interp="linr"  time="-9999999/1" value="1" leadInLength="0/1"   name="opacity"/>
            <InterpolatingParam id="431" interp="linr"  time="-9999999/1" value="255" leadInLength="0/1"   name="rightClickColorBlue"/>
            <InterpolatingParam id="432" interp="linr"  time="-9999999/1" value="0" leadInLength="0/1"   name="rightClickColorGreen"/>
            <InterpolatingParam id="433" interp="linr"  time="-9999999/1" value="0" leadInLength="0/1"   name="rightClickColorRed"/>
            <InterpolatingParam id="434" interp="linr"  time="-9999999/1" value="0.80000000000000004" leadInLength="0/1"   name="rightClickDuration"/>
            <InterpolatingParam id="435" interp="linr"  time="-9999999/1" value="20" leadInLength="0/1"   name="rightClickSize"/>
            <Parameter id="436"   name="rightClickSoundFilename">
             <Keyframes>
             <Keyframe id="437"  time="-9999999/1" value="" leadInLength="0/1"  />
             </Keyframes>
            </Parameter>
            <InterpolatingParam id="438" interp="linr"  time="-9999999/1" value="1" leadInLength="0/1"   name="rightClickSoundVolume"/>
            <Parameter id="439"   name="rightClickType">
             <Keyframes>
             <Keyframe id="440"  time="-9999999/1" value="0" leadInLength="0/1"  />
             </Keyframes>
            </Parameter>
            </Parameters>
            <MetaData>
             <entry key="effectIndex" val="0"/>
            </MetaData>
           </GenericEffect>
          </Effects>
          <Attributes>
           <Attribute id="441" value="" name="ident"/>
          </Attributes>
          <ExtraData>
           <Entry key="ZoomPanBin">
            <ZoomPanBin id="442"  >
             <ZoomPanKeyframes>
              <ZoomPanKeyframe id="443" timeRangeEnd="-9999999/1" timeRangeDuration="0/1" interpolaterName="leadin-linr"  />
             </ZoomPanKeyframes>
            </ZoomPanBin>
           </Entry>
           <Entry key="CursorEffectBin">
            <CursorEffectBin id="444"  >
             <CursorEffectKeyframes>
              <CursorEffectKeyframe id="445" timeRangeEnd="-9999999/1" timeRangeDuration="0/1" interpolaterName=""  />
             </CursorEffectKeyframes>
            </CursorEffectBin>
           </Entry>
          </ExtraData>
         </ScreenVMFile>
         <MetaData>
          <entry key="AutoAppliedSmartFocus" val="False"/>
          <entry key="WinSubProjectDisplayName" val=""/>
         </MetaData>
        </UnifiedMedia>
        <UnifiedMedia id="446"  >
         <AMFile id="447" start="1441" duration="523" scalar="1/1" mediaStart="1496/1" mediaDuration="523/1" trackNumber="1" src="4" channelNumber="0,1" >
          <Parameters>
           <InterpolatingParam id="448" interp="linr"  time="0/1" value="1" leadInLength="0/1"  name="volume"/>
           <Parameter id="449"  name="captions"/>
          </Parameters>
          <Attributes>
           <Attribute id="450" value="" name="ident"/>
           <Attribute id="451" value="44100" name="sampleRate"/>
           <Attribute id="452" value="16" name="bitDepth"/>
           <Attribute id="453" value="1" name="gain"/>
           <Attribute id="454" value="0" name="mixToMono"/>
          </Attributes>
         </AMFile>
         <ScreenVMFile id="455" start="1441" duration="523" scalar="1/1" mediaStart="1496/1" mediaDuration="523/1" trackNumber="0" src="4" >
          <Transformer>
           <VectorParam id="456"  name="translation">
            <InterpolatingParam id="457" interp="linr"  time="-9999999/1" value="0" leadInLength="0/1"  interpolater="leadin-linr"  />
            <InterpolatingParam id="458" interp="linr"  time="-9999999/1" value="0" leadInLength="0/1"  interpolater="leadin-linr"  />
            <InterpolatingParam id="459" interp="linr"  time="-9999999/1" value="0" leadInLength="0/1"  interpolater="leadin-linr"  />
           </VectorParam>
           <VectorParam id="460"  name="rotation">
            <InterpolatingParam id="461" interp="linr"  time="-9999999/1" value="0" leadInLength="0/1"  interpolater="leadin-linr"  />
            <InterpolatingParam id="462" interp="linr"  time="-9999999/1" value="0" leadInLength="0/1"  interpolater="leadin-linr"  />
            <InterpolatingParam id="463" interp="linr"  time="-9999999/1" value="0" leadInLength="0/1"  interpolater="leadin-linr"  />
           </VectorParam>
           <VectorParam id="464"  name="shear">
            <InterpolatingParam id="465" interp="linr"  time="-9999999/1" value="0" leadInLength="0/1"  interpolater="leadin-linr"  />
            <InterpolatingParam id="466" interp="linr"  time="-9999999/1" value="0" leadInLength="0/1"  interpolater="leadin-linr"  />
            <InterpolatingParam id="467" interp="linr"  time="-9999999/1" value="0" leadInLength="0/1"  interpolater="leadin-linr"  />
           </VectorParam>
           <VectorParam id="468"  name="scale">
            <InterpolatingParam id="469" interp="linr"  time="-9999999/1" value="0.625" leadInLength="0/1"  interpolater="leadin-linr"  />
            <InterpolatingParam id="470" interp="linr"  time="-9999999/1" value="0.625" leadInLength="0/1"  interpolater="leadin-linr"  />
            <InterpolatingParam id="471" interp="linr"  time="-9999999/1" value="1" leadInLength="0/1"  interpolater="leadin-linr"  />
           </VectorParam>
           <VectorParam id="472"  name="anchor">
            <InterpolatingParam id="473" interp="linr"  time="0/1" value="0" leadInLength="0/1"  />
            <InterpolatingParam id="474" interp="linr"  time="0/1" value="0" leadInLength="0/1"  />
            <InterpolatingParam id="475" interp="linr"  time="0/1" value="0" leadInLength="0/1"  />
           </VectorParam>
          </Transformer>
          <Parameters>
           <VectorParam id="476"  name="sourceCrop">
            <InterpolatingParam id="477" interp="linr"  time="0/1" value="0" leadInLength="0/1"  />
            <InterpolatingParam id="478" interp="linr"  time="0/1" value="0" leadInLength="0/1"  />
            <InterpolatingParam id="479" interp="linr"  time="0/1" value="0" leadInLength="0/1"  />
            <InterpolatingParam id="480" interp="linr"  time="0/1" value="0" leadInLength="0/1"  />
           </VectorParam>
           <VectorParam id="481"  name="geometryCrop">
            <InterpolatingParam id="482" interp="linr"  time="-9999999/1" value="0" leadInLength="0/1"  interpolater="leadin-linr"  />
            <InterpolatingParam id="483" interp="linr"  time="-9999999/1" value="0" leadInLength="0/1"  interpolater="leadin-linr"  />
            <InterpolatingParam id="484" interp="linr"  time="-9999999/1" value="0" leadInLength="0/1"  interpolater="leadin-linr"  />
            <InterpolatingParam id="485" interp="linr"  time="-9999999/1" value="0" leadInLength="0/1"  interpolater="leadin-linr"  />
           </VectorParam>
           <InterpolatingParam id="486" interp="linr"  time="-9999999/1" value="1" leadInLength="0/1"  interpolater="leadin-linr"  name="opacity"/>
           <InterpolatingParam id="487" interp="linr"  time="0/1" value="1" leadInLength="0/1"  name="cursorOpacity"/>
           <InterpolatingParam id="488" interp="linr"  time="0/1" value="1" leadInLength="0/1"  name="cursorScale"/>
          </Parameters>
          <Effects>
           <GenericEffect id="489" name = "CursorBaseEffectName" >
            <Parameters>
            <InterpolatingParam id="490" interp="linr"  time="-9999999/1" value="1" leadInLength="0/1"   name="cursorSize"/>
            <InterpolatingParam id="491" interp="linr"  time="-9999999/1" value="0" leadInLength="0/1"   name="highlightBlurRadius"/>
            <InterpolatingParam id="492" interp="linr"  time="-9999999/1" value="0" leadInLength="0/1"   name="highlightColorBlue"/>
            <InterpolatingParam id="493" interp="linr"  time="-9999999/1" value="255" leadInLength="0/1"   name="highlightColorGreen"/>
            <InterpolatingParam id="494" interp="linr"  time="-9999999/1" value="255" leadInLength="0/1"   name="highlightColorRed"/>
            <InterpolatingParam id="495" interp="linr"  time="-9999999/1" value="5" leadInLength="0/1"   name="highlightFeatherSize"/>
            <InterpolatingParam id="496" interp="linr"  time="-9999999/1" value="2" leadInLength="0/1"   name="highlightMagnification"/>
            <InterpolatingParam id="497" interp="linr"  time="-9999999/1" value="1" leadInLength="0/1"   name="highlightOpacity"/>
            <InterpolatingParam id="498" interp="linr"  time="-9999999/1" value="45" leadInLength="0/1"   name="highlightSize"/>
            <Parameter id="499"   name="highlightType">
             <Keyframes>
             <Keyframe id="500"  time="-9999999/1" value="0" leadInLength="0/1"  />
             </Keyframes>
            </Parameter>
            <InterpolatingParam id="501" interp="linr"  time="-9999999/1" value="0" leadInLength="0/1"   name="leftClickColorBlue"/>
            <InterpolatingParam id="502" interp="linr"  time="-9999999/1" value="0" leadInLength="0/1"   name="leftClickColorGreen"/>
            <InterpolatingParam id="503" interp="linr"  time="-9999999/1" value="255" leadInLength="0/1"   name="leftClickColorRed"/>
            <InterpolatingParam id="504" interp="linr"  time="-9999999/1" value="0.80000000000000004" leadInLength="0/1"   name="leftClickDuration"/>
            <InterpolatingParam id="505" interp="linr"  time="-9999999/1" value="20" leadInLength="0/1"   name="leftClickSize"/>
            <Parameter id="506"   name="leftClickSoundFilename">
             <Keyframes>
             <Keyframe id="507"  time="-9999999/1" value="" leadInLength="0/1"  />
             </Keyframes>
            </Parameter>
            <InterpolatingParam id="508" interp="linr"  time="-9999999/1" value="1" leadInLength="0/1"   name="leftClickSoundVolume"/>
            <Parameter id="509"   name="leftClickType">
             <Keyframes>
             <Keyframe id="510"  time="-9999999/1" value="0" leadInLength="0/1"  />
             </Keyframes>
            </Parameter>
            <InterpolatingParam id="511" interp="linr"  time="-9999999/1" value="1" leadInLength="0/1"   name="opacity"/>
            <InterpolatingParam id="512" interp="linr"  time="-9999999/1" value="255" leadInLength="0/1"   name="rightClickColorBlue"/>
            <InterpolatingParam id="513" interp="linr"  time="-9999999/1" value="0" leadInLength="0/1"   name="rightClickColorGreen"/>
            <InterpolatingParam id="514" interp="linr"  time="-9999999/1" value="0" leadInLength="0/1"   name="rightClickColorRed"/>
            <InterpolatingParam id="515" interp="linr"  time="-9999999/1" value="0.80000000000000004" leadInLength="0/1"   name="rightClickDuration"/>
            <InterpolatingParam id="516" interp="linr"  time="-9999999/1" value="20" leadInLength="0/1"   name="rightClickSize"/>
            <Parameter id="517"   name="rightClickSoundFilename">
             <Keyframes>
             <Keyframe id="518"  time="-9999999/1" value="" leadInLength="0/1"  />
             </Keyframes>
            </Parameter>
            <InterpolatingParam id="519" interp="linr"  time="-9999999/1" value="1" leadInLength="0/1"   name="rightClickSoundVolume"/>
            <Parameter id="520"   name="rightClickType">
             <Keyframes>
             <Keyframe id="521"  time="-9999999/1" value="0" leadInLength="0/1"  />
             </Keyframes>
            </Parameter>
            </Parameters>
            <MetaData>
             <entry key="effectIndex" val="0"/>
            </MetaData>
           </GenericEffect>
          </Effects>
          <Attributes>
           <Attribute id="522" value="" name="ident"/>
          </Attributes>
          <ExtraData>
           <Entry key="ZoomPanBin">
            <ZoomPanBin id="523"  >
             <ZoomPanKeyframes>
              <ZoomPanKeyframe id="524" timeRangeEnd="-9999999/1" timeRangeDuration="0/1" interpolaterName="leadin-linr"  />
             </ZoomPanKeyframes>
            </ZoomPanBin>
           </Entry>
           <Entry key="CursorEffectBin">
            <CursorEffectBin id="525"  >
             <CursorEffectKeyframes>
              <CursorEffectKeyframe id="526" timeRangeEnd="-9999999/1" timeRangeDuration="0/1" interpolaterName=""  />
             </CursorEffectKeyframes>
            </CursorEffectBin>
           </Entry>
          </ExtraData>
         </ScreenVMFile>
         <MetaData>
          <entry key="AutoAppliedSmartFocus" val="False"/>
          <entry key="WinSubProjectDisplayName" val=""/>
         </MetaData>
        </UnifiedMedia>
        <UnifiedMedia id="527"  >
         <AMFile id="528" start="1964" duration="223" scalar="1/1" mediaStart="2039/1" mediaDuration="223/1" trackNumber="1" src="4" channelNumber="0,1" >
          <Parameters>
           <InterpolatingParam id="529" interp="linr"  time="0/1" value="1" leadInLength="0/1"  name="volume"/>
           <Parameter id="530"  name="captions"/>
          </Parameters>
          <Attributes>
           <Attribute id="531" value="" name="ident"/>
           <Attribute id="532" value="44100" name="sampleRate"/>
           <Attribute id="533" value="16" name="bitDepth"/>
           <Attribute id="534" value="1" name="gain"/>
           <Attribute id="535" value="0" name="mixToMono"/>
          </Attributes>
         </AMFile>
         <ScreenVMFile id="536" start="1964" duration="223" scalar="1/1" mediaStart="2039/1" mediaDuration="223/1" trackNumber="0" src="4" >
          <Transformer>
           <VectorParam id="537"  name="translation">
            <InterpolatingParam id="538" interp="linr"  time="-9999999/1" value="0" leadInLength="0/1"  interpolater="leadin-linr"  />
            <InterpolatingParam id="539" interp="linr"  time="-9999999/1" value="0" leadInLength="0/1"  interpolater="leadin-linr"  />
            <InterpolatingParam id="540" interp="linr"  time="-9999999/1" value="0" leadInLength="0/1"  interpolater="leadin-linr"  />
           </VectorParam>
           <VectorParam id="541"  name="rotation">
            <InterpolatingParam id="542" interp="linr"  time="-9999999/1" value="0" leadInLength="0/1"  interpolater="leadin-linr"  />
            <InterpolatingParam id="543" interp="linr"  time="-9999999/1" value="0" leadInLength="0/1"  interpolater="leadin-linr"  />
            <InterpolatingParam id="544" interp="linr"  time="-9999999/1" value="0" leadInLength="0/1"  interpolater="leadin-linr"  />
           </VectorParam>
           <VectorParam id="545"  name="shear">
            <InterpolatingParam id="546" interp="linr"  time="-9999999/1" value="0" leadInLength="0/1"  interpolater="leadin-linr"  />
            <InterpolatingParam id="547" interp="linr"  time="-9999999/1" value="0" leadInLength="0/1"  interpolater="leadin-linr"  />
            <InterpolatingParam id="548" interp="linr"  time="-9999999/1" value="0" leadInLength="0/1"  interpolater="leadin-linr"  />
           </VectorParam>
           <VectorParam id="549"  name="scale">
            <InterpolatingParam id="550" interp="linr"  time="-9999999/1" value="0.625" leadInLength="0/1"  interpolater="leadin-linr"  />
            <InterpolatingParam id="551" interp="linr"  time="-9999999/1" value="0.625" leadInLength="0/1"  interpolater="leadin-linr"  />
            <InterpolatingParam id="552" interp="linr"  time="-9999999/1" value="1" leadInLength="0/1"  interpolater="leadin-linr"  />
           </VectorParam>
           <VectorParam id="553"  name="anchor">
            <InterpolatingParam id="554" interp="linr"  time="0/1" value="0" leadInLength="0/1"  />
            <InterpolatingParam id="555" interp="linr"  time="0/1" value="0" leadInLength="0/1"  />
            <InterpolatingParam id="556" interp="linr"  time="0/1" value="0" leadInLength="0/1"  />
           </VectorParam>
          </Transformer>
          <Parameters>
           <VectorParam id="557"  name="sourceCrop">
            <InterpolatingParam id="558" interp="linr"  time="0/1" value="0" leadInLength="0/1"  />
            <InterpolatingParam id="559" interp="linr"  time="0/1" value="0" leadInLength="0/1"  />
            <InterpolatingParam id="560" interp="linr"  time="0/1" value="0" leadInLength="0/1"  />
            <InterpolatingParam id="561" interp="linr"  time="0/1" value="0" leadInLength="0/1"  />
           </VectorParam>
           <VectorParam id="562"  name="geometryCrop">
            <InterpolatingParam id="563" interp="linr"  time="-9999999/1" value="0" leadInLength="0/1"  interpolater="leadin-linr"  />
            <InterpolatingParam id="564" interp="linr"  time="-9999999/1" value="0" leadInLength="0/1"  interpolater="leadin-linr"  />
            <InterpolatingParam id="565" interp="linr"  time="-9999999/1" value="0" leadInLength="0/1"  interpolater="leadin-linr"  />
            <InterpolatingParam id="566" interp="linr"  time="-9999999/1" value="0" leadInLength="0/1"  interpolater="leadin-linr"  />
           </VectorParam>
           <InterpolatingParam id="567" interp="linr"  time="-9999999/1" value="1" leadInLength="0/1"  interpolater="leadin-linr"  name="opacity"/>
           <InterpolatingParam id="568" interp="linr"  time="0/1" value="1" leadInLength="0/1"  name="cursorOpacity"/>
           <InterpolatingParam id="569" interp="linr"  time="0/1" value="1" leadInLength="0/1"  name="cursorScale"/>
          </Parameters>
          <Effects>
           <GenericEffect id="570" name = "CursorBaseEffectName" >
            <Parameters>
            <InterpolatingParam id="571" interp="linr"  time="-9999999/1" value="1" leadInLength="0/1"   name="cursorSize"/>
            <InterpolatingParam id="572" interp="linr"  time="-9999999/1" value="0" leadInLength="0/1"   name="highlightBlurRadius"/>
            <InterpolatingParam id="573" interp="linr"  time="-9999999/1" value="0" leadInLength="0/1"   name="highlightColorBlue"/>
            <InterpolatingParam id="574" interp="linr"  time="-9999999/1" value="255" leadInLength="0/1"   name="highlightColorGreen"/>
            <InterpolatingParam id="575" interp="linr"  time="-9999999/1" value="255" leadInLength="0/1"   name="highlightColorRed"/>
            <InterpolatingParam id="576" interp="linr"  time="-9999999/1" value="5" leadInLength="0/1"   name="highlightFeatherSize"/>
            <InterpolatingParam id="577" interp="linr"  time="-9999999/1" value="2" leadInLength="0/1"   name="highlightMagnification"/>
            <InterpolatingParam id="578" interp="linr"  time="-9999999/1" value="1" leadInLength="0/1"   name="highlightOpacity"/>
            <InterpolatingParam id="579" interp="linr"  time="-9999999/1" value="45" leadInLength="0/1"   name="highlightSize"/>
            <Parameter id="580"   name="highlightType">
             <Keyframes>
             <Keyframe id="581"  time="-9999999/1" value="0" leadInLength="0/1"  />
             </Keyframes>
            </Parameter>
            <InterpolatingParam id="582" interp="linr"  time="-9999999/1" value="0" leadInLength="0/1"   name="leftClickColorBlue"/>
            <InterpolatingParam id="583" interp="linr"  time="-9999999/1" value="0" leadInLength="0/1"   name="leftClickColorGreen"/>
            <InterpolatingParam id="584" interp="linr"  time="-9999999/1" value="255" leadInLength="0/1"   name="leftClickColorRed"/>
            <InterpolatingParam id="585" interp="linr"  time="-9999999/1" value="0.80000000000000004" leadInLength="0/1"   name="leftClickDuration"/>
            <InterpolatingParam id="586" interp="linr"  time="-9999999/1" value="20" leadInLength="0/1"   name="leftClickSize"/>
            <Parameter id="587"   name="leftClickSoundFilename">
             <Keyframes>
             <Keyframe id="588"  time="-9999999/1" value="" leadInLength="0/1"  />
             </Keyframes>
            </Parameter>
            <InterpolatingParam id="589" interp="linr"  time="-9999999/1" value="1" leadInLength="0/1"   name="leftClickSoundVolume"/>
            <Parameter id="590"   name="leftClickType">
             <Keyframes>
             <Keyframe id="591"  time="-9999999/1" value="0" leadInLength="0/1"  />
             </Keyframes>
            </Parameter>
            <InterpolatingParam id="592" interp="linr"  time="-9999999/1" value="1" leadInLength="0/1"   name="opacity"/>
            <InterpolatingParam id="593" interp="linr"  time="-9999999/1" value="255" leadInLength="0/1"   name="rightClickColorBlue"/>
            <InterpolatingParam id="594" interp="linr"  time="-9999999/1" value="0" leadInLength="0/1"   name="rightClickColorGreen"/>
            <InterpolatingParam id="595" interp="linr"  time="-9999999/1" value="0" leadInLength="0/1"   name="rightClickColorRed"/>
            <InterpolatingParam id="596" interp="linr"  time="-9999999/1" value="0.80000000000000004" leadInLength="0/1"   name="rightClickDuration"/>
            <InterpolatingParam id="597" interp="linr"  time="-9999999/1" value="20" leadInLength="0/1"   name="rightClickSize"/>
            <Parameter id="598"   name="rightClickSoundFilename">
             <Keyframes>
             <Keyframe id="599"  time="-9999999/1" value="" leadInLength="0/1"  />
             </Keyframes>
            </Parameter>
            <InterpolatingParam id="600" interp="linr"  time="-9999999/1" value="1" leadInLength="0/1"   name="rightClickSoundVolume"/>
            <Parameter id="601"   name="rightClickType">
             <Keyframes>
             <Keyframe id="602"  time="-9999999/1" value="0" leadInLength="0/1"  />
             </Keyframes>
            </Parameter>
            </Parameters>
            <MetaData>
             <entry key="effectIndex" val="0"/>
            </MetaData>
           </GenericEffect>
          </Effects>
          <Attributes>
           <Attribute id="603" value="" name="ident"/>
          </Attributes>
          <ExtraData>
           <Entry key="ZoomPanBin">
            <ZoomPanBin id="604"  >
             <ZoomPanKeyframes>
              <ZoomPanKeyframe id="605" timeRangeEnd="-9999999/1" timeRangeDuration="0/1" interpolaterName="leadin-linr"  />
             </ZoomPanKeyframes>
            </ZoomPanBin>
           </Entry>
           <Entry key="CursorEffectBin">
            <CursorEffectBin id="606"  >
             <CursorEffectKeyframes>
              <CursorEffectKeyframe id="607" timeRangeEnd="-9999999/1" timeRangeDuration="0/1" interpolaterName=""  />
             </CursorEffectKeyframes>
            </CursorEffectBin>
           </Entry>
          </ExtraData>
         </ScreenVMFile>
         <MetaData>
          <entry key="AutoAppliedSmartFocus" val="False"/>
          <entry key="WinSubProjectDisplayName" val=""/>
         </MetaData>
        </UnifiedMedia>
        <UnifiedMedia id="608"  >
         <AMFile id="609" start="2187" duration="80" scalar="1/1" mediaStart="2308/1" mediaDuration="80/1" trackNumber="1" src="4" channelNumber="0,1" >
          <Parameters>
           <InterpolatingParam id="610" interp="linr"  time="0/1" value="1" leadInLength="0/1"  name="volume"/>
           <Parameter id="611"  name="captions"/>
          </Parameters>
          <Attributes>
           <Attribute id="612" value="" name="ident"/>
           <Attribute id="613" value="44100" name="sampleRate"/>
           <Attribute id="614" value="16" name="bitDepth"/>
           <Attribute id="615" value="1" name="gain"/>
           <Attribute id="616" value="0" name="mixToMono"/>
          </Attributes>
         </AMFile>
         <ScreenVMFile id="617" start="2187" duration="80" scalar="1/1" mediaStart="2308/1" mediaDuration="80/1" trackNumber="0" src="4" >
          <Transformer>
           <VectorParam id="618"  name="translation">
            <InterpolatingParam id="619" interp="linr"  time="-9999999/1" value="0" leadInLength="0/1"  interpolater="leadin-linr"  />
            <InterpolatingParam id="620" interp="linr"  time="-9999999/1" value="0" leadInLength="0/1"  interpolater="leadin-linr"  />
            <InterpolatingParam id="621" interp="linr"  time="-9999999/1" value="0" leadInLength="0/1"  interpolater="leadin-linr"  />
           </VectorParam>
           <VectorParam id="622"  name="rotation">
            <InterpolatingParam id="623" interp="linr"  time="-9999999/1" value="0" leadInLength="0/1"  interpolater="leadin-linr"  />
            <InterpolatingParam id="624" interp="linr"  time="-9999999/1" value="0" leadInLength="0/1"  interpolater="leadin-linr"  />
            <InterpolatingParam id="625" interp="linr"  time="-9999999/1" value="0" leadInLength="0/1"  interpolater="leadin-linr"  />
           </VectorParam>
           <VectorParam id="626"  name="shear">
            <InterpolatingParam id="627" interp="linr"  time="-9999999/1" value="0" leadInLength="0/1"  interpolater="leadin-linr"  />
            <InterpolatingParam id="628" interp="linr"  time="-9999999/1" value="0" leadInLength="0/1"  interpolater="leadin-linr"  />
            <InterpolatingParam id="629" interp="linr"  time="-9999999/1" value="0" leadInLength="0/1"  interpolater="leadin-linr"  />
           </VectorParam>
           <VectorParam id="630"  name="scale">
            <InterpolatingParam id="631" interp="linr"  time="-9999999/1" value="0.625" leadInLength="0/1"  interpolater="leadin-linr"  />
            <InterpolatingParam id="632" interp="linr"  time="-9999999/1" value="0.625" leadInLength="0/1"  interpolater="leadin-linr"  />
            <InterpolatingParam id="633" interp="linr"  time="-9999999/1" value="1" leadInLength="0/1"  interpolater="leadin-linr"  />
           </VectorParam>
           <VectorParam id="634"  name="anchor">
            <InterpolatingParam id="635" interp="linr"  time="0/1" value="0" leadInLength="0/1"  />
            <InterpolatingParam id="636" interp="linr"  time="0/1" value="0" leadInLength="0/1"  />
            <InterpolatingParam id="637" interp="linr"  time="0/1" value="0" leadInLength="0/1"  />
           </VectorParam>
          </Transformer>
          <Parameters>
           <VectorParam id="638"  name="sourceCrop">
            <InterpolatingParam id="639" interp="linr"  time="0/1" value="0" leadInLength="0/1"  />
            <InterpolatingParam id="640" interp="linr"  time="0/1" value="0" leadInLength="0/1"  />
            <InterpolatingParam id="641" interp="linr"  time="0/1" value="0" leadInLength="0/1"  />
            <InterpolatingParam id="642" interp="linr"  time="0/1" value="0" leadInLength="0/1"  />
           </VectorParam>
           <VectorParam id="643"  name="geometryCrop">
            <InterpolatingParam id="644" interp="linr"  time="-9999999/1" value="0" leadInLength="0/1"  interpolater="leadin-linr"  />
            <InterpolatingParam id="645" interp="linr"  time="-9999999/1" value="0" leadInLength="0/1"  interpolater="leadin-linr"  />
            <InterpolatingParam id="646" interp="linr"  time="-9999999/1" value="0" leadInLength="0/1"  interpolater="leadin-linr"  />
            <InterpolatingParam id="647" interp="linr"  time="-9999999/1" value="0" leadInLength="0/1"  interpolater="leadin-linr"  />
           </VectorParam>
           <InterpolatingParam id="648" interp="linr"  time="-9999999/1" value="1" leadInLength="0/1"  interpolater="leadin-linr"  name="opacity"/>
           <InterpolatingParam id="649" interp="linr"  time="0/1" value="1" leadInLength="0/1"  name="cursorOpacity"/>
           <InterpolatingParam id="650" interp="linr"  time="0/1" value="1" leadInLength="0/1"  name="cursorScale"/>
          </Parameters>
          <Effects>
           <GenericEffect id="651" name = "CursorBaseEffectName" >
            <Parameters>
            <InterpolatingParam id="652" interp="linr"  time="-9999999/1" value="1" leadInLength="0/1"   name="cursorSize"/>
            <InterpolatingParam id="653" interp="linr"  time="-9999999/1" value="0" leadInLength="0/1"   name="highlightBlurRadius"/>
            <InterpolatingParam id="654" interp="linr"  time="-9999999/1" value="0" leadInLength="0/1"   name="highlightColorBlue"/>
            <InterpolatingParam id="655" interp="linr"  time="-9999999/1" value="255" leadInLength="0/1"   name="highlightColorGreen"/>
            <InterpolatingParam id="656" interp="linr"  time="-9999999/1" value="255" leadInLength="0/1"   name="highlightColorRed"/>
            <InterpolatingParam id="657" interp="linr"  time="-9999999/1" value="5" leadInLength="0/1"   name="highlightFeatherSize"/>
            <InterpolatingParam id="658" interp="linr"  time="-9999999/1" value="2" leadInLength="0/1"   name="highlightMagnification"/>
            <InterpolatingParam id="659" interp="linr"  time="-9999999/1" value="1" leadInLength="0/1"   name="highlightOpacity"/>
            <InterpolatingParam id="660" interp="linr"  time="-9999999/1" value="45" leadInLength="0/1"   name="highlightSize"/>
            <Parameter id="661"   name="highlightType">
             <Keyframes>
             <Keyframe id="662"  time="-9999999/1" value="0" leadInLength="0/1"  />
             </Keyframes>
            </Parameter>
            <InterpolatingParam id="663" interp="linr"  time="-9999999/1" value="0" leadInLength="0/1"   name="leftClickColorBlue"/>
            <InterpolatingParam id="664" interp="linr"  time="-9999999/1" value="0" leadInLength="0/1"   name="leftClickColorGreen"/>
            <InterpolatingParam id="665" interp="linr"  time="-9999999/1" value="255" leadInLength="0/1"   name="leftClickColorRed"/>
            <InterpolatingParam id="666" interp="linr"  time="-9999999/1" value="0.80000000000000004" leadInLength="0/1"   name="leftClickDuration"/>
            <InterpolatingParam id="667" interp="linr"  time="-9999999/1" value="20" leadInLength="0/1"   name="leftClickSize"/>
            <Parameter id="668"   name="leftClickSoundFilename">
             <Keyframes>
             <Keyframe id="669"  time="-9999999/1" value="" leadInLength="0/1"  />
             </Keyframes>
            </Parameter>
            <InterpolatingParam id="670" interp="linr"  time="-9999999/1" value="1" leadInLength="0/1"   name="leftClickSoundVolume"/>
            <Parameter id="671"   name="leftClickType">
             <Keyframes>
             <Keyframe id="672"  time="-9999999/1" value="0" leadInLength="0/1"  />
             </Keyframes>
            </Parameter>
            <InterpolatingParam id="673" interp="linr"  time="-9999999/1" value="1" leadInLength="0/1"   name="opacity"/>
            <InterpolatingParam id="674" interp="linr"  time="-9999999/1" value="255" leadInLength="0/1"   name="rightClickColorBlue"/>
            <InterpolatingParam id="675" interp="linr"  time="-9999999/1" value="0" leadInLength="0/1"   name="rightClickColorGreen"/>
            <InterpolatingParam id="676" interp="linr"  time="-9999999/1" value="0" leadInLength="0/1"   name="rightClickColorRed"/>
            <InterpolatingParam id="677" interp="linr"  time="-9999999/1" value="0.80000000000000004" leadInLength="0/1"   name="rightClickDuration"/>
            <InterpolatingParam id="678" interp="linr"  time="-9999999/1" value="20" leadInLength="0/1"   name="rightClickSize"/>
            <Parameter id="679"   name="rightClickSoundFilename">
             <Keyframes>
             <Keyframe id="680"  time="-9999999/1" value="" leadInLength="0/1"  />
             </Keyframes>
            </Parameter>
            <InterpolatingParam id="681" interp="linr"  time="-9999999/1" value="1" leadInLength="0/1"   name="rightClickSoundVolume"/>
            <Parameter id="682"   name="rightClickType">
             <Keyframes>
             <Keyframe id="683"  time="-9999999/1" value="0" leadInLength="0/1"  />
             </Keyframes>
            </Parameter>
            </Parameters>
            <MetaData>
             <entry key="effectIndex" val="0"/>
            </MetaData>
           </GenericEffect>
          </Effects>
          <Attributes>
           <Attribute id="684" value="" name="ident"/>
          </Attributes>
          <ExtraData>
           <Entry key="ZoomPanBin">
            <ZoomPanBin id="685"  >
             <ZoomPanKeyframes>
              <ZoomPanKeyframe id="686" timeRangeEnd="-9999999/1" timeRangeDuration="0/1" interpolaterName="leadin-linr"  />
             </ZoomPanKeyframes>
            </ZoomPanBin>
           </Entry>
           <Entry key="CursorEffectBin">
            <CursorEffectBin id="687"  >
             <CursorEffectKeyframes>
              <CursorEffectKeyframe id="688" timeRangeEnd="-9999999/1" timeRangeDuration="0/1" interpolaterName=""  />
             </CursorEffectKeyframes>
            </CursorEffectBin>
           </Entry>
          </ExtraData>
         </ScreenVMFile>
         <MetaData>
          <entry key="AutoAppliedSmartFocus" val="False"/>
          <entry key="WinSubProjectDisplayName" val=""/>
         </MetaData>
        </UnifiedMedia>
        <UnifiedMedia id="689"  >
         <AMFile id="690" start="2267" duration="80" scalar="1/1" mediaStart="2415/1" mediaDuration="80/1" trackNumber="1" src="4" channelNumber="0,1" >
          <Parameters>
           <InterpolatingParam id="691" interp="linr"  time="0/1" value="1" leadInLength="0/1"  name="volume"/>
           <Parameter id="692"  name="captions"/>
          </Parameters>
          <Attributes>
           <Attribute id="693" value="" name="ident"/>
           <Attribute id="694" value="44100" name="sampleRate"/>
           <Attribute id="695" value="16" name="bitDepth"/>
           <Attribute id="696" value="1" name="gain"/>
           <Attribute id="697" value="0" name="mixToMono"/>
          </Attributes>
         </AMFile>
         <ScreenVMFile id="698" start="2267" duration="80" scalar="1/1" mediaStart="2415/1" mediaDuration="80/1" trackNumber="0" src="4" >
          <Transformer>
           <VectorParam id="699"  name="translation">
            <InterpolatingParam id="700" interp="linr"  time="-9999999/1" value="0" leadInLength="0/1"  interpolater="leadin-linr"  />
            <InterpolatingParam id="701" interp="linr"  time="-9999999/1" value="0" leadInLength="0/1"  interpolater="leadin-linr"  />
            <InterpolatingParam id="702" interp="linr"  time="-9999999/1" value="0" leadInLength="0/1"  interpolater="leadin-linr"  />
           </VectorParam>
           <VectorParam id="703"  name="rotation">
            <InterpolatingParam id="704" interp="linr"  time="-9999999/1" value="0" leadInLength="0/1"  interpolater="leadin-linr"  />
            <InterpolatingParam id="705" interp="linr"  time="-9999999/1" value="0" leadInLength="0/1"  interpolater="leadin-linr"  />
            <InterpolatingParam id="706" interp="linr"  time="-9999999/1" value="0" leadInLength="0/1"  interpolater="leadin-linr"  />
           </VectorParam>
           <VectorParam id="707"  name="shear">
            <InterpolatingParam id="708" interp="linr"  time="-9999999/1" value="0" leadInLength="0/1"  interpolater="leadin-linr"  />
            <InterpolatingParam id="709" interp="linr"  time="-9999999/1" value="0" leadInLength="0/1"  interpolater="leadin-linr"  />
            <InterpolatingParam id="710" interp="linr"  time="-9999999/1" value="0" leadInLength="0/1"  interpolater="leadin-linr"  />
           </VectorParam>
           <VectorParam id="711"  name="scale">
            <InterpolatingParam id="712" interp="linr"  time="-9999999/1" value="0.625" leadInLength="0/1"  interpolater="leadin-linr"  />
            <InterpolatingParam id="713" interp="linr"  time="-9999999/1" value="0.625" leadInLength="0/1"  interpolater="leadin-linr"  />
            <InterpolatingParam id="714" interp="linr"  time="-9999999/1" value="1" leadInLength="0/1"  interpolater="leadin-linr"  />
           </VectorParam>
           <VectorParam id="715"  name="anchor">
            <InterpolatingParam id="716" interp="linr"  time="0/1" value="0" leadInLength="0/1"  />
            <InterpolatingParam id="717" interp="linr"  time="0/1" value="0" leadInLength="0/1"  />
            <InterpolatingParam id="718" interp="linr"  time="0/1" value="0" leadInLength="0/1"  />
           </VectorParam>
          </Transformer>
          <Parameters>
           <VectorParam id="719"  name="sourceCrop">
            <InterpolatingParam id="720" interp="linr"  time="0/1" value="0" leadInLength="0/1"  />
            <InterpolatingParam id="721" interp="linr"  time="0/1" value="0" leadInLength="0/1"  />
            <InterpolatingParam id="722" interp="linr"  time="0/1" value="0" leadInLength="0/1"  />
            <InterpolatingParam id="723" interp="linr"  time="0/1" value="0" leadInLength="0/1"  />
           </VectorParam>
           <VectorParam id="724"  name="geometryCrop">
            <InterpolatingParam id="725" interp="linr"  time="-9999999/1" value="0" leadInLength="0/1"  interpolater="leadin-linr"  />
            <InterpolatingParam id="726" interp="linr"  time="-9999999/1" value="0" leadInLength="0/1"  interpolater="leadin-linr"  />
            <InterpolatingParam id="727" interp="linr"  time="-9999999/1" value="0" leadInLength="0/1"  interpolater="leadin-linr"  />
            <InterpolatingParam id="728" interp="linr"  time="-9999999/1" value="0" leadInLength="0/1"  interpolater="leadin-linr"  />
           </VectorParam>
           <InterpolatingParam id="729" interp="linr"  time="-9999999/1" value="1" leadInLength="0/1"  interpolater="leadin-linr"  name="opacity"/>
           <InterpolatingParam id="730" interp="linr"  time="0/1" value="1" leadInLength="0/1"  name="cursorOpacity"/>
           <InterpolatingParam id="731" interp="linr"  time="0/1" value="1" leadInLength="0/1"  name="cursorScale"/>
          </Parameters>
          <Effects>
           <GenericEffect id="732" name = "CursorBaseEffectName" >
            <Parameters>
            <InterpolatingParam id="733" interp="linr"  time="-9999999/1" value="1" leadInLength="0/1"   name="cursorSize"/>
            <InterpolatingParam id="734" interp="linr"  time="-9999999/1" value="0" leadInLength="0/1"   name="highlightBlurRadius"/>
            <InterpolatingParam id="735" interp="linr"  time="-9999999/1" value="0" leadInLength="0/1"   name="highlightColorBlue"/>
            <InterpolatingParam id="736" interp="linr"  time="-9999999/1" value="255" leadInLength="0/1"   name="highlightColorGreen"/>
            <InterpolatingParam id="737" interp="linr"  time="-9999999/1" value="255" leadInLength="0/1"   name="highlightColorRed"/>
            <InterpolatingParam id="738" interp="linr"  time="-9999999/1" value="5" leadInLength="0/1"   name="highlightFeatherSize"/>
            <InterpolatingParam id="739" interp="linr"  time="-9999999/1" value="2" leadInLength="0/1"   name="highlightMagnification"/>
            <InterpolatingParam id="740" interp="linr"  time="-9999999/1" value="1" leadInLength="0/1"   name="highlightOpacity"/>
            <InterpolatingParam id="741" interp="linr"  time="-9999999/1" value="45" leadInLength="0/1"   name="highlightSize"/>
            <Parameter id="742"   name="highlightType">
             <Keyframes>
             <Keyframe id="743"  time="-9999999/1" value="0" leadInLength="0/1"  />
             </Keyframes>
            </Parameter>
            <InterpolatingParam id="744" interp="linr"  time="-9999999/1" value="0" leadInLength="0/1"   name="leftClickColorBlue"/>
            <InterpolatingParam id="745" interp="linr"  time="-9999999/1" value="0" leadInLength="0/1"   name="leftClickColorGreen"/>
            <InterpolatingParam id="746" interp="linr"  time="-9999999/1" value="255" leadInLength="0/1"   name="leftClickColorRed"/>
            <InterpolatingParam id="747" interp="linr"  time="-9999999/1" value="0.80000000000000004" leadInLength="0/1"   name="leftClickDuration"/>
            <InterpolatingParam id="748" interp="linr"  time="-9999999/1" value="20" leadInLength="0/1"   name="leftClickSize"/>
            <Parameter id="749"   name="leftClickSoundFilename">
             <Keyframes>
             <Keyframe id="750"  time="-9999999/1" value="" leadInLength="0/1"  />
             </Keyframes>
            </Parameter>
            <InterpolatingParam id="751" interp="linr"  time="-9999999/1" value="1" leadInLength="0/1"   name="leftClickSoundVolume"/>
            <Parameter id="752"   name="leftClickType">
             <Keyframes>
             <Keyframe id="753"  time="-9999999/1" value="0" leadInLength="0/1"  />
             </Keyframes>
            </Parameter>
            <InterpolatingParam id="754" interp="linr"  time="-9999999/1" value="1" leadInLength="0/1"   name="opacity"/>
            <InterpolatingParam id="755" interp="linr"  time="-9999999/1" value="255" leadInLength="0/1"   name="rightClickColorBlue"/>
            <InterpolatingParam id="756" interp="linr"  time="-9999999/1" value="0" leadInLength="0/1"   name="rightClickColorGreen"/>
            <InterpolatingParam id="757" interp="linr"  time="-9999999/1" value="0" leadInLength="0/1"   name="rightClickColorRed"/>
            <InterpolatingParam id="758" interp="linr"  time="-9999999/1" value="0.80000000000000004" leadInLength="0/1"   name="rightClickDuration"/>
            <InterpolatingParam id="759" interp="linr"  time="-9999999/1" value="20" leadInLength="0/1"   name="rightClickSize"/>
            <Parameter id="760"   name="rightClickSoundFilename">
             <Keyframes>
             <Keyframe id="761"  time="-9999999/1" value="" leadInLength="0/1"  />
             </Keyframes>
            </Parameter>
            <InterpolatingParam id="762" interp="linr"  time="-9999999/1" value="1" leadInLength="0/1"   name="rightClickSoundVolume"/>
            <Parameter id="763"   name="rightClickType">
             <Keyframes>
             <Keyframe id="764"  time="-9999999/1" value="0" leadInLength="0/1"  />
             </Keyframes>
            </Parameter>
            </Parameters>
            <MetaData>
             <entry key="effectIndex" val="0"/>
            </MetaData>
           </GenericEffect>
          </Effects>
          <Attributes>
           <Attribute id="765" value="" name="ident"/>
          </Attributes>
          <ExtraData>
           <Entry key="ZoomPanBin">
            <ZoomPanBin id="766"  >
             <ZoomPanKeyframes>
              <ZoomPanKeyframe id="767" timeRangeEnd="-9999999/1" timeRangeDuration="0/1" interpolaterName="leadin-linr"  />
             </ZoomPanKeyframes>
            </ZoomPanBin>
           </Entry>
           <Entry key="CursorEffectBin">
            <CursorEffectBin id="768"  >
             <CursorEffectKeyframes>
              <CursorEffectKeyframe id="769" timeRangeEnd="-9999999/1" timeRangeDuration="0/1" interpolaterName=""  />
             </CursorEffectKeyframes>
            </CursorEffectBin>
           </Entry>
          </ExtraData>
         </ScreenVMFile>
         <MetaData>
          <entry key="AutoAppliedSmartFocus" val="False"/>
          <entry key="WinSubProjectDisplayName" val=""/>
         </MetaData>
        </UnifiedMedia>
        <UnifiedMedia id="770"  >
         <AMFile id="771" start="2347" duration="69" scalar="1/1" mediaStart="2624/1" mediaDuration="69/1" trackNumber="1" src="4" channelNumber="0,1" >
          <Parameters>
           <InterpolatingParam id="772" interp="linr"  time="0/1" value="1" leadInLength="0/1"  name="volume"/>
           <Parameter id="773"  name="captions"/>
          </Parameters>
          <Attributes>
           <Attribute id="774" value="" name="ident"/>
           <Attribute id="775" value="44100" name="sampleRate"/>
           <Attribute id="776" value="16" name="bitDepth"/>
           <Attribute id="777" value="1" name="gain"/>
           <Attribute id="778" value="0" name="mixToMono"/>
          </Attributes>
         </AMFile>
         <ScreenVMFile id="779" start="2347" duration="69" scalar="1/1" mediaStart="2624/1" mediaDuration="69/1" trackNumber="0" src="4" >
          <Transformer>
           <VectorParam id="780"  name="translation">
            <InterpolatingParam id="781" interp="linr"  time="-9999999/1" value="0" leadInLength="0/1"  interpolater="leadin-linr"  />
            <InterpolatingParam id="782" interp="linr"  time="-9999999/1" value="0" leadInLength="0/1"  interpolater="leadin-linr"  />
            <InterpolatingParam id="783" interp="linr"  time="-9999999/1" value="0" leadInLength="0/1"  interpolater="leadin-linr"  />
           </VectorParam>
           <VectorParam id="784"  name="rotation">
            <InterpolatingParam id="785" interp="linr"  time="-9999999/1" value="0" leadInLength="0/1"  interpolater="leadin-linr"  />
            <InterpolatingParam id="786" interp="linr"  time="-9999999/1" value="0" leadInLength="0/1"  interpolater="leadin-linr"  />
            <InterpolatingParam id="787" interp="linr"  time="-9999999/1" value="0" leadInLength="0/1"  interpolater="leadin-linr"  />
           </VectorParam>
           <VectorParam id="788"  name="shear">
            <InterpolatingParam id="789" interp="linr"  time="-9999999/1" value="0" leadInLength="0/1"  interpolater="leadin-linr"  />
            <InterpolatingParam id="790" interp="linr"  time="-9999999/1" value="0" leadInLength="0/1"  interpolater="leadin-linr"  />
            <InterpolatingParam id="791" interp="linr"  time="-9999999/1" value="0" leadInLength="0/1"  interpolater="leadin-linr"  />
           </VectorParam>
           <VectorParam id="792"  name="scale">
            <InterpolatingParam id="793" interp="linr"  time="-9999999/1" value="0.625" leadInLength="0/1"  interpolater="leadin-linr"  />
            <InterpolatingParam id="794" interp="linr"  time="-9999999/1" value="0.625" leadInLength="0/1"  interpolater="leadin-linr"  />
            <InterpolatingParam id="795" interp="linr"  time="-9999999/1" value="1" leadInLength="0/1"  interpolater="leadin-linr"  />
           </VectorParam>
           <VectorParam id="796"  name="anchor">
            <InterpolatingParam id="797" interp="linr"  time="0/1" value="0" leadInLength="0/1"  />
            <InterpolatingParam id="798" interp="linr"  time="0/1" value="0" leadInLength="0/1"  />
            <InterpolatingParam id="799" interp="linr"  time="0/1" value="0" leadInLength="0/1"  />
           </VectorParam>
          </Transformer>
          <Parameters>
           <VectorParam id="800"  name="sourceCrop">
            <InterpolatingParam id="801" interp="linr"  time="0/1" value="0" leadInLength="0/1"  />
            <InterpolatingParam id="802" interp="linr"  time="0/1" value="0" leadInLength="0/1"  />
            <InterpolatingParam id="803" interp="linr"  time="0/1" value="0" leadInLength="0/1"  />
            <InterpolatingParam id="804" interp="linr"  time="0/1" value="0" leadInLength="0/1"  />
           </VectorParam>
           <VectorParam id="805"  name="geometryCrop">
            <InterpolatingParam id="806" interp="linr"  time="-9999999/1" value="0" leadInLength="0/1"  interpolater="leadin-linr"  />
            <InterpolatingParam id="807" interp="linr"  time="-9999999/1" value="0" leadInLength="0/1"  interpolater="leadin-linr"  />
            <InterpolatingParam id="808" interp="linr"  time="-9999999/1" value="0" leadInLength="0/1"  interpolater="leadin-linr"  />
            <InterpolatingParam id="809" interp="linr"  time="-9999999/1" value="0" leadInLength="0/1"  interpolater="leadin-linr"  />
           </VectorParam>
           <InterpolatingParam id="810" interp="linr"  time="-9999999/1" value="1" leadInLength="0/1"  interpolater="leadin-linr"  name="opacity"/>
           <InterpolatingParam id="811" interp="linr"  time="0/1" value="1" leadInLength="0/1"  name="cursorOpacity"/>
           <InterpolatingParam id="812" interp="linr"  time="0/1" value="1" leadInLength="0/1"  name="cursorScale"/>
          </Parameters>
          <Effects>
           <GenericEffect id="813" name = "CursorBaseEffectName" >
            <Parameters>
            <InterpolatingParam id="814" interp="linr"  time="-9999999/1" value="1" leadInLength="0/1"   name="cursorSize"/>
            <InterpolatingParam id="815" interp="linr"  time="-9999999/1" value="0" leadInLength="0/1"   name="highlightBlurRadius"/>
            <InterpolatingParam id="816" interp="linr"  time="-9999999/1" value="0" leadInLength="0/1"   name="highlightColorBlue"/>
            <InterpolatingParam id="817" interp="linr"  time="-9999999/1" value="255" leadInLength="0/1"   name="highlightColorGreen"/>
            <InterpolatingParam id="818" interp="linr"  time="-9999999/1" value="255" leadInLength="0/1"   name="highlightColorRed"/>
            <InterpolatingParam id="819" interp="linr"  time="-9999999/1" value="5" leadInLength="0/1"   name="highlightFeatherSize"/>
            <InterpolatingParam id="820" interp="linr"  time="-9999999/1" value="2" leadInLength="0/1"   name="highlightMagnification"/>
            <InterpolatingParam id="821" interp="linr"  time="-9999999/1" value="1" leadInLength="0/1"   name="highlightOpacity"/>
            <InterpolatingParam id="822" interp="linr"  time="-9999999/1" value="45" leadInLength="0/1"   name="highlightSize"/>
            <Parameter id="823"   name="highlightType">
             <Keyframes>
             <Keyframe id="824"  time="-9999999/1" value="0" leadInLength="0/1"  />
             </Keyframes>
            </Parameter>
            <InterpolatingParam id="825" interp="linr"  time="-9999999/1" value="0" leadInLength="0/1"   name="leftClickColorBlue"/>
            <InterpolatingParam id="826" interp="linr"  time="-9999999/1" value="0" leadInLength="0/1"   name="leftClickColorGreen"/>
            <InterpolatingParam id="827" interp="linr"  time="-9999999/1" value="255" leadInLength="0/1"   name="leftClickColorRed"/>
            <InterpolatingParam id="828" interp="linr"  time="-9999999/1" value="0.80000000000000004" leadInLength="0/1"   name="leftClickDuration"/>
            <InterpolatingParam id="829" interp="linr"  time="-9999999/1" value="20" leadInLength="0/1"   name="leftClickSize"/>
            <Parameter id="830"   name="leftClickSoundFilename">
             <Keyframes>
             <Keyframe id="831"  time="-9999999/1" value="" leadInLength="0/1"  />
             </Keyframes>
            </Parameter>
            <InterpolatingParam id="832" interp="linr"  time="-9999999/1" value="1" leadInLength="0/1"   name="leftClickSoundVolume"/>
            <Parameter id="833"   name="leftClickType">
             <Keyframes>
             <Keyframe id="834"  time="-9999999/1" value="0" leadInLength="0/1"  />
             </Keyframes>
            </Parameter>
            <InterpolatingParam id="835" interp="linr"  time="-9999999/1" value="1" leadInLength="0/1"   name="opacity"/>
            <InterpolatingParam id="836" interp="linr"  time="-9999999/1" value="255" leadInLength="0/1"   name="rightClickColorBlue"/>
            <InterpolatingParam id="837" interp="linr"  time="-9999999/1" value="0" leadInLength="0/1"   name="rightClickColorGreen"/>
            <InterpolatingParam id="838" interp="linr"  time="-9999999/1" value="0" leadInLength="0/1"   name="rightClickColorRed"/>
            <InterpolatingParam id="839" interp="linr"  time="-9999999/1" value="0.80000000000000004" leadInLength="0/1"   name="rightClickDuration"/>
            <InterpolatingParam id="840" interp="linr"  time="-9999999/1" value="20" leadInLength="0/1"   name="rightClickSize"/>
            <Parameter id="841"   name="rightClickSoundFilename">
             <Keyframes>
             <Keyframe id="842"  time="-9999999/1" value="" leadInLength="0/1"  />
             </Keyframes>
            </Parameter>
            <InterpolatingParam id="843" interp="linr"  time="-9999999/1" value="1" leadInLength="0/1"   name="rightClickSoundVolume"/>
            <Parameter id="844"   name="rightClickType">
             <Keyframes>
             <Keyframe id="845"  time="-9999999/1" value="0" leadInLength="0/1"  />
             </Keyframes>
            </Parameter>
            </Parameters>
            <MetaData>
             <entry key="effectIndex" val="0"/>
            </MetaData>
           </GenericEffect>
          </Effects>
          <Attributes>
           <Attribute id="846" value="" name="ident"/>
          </Attributes>
          <ExtraData>
           <Entry key="ZoomPanBin">
            <ZoomPanBin id="847"  >
             <ZoomPanKeyframes>
              <ZoomPanKeyframe id="848" timeRangeEnd="-9999999/1" timeRangeDuration="0/1" interpolaterName="leadin-linr"  />
             </ZoomPanKeyframes>
            </ZoomPanBin>
           </Entry>
           <Entry key="CursorEffectBin">
            <CursorEffectBin id="849"  >
             <CursorEffectKeyframes>
              <CursorEffectKeyframe id="850" timeRangeEnd="-9999999/1" timeRangeDuration="0/1" interpolaterName=""  />
             </CursorEffectKeyframes>
            </CursorEffectBin>
           </Entry>
          </ExtraData>
         </ScreenVMFile>
         <MetaData>
          <entry key="AutoAppliedSmartFocus" val="False"/>
          <entry key="WinSubProjectDisplayName" val=""/>
         </MetaData>
        </UnifiedMedia>
        <UnifiedMedia id="851"  >
         <AMFile id="852" start="2416" duration="143" scalar="1/1" mediaStart="2728/1" mediaDuration="143/1" trackNumber="1" src="4" channelNumber="0,1" >
          <Parameters>
           <InterpolatingParam id="853" interp="linr"  time="0/1" value="1" leadInLength="0/1"  name="volume"/>
           <Parameter id="854"  name="captions"/>
          </Parameters>
          <Attributes>
           <Attribute id="855" value="" name="ident"/>
           <Attribute id="856" value="44100" name="sampleRate"/>
           <Attribute id="857" value="16" name="bitDepth"/>
           <Attribute id="858" value="1" name="gain"/>
           <Attribute id="859" value="0" name="mixToMono"/>
          </Attributes>
         </AMFile>
         <ScreenVMFile id="860" start="2416" duration="143" scalar="1/1" mediaStart="2728/1" mediaDuration="143/1" trackNumber="0" src="4" >
          <Transformer>
           <VectorParam id="861"  name="translation">
            <InterpolatingParam id="862" interp="linr"  time="-9999999/1" value="0" leadInLength="0/1"  interpolater="leadin-linr"  />
            <InterpolatingParam id="863" interp="linr"  time="-9999999/1" value="0" leadInLength="0/1"  interpolater="leadin-linr"  />
            <InterpolatingParam id="864" interp="linr"  time="-9999999/1" value="0" leadInLength="0/1"  interpolater="leadin-linr"  />
           </VectorParam>
           <VectorParam id="865"  name="rotation">
            <InterpolatingParam id="866" interp="linr"  time="-9999999/1" value="0" leadInLength="0/1"  interpolater="leadin-linr"  />
            <InterpolatingParam id="867" interp="linr"  time="-9999999/1" value="0" leadInLength="0/1"  interpolater="leadin-linr"  />
            <InterpolatingParam id="868" interp="linr"  time="-9999999/1" value="0" leadInLength="0/1"  interpolater="leadin-linr"  />
           </VectorParam>
           <VectorParam id="869"  name="shear">
            <InterpolatingParam id="870" interp="linr"  time="-9999999/1" value="0" leadInLength="0/1"  interpolater="leadin-linr"  />
            <InterpolatingParam id="871" interp="linr"  time="-9999999/1" value="0" leadInLength="0/1"  interpolater="leadin-linr"  />
            <InterpolatingParam id="872" interp="linr"  time="-9999999/1" value="0" leadInLength="0/1"  interpolater="leadin-linr"  />
           </VectorParam>
           <VectorParam id="873"  name="scale">
            <InterpolatingParam id="874" interp="linr"  time="-9999999/1" value="0.625" leadInLength="0/1"  interpolater="leadin-linr"  />
            <InterpolatingParam id="875" interp="linr"  time="-9999999/1" value="0.625" leadInLength="0/1"  interpolater="leadin-linr"  />
            <InterpolatingParam id="876" interp="linr"  time="-9999999/1" value="1" leadInLength="0/1"  interpolater="leadin-linr"  />
           </VectorParam>
           <VectorParam id="877"  name="anchor">
            <InterpolatingParam id="878" interp="linr"  time="0/1" value="0" leadInLength="0/1"  />
            <InterpolatingParam id="879" interp="linr"  time="0/1" value="0" leadInLength="0/1"  />
            <InterpolatingParam id="880" interp="linr"  time="0/1" value="0" leadInLength="0/1"  />
           </VectorParam>
          </Transformer>
          <Parameters>
           <VectorParam id="881"  name="sourceCrop">
            <InterpolatingParam id="882" interp="linr"  time="0/1" value="0" leadInLength="0/1"  />
            <InterpolatingParam id="883" interp="linr"  time="0/1" value="0" leadInLength="0/1"  />
            <InterpolatingParam id="884" interp="linr"  time="0/1" value="0" leadInLength="0/1"  />
            <InterpolatingParam id="885" interp="linr"  time="0/1" value="0" leadInLength="0/1"  />
           </VectorParam>
           <VectorParam id="886"  name="geometryCrop">
            <InterpolatingParam id="887" interp="linr"  time="-9999999/1" value="0" leadInLength="0/1"  interpolater="leadin-linr"  />
            <InterpolatingParam id="888" interp="linr"  time="-9999999/1" value="0" leadInLength="0/1"  interpolater="leadin-linr"  />
            <InterpolatingParam id="889" interp="linr"  time="-9999999/1" value="0" leadInLength="0/1"  interpolater="leadin-linr"  />
            <InterpolatingParam id="890" interp="linr"  time="-9999999/1" value="0" leadInLength="0/1"  interpolater="leadin-linr"  />
           </VectorParam>
           <InterpolatingParam id="891" interp="linr"  time="-9999999/1" value="1" leadInLength="0/1"  interpolater="leadin-linr"  name="opacity"/>
           <InterpolatingParam id="892" interp="linr"  time="0/1" value="1" leadInLength="0/1"  name="cursorOpacity"/>
           <InterpolatingParam id="893" interp="linr"  time="0/1" value="1" leadInLength="0/1"  name="cursorScale"/>
          </Parameters>
          <Effects>
           <GenericEffect id="894" name = "CursorBaseEffectName" >
            <Parameters>
            <InterpolatingParam id="895" interp="linr"  time="-9999999/1" value="1" leadInLength="0/1"   name="cursorSize"/>
            <InterpolatingParam id="896" interp="linr"  time="-9999999/1" value="0" leadInLength="0/1"   name="highlightBlurRadius"/>
            <InterpolatingParam id="897" interp="linr"  time="-9999999/1" value="0" leadInLength="0/1"   name="highlightColorBlue"/>
            <InterpolatingParam id="898" interp="linr"  time="-9999999/1" value="255" leadInLength="0/1"   name="highlightColorGreen"/>
            <InterpolatingParam id="899" interp="linr"  time="-9999999/1" value="255" leadInLength="0/1"   name="highlightColorRed"/>
            <InterpolatingParam id="900" interp="linr"  time="-9999999/1" value="5" leadInLength="0/1"   name="highlightFeatherSize"/>
            <InterpolatingParam id="901" interp="linr"  time="-9999999/1" value="2" leadInLength="0/1"   name="highlightMagnification"/>
            <InterpolatingParam id="902" interp="linr"  time="-9999999/1" value="1" leadInLength="0/1"   name="highlightOpacity"/>
            <InterpolatingParam id="903" interp="linr"  time="-9999999/1" value="45" leadInLength="0/1"   name="highlightSize"/>
            <Parameter id="904"   name="highlightType">
             <Keyframes>
             <Keyframe id="905"  time="-9999999/1" value="0" leadInLength="0/1"  />
             </Keyframes>
            </Parameter>
            <InterpolatingParam id="906" interp="linr"  time="-9999999/1" value="0" leadInLength="0/1"   name="leftClickColorBlue"/>
            <InterpolatingParam id="907" interp="linr"  time="-9999999/1" value="0" leadInLength="0/1"   name="leftClickColorGreen"/>
            <InterpolatingParam id="908" interp="linr"  time="-9999999/1" value="255" leadInLength="0/1"   name="leftClickColorRed"/>
            <InterpolatingParam id="909" interp="linr"  time="-9999999/1" value="0.80000000000000004" leadInLength="0/1"   name="leftClickDuration"/>
            <InterpolatingParam id="910" interp="linr"  time="-9999999/1" value="20" leadInLength="0/1"   name="leftClickSize"/>
            <Parameter id="911"   name="leftClickSoundFilename">
             <Keyframes>
             <Keyframe id="912"  time="-9999999/1" value="" leadInLength="0/1"  />
             </Keyframes>
            </Parameter>
            <InterpolatingParam id="913" interp="linr"  time="-9999999/1" value="1" leadInLength="0/1"   name="leftClickSoundVolume"/>
            <Parameter id="914"   name="leftClickType">
             <Keyframes>
             <Keyframe id="915"  time="-9999999/1" value="0" leadInLength="0/1"  />
             </Keyframes>
            </Parameter>
            <InterpolatingParam id="916" interp="linr"  time="-9999999/1" value="1" leadInLength="0/1"   name="opacity"/>
            <InterpolatingParam id="917" interp="linr"  time="-9999999/1" value="255" leadInLength="0/1"   name="rightClickColorBlue"/>
            <InterpolatingParam id="918" interp="linr"  time="-9999999/1" value="0" leadInLength="0/1"   name="rightClickColorGreen"/>
            <InterpolatingParam id="919" interp="linr"  time="-9999999/1" value="0" leadInLength="0/1"   name="rightClickColorRed"/>
            <InterpolatingParam id="920" interp="linr"  time="-9999999/1" value="0.80000000000000004" leadInLength="0/1"   name="rightClickDuration"/>
            <InterpolatingParam id="921" interp="linr"  time="-9999999/1" value="20" leadInLength="0/1"   name="rightClickSize"/>
            <Parameter id="922"   name="rightClickSoundFilename">
             <Keyframes>
             <Keyframe id="923"  time="-9999999/1" value="" leadInLength="0/1"  />
             </Keyframes>
            </Parameter>
            <InterpolatingParam id="924" interp="linr"  time="-9999999/1" value="1" leadInLength="0/1"   name="rightClickSoundVolume"/>
            <Parameter id="925"   name="rightClickType">
             <Keyframes>
             <Keyframe id="926"  time="-9999999/1" value="0" leadInLength="0/1"  />
             </Keyframes>
            </Parameter>
            </Parameters>
            <MetaData>
             <entry key="effectIndex" val="0"/>
            </MetaData>
           </GenericEffect>
          </Effects>
          <Attributes>
           <Attribute id="927" value="" name="ident"/>
          </Attributes>
          <ExtraData>
           <Entry key="ZoomPanBin">
            <ZoomPanBin id="928"  >
             <ZoomPanKeyframes>
              <ZoomPanKeyframe id="929" timeRangeEnd="-9999999/1" timeRangeDuration="0/1" interpolaterName="leadin-linr"  />
             </ZoomPanKeyframes>
            </ZoomPanBin>
           </Entry>
           <Entry key="CursorEffectBin">
            <CursorEffectBin id="930"  >
             <CursorEffectKeyframes>
              <CursorEffectKeyframe id="931" timeRangeEnd="-9999999/1" timeRangeDuration="0/1" interpolaterName=""  />
             </CursorEffectKeyframes>
            </CursorEffectBin>
           </Entry>
          </ExtraData>
         </ScreenVMFile>
         <MetaData>
          <entry key="AutoAppliedSmartFocus" val="False"/>
          <entry key="WinSubProjectDisplayName" val=""/>
         </MetaData>
        </UnifiedMedia>
        <UnifiedMedia id="932"  >
         <AMFile id="933" start="2559" duration="759" scalar="1/1" mediaStart="2888/1" mediaDuration="759/1" trackNumber="1" src="4" channelNumber="0,1" >
          <Parameters>
           <InterpolatingParam id="934" interp="linr"  time="0/1" value="1" leadInLength="0/1"  name="volume"/>
           <Parameter id="935"  name="captions"/>
          </Parameters>
          <Attributes>
           <Attribute id="936" value="" name="ident"/>
           <Attribute id="937" value="44100" name="sampleRate"/>
           <Attribute id="938" value="16" name="bitDepth"/>
           <Attribute id="939" value="1" name="gain"/>
           <Attribute id="940" value="0" name="mixToMono"/>
          </Attributes>
         </AMFile>
         <ScreenVMFile id="941" start="2559" duration="759" scalar="1/1" mediaStart="2888/1" mediaDuration="759/1" trackNumber="0" src="4" >
          <Transformer>
           <VectorParam id="942"  name="translation">
            <InterpolatingParam id="943" interp="linr"  time="-9999999/1" value="0" leadInLength="0/1"  interpolater="leadin-linr"  />
            <InterpolatingParam id="944" interp="linr"  time="-9999999/1" value="0" leadInLength="0/1"  interpolater="leadin-linr"  />
            <InterpolatingParam id="945" interp="linr"  time="-9999999/1" value="0" leadInLength="0/1"  interpolater="leadin-linr"  />
           </VectorParam>
           <VectorParam id="946"  name="rotation">
            <InterpolatingParam id="947" interp="linr"  time="-9999999/1" value="0" leadInLength="0/1"  interpolater="leadin-linr"  />
            <InterpolatingParam id="948" interp="linr"  time="-9999999/1" value="0" leadInLength="0/1"  interpolater="leadin-linr"  />
            <InterpolatingParam id="949" interp="linr"  time="-9999999/1" value="0" leadInLength="0/1"  interpolater="leadin-linr"  />
           </VectorParam>
           <VectorParam id="950"  name="shear">
            <InterpolatingParam id="951" interp="linr"  time="-9999999/1" value="0" leadInLength="0/1"  interpolater="leadin-linr"  />
            <InterpolatingParam id="952" interp="linr"  time="-9999999/1" value="0" leadInLength="0/1"  interpolater="leadin-linr"  />
            <InterpolatingParam id="953" interp="linr"  time="-9999999/1" value="0" leadInLength="0/1"  interpolater="leadin-linr"  />
           </VectorParam>
           <VectorParam id="954"  name="scale">
            <InterpolatingParam id="955" interp="linr"  time="-9999999/1" value="0.625" leadInLength="0/1"  interpolater="leadin-linr"  />
            <InterpolatingParam id="956" interp="linr"  time="-9999999/1" value="0.625" leadInLength="0/1"  interpolater="leadin-linr"  />
            <InterpolatingParam id="957" interp="linr"  time="-9999999/1" value="1" leadInLength="0/1"  interpolater="leadin-linr"  />
           </VectorParam>
           <VectorParam id="958"  name="anchor">
            <InterpolatingParam id="959" interp="linr"  time="0/1" value="0" leadInLength="0/1"  />
            <InterpolatingParam id="960" interp="linr"  time="0/1" value="0" leadInLength="0/1"  />
            <InterpolatingParam id="961" interp="linr"  time="0/1" value="0" leadInLength="0/1"  />
           </VectorParam>
          </Transformer>
          <Parameters>
           <VectorParam id="962"  name="sourceCrop">
            <InterpolatingParam id="963" interp="linr"  time="0/1" value="0" leadInLength="0/1"  />
            <InterpolatingParam id="964" interp="linr"  time="0/1" value="0" leadInLength="0/1"  />
            <InterpolatingParam id="965" interp="linr"  time="0/1" value="0" leadInLength="0/1"  />
            <InterpolatingParam id="966" interp="linr"  time="0/1" value="0" leadInLength="0/1"  />
           </VectorParam>
           <VectorParam id="967"  name="geometryCrop">
            <InterpolatingParam id="968" interp="linr"  time="-9999999/1" value="0" leadInLength="0/1"  interpolater="leadin-linr"  />
            <InterpolatingParam id="969" interp="linr"  time="-9999999/1" value="0" leadInLength="0/1"  interpolater="leadin-linr"  />
            <InterpolatingParam id="970" interp="linr"  time="-9999999/1" value="0" leadInLength="0/1"  interpolater="leadin-linr"  />
            <InterpolatingParam id="971" interp="linr"  time="-9999999/1" value="0" leadInLength="0/1"  interpolater="leadin-linr"  />
           </VectorParam>
           <InterpolatingParam id="972" interp="linr"  time="-9999999/1" value="1" leadInLength="0/1"  interpolater="leadin-linr"  name="opacity"/>
           <InterpolatingParam id="973" interp="linr"  time="0/1" value="1" leadInLength="0/1"  name="cursorOpacity"/>
           <InterpolatingParam id="974" interp="linr"  time="0/1" value="1" leadInLength="0/1"  name="cursorScale"/>
          </Parameters>
          <Effects>
           <GenericEffect id="975" name = "CursorBaseEffectName" >
            <Parameters>
            <InterpolatingParam id="976" interp="linr"  time="-9999999/1" value="1" leadInLength="0/1"   name="cursorSize"/>
            <InterpolatingParam id="977" interp="linr"  time="-9999999/1" value="0" leadInLength="0/1"   name="highlightBlurRadius"/>
            <InterpolatingParam id="978" interp="linr"  time="-9999999/1" value="0" leadInLength="0/1"   name="highlightColorBlue"/>
            <InterpolatingParam id="979" interp="linr"  time="-9999999/1" value="255" leadInLength="0/1"   name="highlightColorGreen"/>
            <InterpolatingParam id="980" interp="linr"  time="-9999999/1" value="255" leadInLength="0/1"   name="highlightColorRed"/>
            <InterpolatingParam id="981" interp="linr"  time="-9999999/1" value="5" leadInLength="0/1"   name="highlightFeatherSize"/>
            <InterpolatingParam id="982" interp="linr"  time="-9999999/1" value="2" leadInLength="0/1"   name="highlightMagnification"/>
            <InterpolatingParam id="983" interp="linr"  time="-9999999/1" value="1" leadInLength="0/1"   name="highlightOpacity"/>
            <InterpolatingParam id="984" interp="linr"  time="-9999999/1" value="45" leadInLength="0/1"   name="highlightSize"/>
            <Parameter id="985"   name="highlightType">
             <Keyframes>
             <Keyframe id="986"  time="-9999999/1" value="0" leadInLength="0/1"  />
             </Keyframes>
            </Parameter>
            <InterpolatingParam id="987" interp="linr"  time="-9999999/1" value="0" leadInLength="0/1"   name="leftClickColorBlue"/>
            <InterpolatingParam id="988" interp="linr"  time="-9999999/1" value="0" leadInLength="0/1"   name="leftClickColorGreen"/>
            <InterpolatingParam id="989" interp="linr"  time="-9999999/1" value="255" leadInLength="0/1"   name="leftClickColorRed"/>
            <InterpolatingParam id="990" interp="linr"  time="-9999999/1" value="0.80000000000000004" leadInLength="0/1"   name="leftClickDuration"/>
            <InterpolatingParam id="991" interp="linr"  time="-9999999/1" value="20" leadInLength="0/1"   name="leftClickSize"/>
            <Parameter id="992"   name="leftClickSoundFilename">
             <Keyframes>
             <Keyframe id="993"  time="-9999999/1" value="" leadInLength="0/1"  />
             </Keyframes>
            </Parameter>
            <InterpolatingParam id="994" interp="linr"  time="-9999999/1" value="1" leadInLength="0/1"   name="leftClickSoundVolume"/>
            <Parameter id="995"   name="leftClickType">
             <Keyframes>
             <Keyframe id="996"  time="-9999999/1" value="0" leadInLength="0/1"  />
             </Keyframes>
            </Parameter>
            <InterpolatingParam id="997" interp="linr"  time="-9999999/1" value="1" leadInLength="0/1"   name="opacity"/>
            <InterpolatingParam id="998" interp="linr"  time="-9999999/1" value="255" leadInLength="0/1"   name="rightClickColorBlue"/>
            <InterpolatingParam id="999" interp="linr"  time="-9999999/1" value="0" leadInLength="0/1"   name="rightClickColorGreen"/>
            <InterpolatingParam id="1000" interp="linr"  time="-9999999/1" value="0" leadInLength="0/1"   name="rightClickColorRed"/>
            <InterpolatingParam id="1001" interp="linr"  time="-9999999/1" value="0.80000000000000004" leadInLength="0/1"   name="rightClickDuration"/>
            <InterpolatingParam id="1002" interp="linr"  time="-9999999/1" value="20" leadInLength="0/1"   name="rightClickSize"/>
            <Parameter id="1003"   name="rightClickSoundFilename">
             <Keyframes>
             <Keyframe id="1004"  time="-9999999/1" value="" leadInLength="0/1"  />
             </Keyframes>
            </Parameter>
            <InterpolatingParam id="1005" interp="linr"  time="-9999999/1" value="1" leadInLength="0/1"   name="rightClickSoundVolume"/>
            <Parameter id="1006"   name="rightClickType">
             <Keyframes>
             <Keyframe id="1007"  time="-9999999/1" value="0" leadInLength="0/1"  />
             </Keyframes>
            </Parameter>
            </Parameters>
            <MetaData>
             <entry key="effectIndex" val="0"/>
            </MetaData>
           </GenericEffect>
          </Effects>
          <Attributes>
           <Attribute id="1008" value="" name="ident"/>
          </Attributes>
          <ExtraData>
           <Entry key="ZoomPanBin">
            <ZoomPanBin id="1009"  >
             <ZoomPanKeyframes>
              <ZoomPanKeyframe id="1010" timeRangeEnd="-9999999/1" timeRangeDuration="0/1" interpolaterName="leadin-linr"  />
             </ZoomPanKeyframes>
            </ZoomPanBin>
           </Entry>
           <Entry key="CursorEffectBin">
            <CursorEffectBin id="1011"  >
             <CursorEffectKeyframes>
              <CursorEffectKeyframe id="1012" timeRangeEnd="-9999999/1" timeRangeDuration="0/1" interpolaterName=""  />
             </CursorEffectKeyframes>
            </CursorEffectBin>
           </Entry>
          </ExtraData>
         </ScreenVMFile>
         <MetaData>
          <entry key="AutoAppliedSmartFocus" val="False"/>
          <entry key="WinSubProjectDisplayName" val=""/>
         </MetaData>
        </UnifiedMedia>
        <UnifiedMedia id="1013"  >
         <AMFile id="1014" start="3318" duration="193" scalar="1/1" mediaStart="3687/1" mediaDuration="193/1" trackNumber="1" src="4" channelNumber="0,1" >
          <Parameters>
           <InterpolatingParam id="1015" interp="linr"  time="0/1" value="1" leadInLength="0/1"  name="volume"/>
           <Parameter id="1016"  name="captions"/>
          </Parameters>
          <Attributes>
           <Attribute id="1017" value="" name="ident"/>
           <Attribute id="1018" value="44100" name="sampleRate"/>
           <Attribute id="1019" value="16" name="bitDepth"/>
           <Attribute id="1020" value="1" name="gain"/>
           <Attribute id="1021" value="0" name="mixToMono"/>
          </Attributes>
         </AMFile>
         <ScreenVMFile id="1022" start="3318" duration="193" scalar="1/1" mediaStart="3687/1" mediaDuration="193/1" trackNumber="0" src="4" >
          <Transformer>
           <VectorParam id="1023"  name="translation">
            <InterpolatingParam id="1024" interp="linr"  time="-9999999/1" value="0" leadInLength="0/1"  interpolater="leadin-linr"  />
            <InterpolatingParam id="1025" interp="linr"  time="-9999999/1" value="0" leadInLength="0/1"  interpolater="leadin-linr"  />
            <InterpolatingParam id="1026" interp="linr"  time="-9999999/1" value="0" leadInLength="0/1"  interpolater="leadin-linr"  />
           </VectorParam>
           <VectorParam id="1027"  name="rotation">
            <InterpolatingParam id="1028" interp="linr"  time="-9999999/1" value="0" leadInLength="0/1"  interpolater="leadin-linr"  />
            <InterpolatingParam id="1029" interp="linr"  time="-9999999/1" value="0" leadInLength="0/1"  interpolater="leadin-linr"  />
            <InterpolatingParam id="1030" interp="linr"  time="-9999999/1" value="0" leadInLength="0/1"  interpolater="leadin-linr"  />
           </VectorParam>
           <VectorParam id="1031"  name="shear">
            <InterpolatingParam id="1032" interp="linr"  time="-9999999/1" value="0" leadInLength="0/1"  interpolater="leadin-linr"  />
            <InterpolatingParam id="1033" interp="linr"  time="-9999999/1" value="0" leadInLength="0/1"  interpolater="leadin-linr"  />
            <InterpolatingParam id="1034" interp="linr"  time="-9999999/1" value="0" leadInLength="0/1"  interpolater="leadin-linr"  />
           </VectorParam>
           <VectorParam id="1035"  name="scale">
            <InterpolatingParam id="1036" interp="linr"  time="-9999999/1" value="0.625" leadInLength="0/1"  interpolater="leadin-linr"  />
            <InterpolatingParam id="1037" interp="linr"  time="-9999999/1" value="0.625" leadInLength="0/1"  interpolater="leadin-linr"  />
            <InterpolatingParam id="1038" interp="linr"  time="-9999999/1" value="1" leadInLength="0/1"  interpolater="leadin-linr"  />
           </VectorParam>
           <VectorParam id="1039"  name="anchor">
            <InterpolatingParam id="1040" interp="linr"  time="0/1" value="0" leadInLength="0/1"  />
            <InterpolatingParam id="1041" interp="linr"  time="0/1" value="0" leadInLength="0/1"  />
            <InterpolatingParam id="1042" interp="linr"  time="0/1" value="0" leadInLength="0/1"  />
           </VectorParam>
          </Transformer>
          <Parameters>
           <VectorParam id="1043"  name="sourceCrop">
            <InterpolatingParam id="1044" interp="linr"  time="0/1" value="0" leadInLength="0/1"  />
            <InterpolatingParam id="1045" interp="linr"  time="0/1" value="0" leadInLength="0/1"  />
            <InterpolatingParam id="1046" interp="linr"  time="0/1" value="0" leadInLength="0/1"  />
            <InterpolatingParam id="1047" interp="linr"  time="0/1" value="0" leadInLength="0/1"  />
           </VectorParam>
           <VectorParam id="1048"  name="geometryCrop">
            <InterpolatingParam id="1049" interp="linr"  time="-9999999/1" value="0" leadInLength="0/1"  interpolater="leadin-linr"  />
            <InterpolatingParam id="1050" interp="linr"  time="-9999999/1" value="0" leadInLength="0/1"  interpolater="leadin-linr"  />
            <InterpolatingParam id="1051" interp="linr"  time="-9999999/1" value="0" leadInLength="0/1"  interpolater="leadin-linr"  />
            <InterpolatingParam id="1052" interp="linr"  time="-9999999/1" value="0" leadInLength="0/1"  interpolater="leadin-linr"  />
           </VectorParam>
           <InterpolatingParam id="1053" interp="linr"  time="-9999999/1" value="1" leadInLength="0/1"  interpolater="leadin-linr"  name="opacity"/>
           <InterpolatingParam id="1054" interp="linr"  time="0/1" value="1" leadInLength="0/1"  name="cursorOpacity"/>
           <InterpolatingParam id="1055" interp="linr"  time="0/1" value="1" leadInLength="0/1"  name="cursorScale"/>
          </Parameters>
          <Effects>
           <GenericEffect id="1056" name = "CursorBaseEffectName" >
            <Parameters>
            <InterpolatingParam id="1057" interp="linr"  time="-9999999/1" value="1" leadInLength="0/1"   name="cursorSize"/>
            <InterpolatingParam id="1058" interp="linr"  time="-9999999/1" value="0" leadInLength="0/1"   name="highlightBlurRadius"/>
            <InterpolatingParam id="1059" interp="linr"  time="-9999999/1" value="0" leadInLength="0/1"   name="highlightColorBlue"/>
            <InterpolatingParam id="1060" interp="linr"  time="-9999999/1" value="255" leadInLength="0/1"   name="highlightColorGreen"/>
            <InterpolatingParam id="1061" interp="linr"  time="-9999999/1" value="255" leadInLength="0/1"   name="highlightColorRed"/>
            <InterpolatingParam id="1062" interp="linr"  time="-9999999/1" value="5" leadInLength="0/1"   name="highlightFeatherSize"/>
            <InterpolatingParam id="1063" interp="linr"  time="-9999999/1" value="2" leadInLength="0/1"   name="highlightMagnification"/>
            <InterpolatingParam id="1064" interp="linr"  time="-9999999/1" value="1" leadInLength="0/1"   name="highlightOpacity"/>
            <InterpolatingParam id="1065" interp="linr"  time="-9999999/1" value="45" leadInLength="0/1"   name="highlightSize"/>
            <Parameter id="1066"   name="highlightType">
             <Keyframes>
             <Keyframe id="1067"  time="-9999999/1" value="0" leadInLength="0/1"  />
             </Keyframes>
            </Parameter>
            <InterpolatingParam id="1068" interp="linr"  time="-9999999/1" value="0" leadInLength="0/1"   name="leftClickColorBlue"/>
            <InterpolatingParam id="1069" interp="linr"  time="-9999999/1" value="0" leadInLength="0/1"   name="leftClickColorGreen"/>
            <InterpolatingParam id="1070" interp="linr"  time="-9999999/1" value="255" leadInLength="0/1"   name="leftClickColorRed"/>
            <InterpolatingParam id="1071" interp="linr"  time="-9999999/1" value="0.80000000000000004" leadInLength="0/1"   name="leftClickDuration"/>
            <InterpolatingParam id="1072" interp="linr"  time="-9999999/1" value="20" leadInLength="0/1"   name="leftClickSize"/>
            <Parameter id="1073"   name="leftClickSoundFilename">
             <Keyframes>
             <Keyframe id="1074"  time="-9999999/1" value="" leadInLength="0/1"  />
             </Keyframes>
            </Parameter>
            <InterpolatingParam id="1075" interp="linr"  time="-9999999/1" value="1" leadInLength="0/1"   name="leftClickSoundVolume"/>
            <Parameter id="1076"   name="leftClickType">
             <Keyframes>
             <Keyframe id="1077"  time="-9999999/1" value="0" leadInLength="0/1"  />
             </Keyframes>
            </Parameter>
            <InterpolatingParam id="1078" interp="linr"  time="-9999999/1" value="1" leadInLength="0/1"   name="opacity"/>
            <InterpolatingParam id="1079" interp="linr"  time="-9999999/1" value="255" leadInLength="0/1"   name="rightClickColorBlue"/>
            <InterpolatingParam id="1080" interp="linr"  time="-9999999/1" value="0" leadInLength="0/1"   name="rightClickColorGreen"/>
            <InterpolatingParam id="1081" interp="linr"  time="-9999999/1" value="0" leadInLength="0/1"   name="rightClickColorRed"/>
            <InterpolatingParam id="1082" interp="linr"  time="-9999999/1" value="0.80000000000000004" leadInLength="0/1"   name="rightClickDuration"/>
            <InterpolatingParam id="1083" interp="linr"  time="-9999999/1" value="20" leadInLength="0/1"   name="rightClickSize"/>
            <Parameter id="1084"   name="rightClickSoundFilename">
             <Keyframes>
             <Keyframe id="1085"  time="-9999999/1" value="" leadInLength="0/1"  />
             </Keyframes>
            </Parameter>
            <InterpolatingParam id="1086" interp="linr"  time="-9999999/1" value="1" leadInLength="0/1"   name="rightClickSoundVolume"/>
            <Parameter id="1087"   name="rightClickType">
             <Keyframes>
             <Keyframe id="1088"  time="-9999999/1" value="0" leadInLength="0/1"  />
             </Keyframes>
            </Parameter>
            </Parameters>
            <MetaData>
             <entry key="effectIndex" val="0"/>
            </MetaData>
           </GenericEffect>
          </Effects>
          <Attributes>
           <Attribute id="1089" value="" name="ident"/>
          </Attributes>
          <ExtraData>
           <Entry key="ZoomPanBin">
            <ZoomPanBin id="1090"  >
             <ZoomPanKeyframes>
              <ZoomPanKeyframe id="1091" timeRangeEnd="-9999999/1" timeRangeDuration="0/1" interpolaterName="leadin-linr"  />
             </ZoomPanKeyframes>
            </ZoomPanBin>
           </Entry>
           <Entry key="CursorEffectBin">
            <CursorEffectBin id="1092"  >
             <CursorEffectKeyframes>
              <CursorEffectKeyframe id="1093" timeRangeEnd="-9999999/1" timeRangeDuration="0/1" interpolaterName=""  />
             </CursorEffectKeyframes>
            </CursorEffectBin>
           </Entry>
          </ExtraData>
         </ScreenVMFile>
         <MetaData>
          <entry key="AutoAppliedSmartFocus" val="False"/>
          <entry key="WinSubProjectDisplayName" val=""/>
         </MetaData>
        </UnifiedMedia>
        <UnifiedMedia id="1094"  >
         <AMFile id="1095" start="3511" duration="175" scalar="1/1" mediaStart="4056/1" mediaDuration="175/1" trackNumber="1" src="4" channelNumber="0,1" >
          <Parameters>
           <InterpolatingParam id="1096" interp="linr"  time="0/1" value="1" leadInLength="0/1"  name="volume"/>
           <Parameter id="1097"  name="captions"/>
          </Parameters>
          <Attributes>
           <Attribute id="1098" value="" name="ident"/>
           <Attribute id="1099" value="44100" name="sampleRate"/>
           <Attribute id="1100" value="16" name="bitDepth"/>
           <Attribute id="1101" value="1" name="gain"/>
           <Attribute id="1102" value="0" name="mixToMono"/>
          </Attributes>
         </AMFile>
         <ScreenVMFile id="1103" start="3511" duration="175" scalar="1/1" mediaStart="4056/1" mediaDuration="175/1" trackNumber="0" src="4" >
          <Transformer>
           <VectorParam id="1104"  name="translation">
            <InterpolatingParam id="1105" interp="linr"  time="-9999999/1" value="0" leadInLength="0/1"  interpolater="leadin-linr"  />
            <InterpolatingParam id="1106" interp="linr"  time="-9999999/1" value="0" leadInLength="0/1"  interpolater="leadin-linr"  />
            <InterpolatingParam id="1107" interp="linr"  time="-9999999/1" value="0" leadInLength="0/1"  interpolater="leadin-linr"  />
           </VectorParam>
           <VectorParam id="1108"  name="rotation">
            <InterpolatingParam id="1109" interp="linr"  time="-9999999/1" value="0" leadInLength="0/1"  interpolater="leadin-linr"  />
            <InterpolatingParam id="1110" interp="linr"  time="-9999999/1" value="0" leadInLength="0/1"  interpolater="leadin-linr"  />
            <InterpolatingParam id="1111" interp="linr"  time="-9999999/1" value="0" leadInLength="0/1"  interpolater="leadin-linr"  />
           </VectorParam>
           <VectorParam id="1112"  name="shear">
            <InterpolatingParam id="1113" interp="linr"  time="-9999999/1" value="0" leadInLength="0/1"  interpolater="leadin-linr"  />
            <InterpolatingParam id="1114" interp="linr"  time="-9999999/1" value="0" leadInLength="0/1"  interpolater="leadin-linr"  />
            <InterpolatingParam id="1115" interp="linr"  time="-9999999/1" value="0" leadInLength="0/1"  interpolater="leadin-linr"  />
           </VectorParam>
           <VectorParam id="1116"  name="scale">
            <InterpolatingParam id="1117" interp="linr"  time="-9999999/1" value="0.625" leadInLength="0/1"  interpolater="leadin-linr"  />
            <InterpolatingParam id="1118" interp="linr"  time="-9999999/1" value="0.625" leadInLength="0/1"  interpolater="leadin-linr"  />
            <InterpolatingParam id="1119" interp="linr"  time="-9999999/1" value="1" leadInLength="0/1"  interpolater="leadin-linr"  />
           </VectorParam>
           <VectorParam id="1120"  name="anchor">
            <InterpolatingParam id="1121" interp="linr"  time="0/1" value="0" leadInLength="0/1"  />
            <InterpolatingParam id="1122" interp="linr"  time="0/1" value="0" leadInLength="0/1"  />
            <InterpolatingParam id="1123" interp="linr"  time="0/1" value="0" leadInLength="0/1"  />
           </VectorParam>
          </Transformer>
          <Parameters>
           <VectorParam id="1124"  name="sourceCrop">
            <InterpolatingParam id="1125" interp="linr"  time="0/1" value="0" leadInLength="0/1"  />
            <InterpolatingParam id="1126" interp="linr"  time="0/1" value="0" leadInLength="0/1"  />
            <InterpolatingParam id="1127" interp="linr"  time="0/1" value="0" leadInLength="0/1"  />
            <InterpolatingParam id="1128" interp="linr"  time="0/1" value="0" leadInLength="0/1"  />
           </VectorParam>
           <VectorParam id="1129"  name="geometryCrop">
            <InterpolatingParam id="1130" interp="linr"  time="-9999999/1" value="0" leadInLength="0/1"  interpolater="leadin-linr"  />
            <InterpolatingParam id="1131" interp="linr"  time="-9999999/1" value="0" leadInLength="0/1"  interpolater="leadin-linr"  />
            <InterpolatingParam id="1132" interp="linr"  time="-9999999/1" value="0" leadInLength="0/1"  interpolater="leadin-linr"  />
            <InterpolatingParam id="1133" interp="linr"  time="-9999999/1" value="0" leadInLength="0/1"  interpolater="leadin-linr"  />
           </VectorParam>
           <InterpolatingParam id="1134" interp="linr"  time="-9999999/1" value="1" leadInLength="0/1"  interpolater="leadin-linr"  name="opacity"/>
           <InterpolatingParam id="1135" interp="linr"  time="0/1" value="1" leadInLength="0/1"  name="cursorOpacity"/>
           <InterpolatingParam id="1136" interp="linr"  time="0/1" value="1" leadInLength="0/1"  name="cursorScale"/>
          </Parameters>
          <Effects>
           <GenericEffect id="1137" name = "CursorBaseEffectName" >
            <Parameters>
            <InterpolatingParam id="1138" interp="linr"  time="-9999999/1" value="1" leadInLength="0/1"   name="cursorSize"/>
            <InterpolatingParam id="1139" interp="linr"  time="-9999999/1" value="0" leadInLength="0/1"   name="highlightBlurRadius"/>
            <InterpolatingParam id="1140" interp="linr"  time="-9999999/1" value="0" leadInLength="0/1"   name="highlightColorBlue"/>
            <InterpolatingParam id="1141" interp="linr"  time="-9999999/1" value="255" leadInLength="0/1"   name="highlightColorGreen"/>
            <InterpolatingParam id="1142" interp="linr"  time="-9999999/1" value="255" leadInLength="0/1"   name="highlightColorRed"/>
            <InterpolatingParam id="1143" interp="linr"  time="-9999999/1" value="5" leadInLength="0/1"   name="highlightFeatherSize"/>
            <InterpolatingParam id="1144" interp="linr"  time="-9999999/1" value="2" leadInLength="0/1"   name="highlightMagnification"/>
            <InterpolatingParam id="1145" interp="linr"  time="-9999999/1" value="1" leadInLength="0/1"   name="highlightOpacity"/>
            <InterpolatingParam id="1146" interp="linr"  time="-9999999/1" value="45" leadInLength="0/1"   name="highlightSize"/>
            <Parameter id="1147"   name="highlightType">
             <Keyframes>
             <Keyframe id="1148"  time="-9999999/1" value="0" leadInLength="0/1"  />
             </Keyframes>
            </Parameter>
            <InterpolatingParam id="1149" interp="linr"  time="-9999999/1" value="0" leadInLength="0/1"   name="leftClickColorBlue"/>
            <InterpolatingParam id="1150" interp="linr"  time="-9999999/1" value="0" leadInLength="0/1"   name="leftClickColorGreen"/>
            <InterpolatingParam id="1151" interp="linr"  time="-9999999/1" value="255" leadInLength="0/1"   name="leftClickColorRed"/>
            <InterpolatingParam id="1152" interp="linr"  time="-9999999/1" value="0.80000000000000004" leadInLength="0/1"   name="leftClickDuration"/>
            <InterpolatingParam id="1153" interp="linr"  time="-9999999/1" value="20" leadInLength="0/1"   name="leftClickSize"/>
            <Parameter id="1154"   name="leftClickSoundFilename">
             <Keyframes>
             <Keyframe id="1155"  time="-9999999/1" value="" leadInLength="0/1"  />
             </Keyframes>
            </Parameter>
            <InterpolatingParam id="1156" interp="linr"  time="-9999999/1" value="1" leadInLength="0/1"   name="leftClickSoundVolume"/>
            <Parameter id="1157"   name="leftClickType">
             <Keyframes>
             <Keyframe id="1158"  time="-9999999/1" value="0" leadInLength="0/1"  />
             </Keyframes>
            </Parameter>
            <InterpolatingParam id="1159" interp="linr"  time="-9999999/1" value="1" leadInLength="0/1"   name="opacity"/>
            <InterpolatingParam id="1160" interp="linr"  time="-9999999/1" value="255" leadInLength="0/1"   name="rightClickColorBlue"/>
            <InterpolatingParam id="1161" interp="linr"  time="-9999999/1" value="0" leadInLength="0/1"   name="rightClickColorGreen"/>
            <InterpolatingParam id="1162" interp="linr"  time="-9999999/1" value="0" leadInLength="0/1"   name="rightClickColorRed"/>
            <InterpolatingParam id="1163" interp="linr"  time="-9999999/1" value="0.80000000000000004" leadInLength="0/1"   name="rightClickDuration"/>
            <InterpolatingParam id="1164" interp="linr"  time="-9999999/1" value="20" leadInLength="0/1"   name="rightClickSize"/>
            <Parameter id="1165"   name="rightClickSoundFilename">
             <Keyframes>
             <Keyframe id="1166"  time="-9999999/1" value="" leadInLength="0/1"  />
             </Keyframes>
            </Parameter>
            <InterpolatingParam id="1167" interp="linr"  time="-9999999/1" value="1" leadInLength="0/1"   name="rightClickSoundVolume"/>
            <Parameter id="1168"   name="rightClickType">
             <Keyframes>
             <Keyframe id="1169"  time="-9999999/1" value="0" leadInLength="0/1"  />
             </Keyframes>
            </Parameter>
            </Parameters>
            <MetaData>
             <entry key="effectIndex" val="0"/>
            </MetaData>
           </GenericEffect>
          </Effects>
          <Attributes>
           <Attribute id="1170" value="" name="ident"/>
          </Attributes>
          <ExtraData>
           <Entry key="ZoomPanBin">
            <ZoomPanBin id="1171"  >
             <ZoomPanKeyframes>
              <ZoomPanKeyframe id="1172" timeRangeEnd="-9999999/1" timeRangeDuration="0/1" interpolaterName="leadin-linr"  />
             </ZoomPanKeyframes>
            </ZoomPanBin>
           </Entry>
           <Entry key="CursorEffectBin">
            <CursorEffectBin id="1173"  >
             <CursorEffectKeyframes>
              <CursorEffectKeyframe id="1174" timeRangeEnd="-9999999/1" timeRangeDuration="0/1" interpolaterName=""  />
             </CursorEffectKeyframes>
            </CursorEffectBin>
           </Entry>
          </ExtraData>
         </ScreenVMFile>
         <MetaData>
          <entry key="AutoAppliedSmartFocus" val="False"/>
          <entry key="WinSubProjectDisplayName" val=""/>
         </MetaData>
        </UnifiedMedia>
        <UnifiedMedia id="1175"  >
         <AMFile id="1176" start="3686" duration="412" scalar="1/1" mediaStart="4383/1" mediaDuration="412/1" trackNumber="1" src="4" channelNumber="0,1" >
          <Parameters>
           <InterpolatingParam id="1177" interp="linr"  time="0/1" value="1" leadInLength="0/1"  name="volume"/>
           <Parameter id="1178"  name="captions"/>
          </Parameters>
          <Attributes>
           <Attribute id="1179" value="" name="ident"/>
           <Attribute id="1180" value="44100" name="sampleRate"/>
           <Attribute id="1181" value="16" name="bitDepth"/>
           <Attribute id="1182" value="1" name="gain"/>
           <Attribute id="1183" value="0" name="mixToMono"/>
          </Attributes>
         </AMFile>
         <ScreenVMFile id="1184" start="3686" duration="412" scalar="1/1" mediaStart="4383/1" mediaDuration="412/1" trackNumber="0" src="4" >
          <Transformer>
           <VectorParam id="1185"  name="translation">
            <InterpolatingParam id="1186" interp="linr"  time="-9999999/1" value="0" leadInLength="0/1"  interpolater="leadin-linr"  />
            <InterpolatingParam id="1187" interp="linr"  time="-9999999/1" value="0" leadInLength="0/1"  interpolater="leadin-linr"  />
            <InterpolatingParam id="1188" interp="linr"  time="-9999999/1" value="0" leadInLength="0/1"  interpolater="leadin-linr"  />
           </VectorParam>
           <VectorParam id="1189"  name="rotation">
            <InterpolatingParam id="1190" interp="linr"  time="-9999999/1" value="0" leadInLength="0/1"  interpolater="leadin-linr"  />
            <InterpolatingParam id="1191" interp="linr"  time="-9999999/1" value="0" leadInLength="0/1"  interpolater="leadin-linr"  />
            <InterpolatingParam id="1192" interp="linr"  time="-9999999/1" value="0" leadInLength="0/1"  interpolater="leadin-linr"  />
           </VectorParam>
           <VectorParam id="1193"  name="shear">
            <InterpolatingParam id="1194" interp="linr"  time="-9999999/1" value="0" leadInLength="0/1"  interpolater="leadin-linr"  />
            <InterpolatingParam id="1195" interp="linr"  time="-9999999/1" value="0" leadInLength="0/1"  interpolater="leadin-linr"  />
            <InterpolatingParam id="1196" interp="linr"  time="-9999999/1" value="0" leadInLength="0/1"  interpolater="leadin-linr"  />
           </VectorParam>
           <VectorParam id="1197"  name="scale">
            <InterpolatingParam id="1198" interp="linr"  time="-9999999/1" value="0.625" leadInLength="0/1"  interpolater="leadin-linr"  />
            <InterpolatingParam id="1199" interp="linr"  time="-9999999/1" value="0.625" leadInLength="0/1"  interpolater="leadin-linr"  />
            <InterpolatingParam id="1200" interp="linr"  time="-9999999/1" value="1" leadInLength="0/1"  interpolater="leadin-linr"  />
           </VectorParam>
           <VectorParam id="1201"  name="anchor">
            <InterpolatingParam id="1202" interp="linr"  time="0/1" value="0" leadInLength="0/1"  />
            <InterpolatingParam id="1203" interp="linr"  time="0/1" value="0" leadInLength="0/1"  />
            <InterpolatingParam id="1204" interp="linr"  time="0/1" value="0" leadInLength="0/1"  />
           </VectorParam>
          </Transformer>
          <Parameters>
           <VectorParam id="1205"  name="sourceCrop">
            <InterpolatingParam id="1206" interp="linr"  time="0/1" value="0" leadInLength="0/1"  />
            <InterpolatingParam id="1207" interp="linr"  time="0/1" value="0" leadInLength="0/1"  />
            <InterpolatingParam id="1208" interp="linr"  time="0/1" value="0" leadInLength="0/1"  />
            <InterpolatingParam id="1209" interp="linr"  time="0/1" value="0" leadInLength="0/1"  />
           </VectorParam>
           <VectorParam id="1210"  name="geometryCrop">
            <InterpolatingParam id="1211" interp="linr"  time="-9999999/1" value="0" leadInLength="0/1"  interpolater="leadin-linr"  />
            <InterpolatingParam id="1212" interp="linr"  time="-9999999/1" value="0" leadInLength="0/1"  interpolater="leadin-linr"  />
            <InterpolatingParam id="1213" interp="linr"  time="-9999999/1" value="0" leadInLength="0/1"  interpolater="leadin-linr"  />
            <InterpolatingParam id="1214" interp="linr"  time="-9999999/1" value="0" leadInLength="0/1"  interpolater="leadin-linr"  />
           </VectorParam>
           <InterpolatingParam id="1215" interp="linr"  time="-9999999/1" value="1" leadInLength="0/1"  interpolater="leadin-linr"  name="opacity"/>
           <InterpolatingParam id="1216" interp="linr"  time="0/1" value="1" leadInLength="0/1"  name="cursorOpacity"/>
           <InterpolatingParam id="1217" interp="linr"  time="0/1" value="1" leadInLength="0/1"  name="cursorScale"/>
          </Parameters>
          <Effects>
           <GenericEffect id="1218" name = "CursorBaseEffectName" >
            <Parameters>
            <InterpolatingParam id="1219" interp="linr"  time="-9999999/1" value="1" leadInLength="0/1"   name="cursorSize"/>
            <InterpolatingParam id="1220" interp="linr"  time="-9999999/1" value="0" leadInLength="0/1"   name="highlightBlurRadius"/>
            <InterpolatingParam id="1221" interp="linr"  time="-9999999/1" value="0" leadInLength="0/1"   name="highlightColorBlue"/>
            <InterpolatingParam id="1222" interp="linr"  time="-9999999/1" value="255" leadInLength="0/1"   name="highlightColorGreen"/>
            <InterpolatingParam id="1223" interp="linr"  time="-9999999/1" value="255" leadInLength="0/1"   name="highlightColorRed"/>
            <InterpolatingParam id="1224" interp="linr"  time="-9999999/1" value="5" leadInLength="0/1"   name="highlightFeatherSize"/>
            <InterpolatingParam id="1225" interp="linr"  time="-9999999/1" value="2" leadInLength="0/1"   name="highlightMagnification"/>
            <InterpolatingParam id="1226" interp="linr"  time="-9999999/1" value="1" leadInLength="0/1"   name="highlightOpacity"/>
            <InterpolatingParam id="1227" interp="linr"  time="-9999999/1" value="45" leadInLength="0/1"   name="highlightSize"/>
            <Parameter id="1228"   name="highlightType">
             <Keyframes>
             <Keyframe id="1229"  time="-9999999/1" value="0" leadInLength="0/1"  />
             </Keyframes>
            </Parameter>
            <InterpolatingParam id="1230" interp="linr"  time="-9999999/1" value="0" leadInLength="0/1"   name="leftClickColorBlue"/>
            <InterpolatingParam id="1231" interp="linr"  time="-9999999/1" value="0" leadInLength="0/1"   name="leftClickColorGreen"/>
            <InterpolatingParam id="1232" interp="linr"  time="-9999999/1" value="255" leadInLength="0/1"   name="leftClickColorRed"/>
            <InterpolatingParam id="1233" interp="linr"  time="-9999999/1" value="0.80000000000000004" leadInLength="0/1"   name="leftClickDuration"/>
            <InterpolatingParam id="1234" interp="linr"  time="-9999999/1" value="20" leadInLength="0/1"   name="leftClickSize"/>
            <Parameter id="1235"   name="leftClickSoundFilename">
             <Keyframes>
             <Keyframe id="1236"  time="-9999999/1" value="" leadInLength="0/1"  />
             </Keyframes>
            </Parameter>
            <InterpolatingParam id="1237" interp="linr"  time="-9999999/1" value="1" leadInLength="0/1"   name="leftClickSoundVolume"/>
            <Parameter id="1238"   name="leftClickType">
             <Keyframes>
             <Keyframe id="1239"  time="-9999999/1" value="0" leadInLength="0/1"  />
             </Keyframes>
            </Parameter>
            <InterpolatingParam id="1240" interp="linr"  time="-9999999/1" value="1" leadInLength="0/1"   name="opacity"/>
            <InterpolatingParam id="1241" interp="linr"  time="-9999999/1" value="255" leadInLength="0/1"   name="rightClickColorBlue"/>
            <InterpolatingParam id="1242" interp="linr"  time="-9999999/1" value="0" leadInLength="0/1"   name="rightClickColorGreen"/>
            <InterpolatingParam id="1243" interp="linr"  time="-9999999/1" value="0" leadInLength="0/1"   name="rightClickColorRed"/>
            <InterpolatingParam id="1244" interp="linr"  time="-9999999/1" value="0.80000000000000004" leadInLength="0/1"   name="rightClickDuration"/>
            <InterpolatingParam id="1245" interp="linr"  time="-9999999/1" value="20" leadInLength="0/1"   name="rightClickSize"/>
            <Parameter id="1246"   name="rightClickSoundFilename">
             <Keyframes>
             <Keyframe id="1247"  time="-9999999/1" value="" leadInLength="0/1"  />
             </Keyframes>
            </Parameter>
            <InterpolatingParam id="1248" interp="linr"  time="-9999999/1" value="1" leadInLength="0/1"   name="rightClickSoundVolume"/>
            <Parameter id="1249"   name="rightClickType">
             <Keyframes>
             <Keyframe id="1250"  time="-9999999/1" value="0" leadInLength="0/1"  />
             </Keyframes>
            </Parameter>
            </Parameters>
            <MetaData>
             <entry key="effectIndex" val="0"/>
            </MetaData>
           </GenericEffect>
          </Effects>
          <Attributes>
           <Attribute id="1251" value="" name="ident"/>
          </Attributes>
          <ExtraData>
           <Entry key="ZoomPanBin">
            <ZoomPanBin id="1252"  >
             <ZoomPanKeyframes>
              <ZoomPanKeyframe id="1253" timeRangeEnd="-9999999/1" timeRangeDuration="0/1" interpolaterName="leadin-linr"  />
             </ZoomPanKeyframes>
            </ZoomPanBin>
           </Entry>
           <Entry key="CursorEffectBin">
            <CursorEffectBin id="1254"  >
             <CursorEffectKeyframes>
              <CursorEffectKeyframe id="1255" timeRangeEnd="-9999999/1" timeRangeDuration="0/1" interpolaterName=""  />
             </CursorEffectKeyframes>
            </CursorEffectBin>
           </Entry>
          </ExtraData>
         </ScreenVMFile>
         <MetaData>
          <entry key="AutoAppliedSmartFocus" val="False"/>
          <entry key="WinSubProjectDisplayName" val=""/>
         </MetaData>
        </UnifiedMedia>
        <UnifiedMedia id="1256"  >
         <AMFile id="1257" start="4098" duration="906" scalar="1/1" mediaStart="4889/1" mediaDuration="906/1" trackNumber="1" src="5" channelNumber="0,1" >
          <Parameters>
           <InterpolatingParam id="1258" interp="linr"  time="0/1" value="1" leadInLength="0/1"  name="volume"/>
           <Parameter id="1259"  name="captions"/>
          </Parameters>
          <Attributes>
           <Attribute id="1260" value="" name="ident"/>
           <Attribute id="1261" value="44100" name="sampleRate"/>
           <Attribute id="1262" value="16" name="bitDepth"/>
           <Attribute id="1263" value="1" name="gain"/>
           <Attribute id="1264" value="0" name="mixToMono"/>
          </Attributes>
         </AMFile>
         <ScreenVMFile id="1265" start="4098" duration="906" scalar="1/1" mediaStart="4889/1" mediaDuration="906/1" trackNumber="0" src="5" >
          <Transformer>
           <VectorParam id="1266"  name="translation">
            <InterpolatingParam id="1267" interp="linr"  time="-9999999/1" value="-0.749999999975135" leadInLength="0/1"  />
            <InterpolatingParam id="1268" interp="linr"  time="-9999999/1" value="5.0539572526986376e-011" leadInLength="0/1"  />
            <InterpolatingParam id="1269" interp="linr"  time="-9999999/1" value="0" leadInLength="0/1"  />
           </VectorParam>
           <VectorParam id="1270"  name="rotation">
            <InterpolatingParam id="1271" interp="linr"  time="-9999999/1" value="0" leadInLength="0/1"  />
            <InterpolatingParam id="1272" interp="linr"  time="-9999999/1" value="0" leadInLength="0/1"  />
            <InterpolatingParam id="1273" interp="linr"  time="-9999999/1" value="0" leadInLength="0/1"  />
           </VectorParam>
           <VectorParam id="1274"  name="shear">
            <InterpolatingParam id="1275" interp="linr"  time="-9999999/1" value="0" leadInLength="0/1"  />
            <InterpolatingParam id="1276" interp="linr"  time="-9999999/1" value="0" leadInLength="0/1"  />
            <InterpolatingParam id="1277" interp="linr"  time="-9999999/1" value="0" leadInLength="0/1"  />
           </VectorParam>
           <VectorParam id="1278"  name="scale">
            <InterpolatingParam id="1279" interp="linr"  time="-9999999/1" value="0.625" leadInLength="0/1"  />
            <InterpolatingParam id="1280" interp="linr"  time="-9999999/1" value="0.625" leadInLength="0/1"  />
            <InterpolatingParam id="1281" interp="linr"  time="-9999999/1" value="1" leadInLength="0/1"  />
           </VectorParam>
           <VectorParam id="1282"  name="anchor">
            <InterpolatingParam id="1283" interp="linr"  time="0/1" value="0" leadInLength="0/1"  />
            <InterpolatingParam id="1284" interp="linr"  time="0/1" value="0" leadInLength="0/1"  />
            <InterpolatingParam id="1285" interp="linr"  time="0/1" value="0" leadInLength="0/1"  />
           </VectorParam>
          </Transformer>
          <Parameters>
           <VectorParam id="1286"  name="sourceCrop">
            <InterpolatingParam id="1287" interp="linr"  time="0/1" value="0" leadInLength="0/1"  />
            <InterpolatingParam id="1288" interp="linr"  time="0/1" value="0" leadInLength="0/1"  />
            <InterpolatingParam id="1289" interp="linr"  time="0/1" value="0" leadInLength="0/1"  />
            <InterpolatingParam id="1290" interp="linr"  time="0/1" value="0" leadInLength="0/1"  />
           </VectorParam>
           <VectorParam id="1291"  name="geometryCrop">
            <InterpolatingParam id="1292" interp="linr"  time="-9999999/1" value="0" leadInLength="0/1"  />
            <InterpolatingParam id="1293" interp="linr"  time="-9999999/1" value="0" leadInLength="0/1"  />
            <InterpolatingParam id="1294" interp="linr"  time="-9999999/1" value="0" leadInLength="0/1"  />
            <InterpolatingParam id="1295" interp="linr"  time="-9999999/1" value="0" leadInLength="0/1"  />
           </VectorParam>
           <InterpolatingParam id="1296" interp="linr"  time="-9999999/1" value="1" leadInLength="0/1"  name="opacity"/>
           <InterpolatingParam id="1297" interp="linr"  time="0/1" value="1" leadInLength="0/1"  name="cursorOpacity"/>
           <InterpolatingParam id="1298" interp="linr"  time="0/1" value="1" leadInLength="0/1"  name="cursorScale"/>
          </Parameters>
          <Effects>
           <GenericEffect id="1299" name = "CursorBaseEffectName" >
            <Parameters>
            <InterpolatingParam id="1300" interp="linr"  time="-9999999/1" value="1" leadInLength="0/1"   name="cursorSize"/>
            <InterpolatingParam id="1301" interp="linr"  time="-9999999/1" value="0" leadInLength="0/1"   name="highlightBlurRadius"/>
            <InterpolatingParam id="1302" interp="linr"  time="-9999999/1" value="0" leadInLength="0/1"   name="highlightColorBlue"/>
            <InterpolatingParam id="1303" interp="linr"  time="-9999999/1" value="255" leadInLength="0/1"   name="highlightColorGreen"/>
            <InterpolatingParam id="1304" interp="linr"  time="-9999999/1" value="255" leadInLength="0/1"   name="highlightColorRed"/>
            <InterpolatingParam id="1305" interp="linr"  time="-9999999/1" value="5" leadInLength="0/1"   name="highlightFeatherSize"/>
            <InterpolatingParam id="1306" interp="linr"  time="-9999999/1" value="2" leadInLength="0/1"   name="highlightMagnification"/>
            <InterpolatingParam id="1307" interp="linr"  time="-9999999/1" value="1" leadInLength="0/1"   name="highlightOpacity"/>
            <InterpolatingParam id="1308" interp="linr"  time="-9999999/1" value="45" leadInLength="0/1"   name="highlightSize"/>
            <Parameter id="1309"   name="highlightType">
             <Keyframes>
             <Keyframe id="1310"  time="-9999999/1" value="0" leadInLength="0/1"  />
             </Keyframes>
            </Parameter>
            <InterpolatingParam id="1311" interp="linr"  time="-9999999/1" value="0" leadInLength="0/1"   name="leftClickColorBlue"/>
            <InterpolatingParam id="1312" interp="linr"  time="-9999999/1" value="0" leadInLength="0/1"   name="leftClickColorGreen"/>
            <InterpolatingParam id="1313" interp="linr"  time="-9999999/1" value="255" leadInLength="0/1"   name="leftClickColorRed"/>
            <InterpolatingParam id="1314" interp="linr"  time="-9999999/1" value="0.80000000000000004" leadInLength="0/1"   name="leftClickDuration"/>
            <InterpolatingParam id="1315" interp="linr"  time="-9999999/1" value="20" leadInLength="0/1"   name="leftClickSize"/>
            <Parameter id="1316"   name="leftClickSoundFilename">
             <Keyframes>
             <Keyframe id="1317"  time="-9999999/1" value="" leadInLength="0/1"  />
             </Keyframes>
            </Parameter>
            <InterpolatingParam id="1318" interp="linr"  time="-9999999/1" value="1" leadInLength="0/1"   name="leftClickSoundVolume"/>
            <Parameter id="1319"   name="leftClickType">
             <Keyframes>
             <Keyframe id="1320"  time="-9999999/1" value="0" leadInLength="0/1"  />
             </Keyframes>
            </Parameter>
            <InterpolatingParam id="1321" interp="linr"  time="-9999999/1" value="1" leadInLength="0/1"   name="opacity"/>
            <InterpolatingParam id="1322" interp="linr"  time="-9999999/1" value="255" leadInLength="0/1"   name="rightClickColorBlue"/>
            <InterpolatingParam id="1323" interp="linr"  time="-9999999/1" value="0" leadInLength="0/1"   name="rightClickColorGreen"/>
            <InterpolatingParam id="1324" interp="linr"  time="-9999999/1" value="0" leadInLength="0/1"   name="rightClickColorRed"/>
            <InterpolatingParam id="1325" interp="linr"  time="-9999999/1" value="0.80000000000000004" leadInLength="0/1"   name="rightClickDuration"/>
            <InterpolatingParam id="1326" interp="linr"  time="-9999999/1" value="20" leadInLength="0/1"   name="rightClickSize"/>
            <Parameter id="1327"   name="rightClickSoundFilename">
             <Keyframes>
             <Keyframe id="1328"  time="-9999999/1" value="" leadInLength="0/1"  />
             </Keyframes>
            </Parameter>
            <InterpolatingParam id="1329" interp="linr"  time="-9999999/1" value="1" leadInLength="0/1"   name="rightClickSoundVolume"/>
            <Parameter id="1330"   name="rightClickType">
             <Keyframes>
             <Keyframe id="1331"  time="-9999999/1" value="0" leadInLength="0/1"  />
             </Keyframes>
            </Parameter>
            </Parameters>
            <MetaData>
             <entry key="effectIndex" val="0"/>
            </MetaData>
           </GenericEffect>
          </Effects>
          <Attributes>
           <Attribute id="1332" value="" name="ident"/>
          </Attributes>
          <ExtraData>
           <Entry key="ZoomPanBin">
            <ZoomPanBin id="1333"  >
             <ZoomPanKeyframes>
              <ZoomPanKeyframe id="1334" timeRangeEnd="-9999999/1" timeRangeDuration="0/1" interpolaterName="linr"  />
             </ZoomPanKeyframes>
            </ZoomPanBin>
           </Entry>
           <Entry key="CursorEffectBin">
            <CursorEffectBin id="1335"  >
             <CursorEffectKeyframes>
              <CursorEffectKeyframe id="1336" timeRangeEnd="-9999999/1" timeRangeDuration="0/1" interpolaterName=""  />
             </CursorEffectKeyframes>
            </CursorEffectBin>
           </Entry>
          </ExtraData>
         </ScreenVMFile>
         <MetaData>
          <entry key="AutoAppliedSmartFocus" val="False"/>
          <entry key="WinSubProjectDisplayName" val=""/>
         </MetaData>
        </UnifiedMedia>
        <UnifiedMedia id="1337"  >
         <AMFile id="1338" start="5004" duration="187" scalar="1/1" mediaStart="5814/1" mediaDuration="187/1" trackNumber="1" src="5" channelNumber="0,1" >
          <Parameters>
           <InterpolatingParam id="1339" interp="linr"  time="0/1" value="1" leadInLength="0/1"  name="volume"/>
           <Parameter id="1340"  name="captions"/>
          </Parameters>
          <Attributes>
           <Attribute id="1341" value="" name="ident"/>
           <Attribute id="1342" value="44100" name="sampleRate"/>
           <Attribute id="1343" value="16" name="bitDepth"/>
           <Attribute id="1344" value="1" name="gain"/>
           <Attribute id="1345" value="0" name="mixToMono"/>
          </Attributes>
         </AMFile>
         <ScreenVMFile id="1346" start="5004" duration="187" scalar="1/1" mediaStart="5814/1" mediaDuration="187/1" trackNumber="0" src="5" >
          <Transformer>
           <VectorParam id="1347"  name="translation">
            <InterpolatingParam id="1348" interp="linr"  time="-9999999/1" value="0" leadInLength="0/1"  />
            <InterpolatingParam id="1349" interp="linr"  time="-9999999/1" value="0" leadInLength="0/1"  />
            <InterpolatingParam id="1350" interp="linr"  time="-9999999/1" value="0" leadInLength="0/1"  />
           </VectorParam>
           <VectorParam id="1351"  name="rotation">
            <InterpolatingParam id="1352" interp="linr"  time="-9999999/1" value="0" leadInLength="0/1"  />
            <InterpolatingParam id="1353" interp="linr"  time="-9999999/1" value="0" leadInLength="0/1"  />
            <InterpolatingParam id="1354" interp="linr"  time="-9999999/1" value="0" leadInLength="0/1"  />
           </VectorParam>
           <VectorParam id="1355"  name="shear">
            <InterpolatingParam id="1356" interp="linr"  time="-9999999/1" value="0" leadInLength="0/1"  />
            <InterpolatingParam id="1357" interp="linr"  time="-9999999/1" value="0" leadInLength="0/1"  />
            <InterpolatingParam id="1358" interp="linr"  time="-9999999/1" value="0" leadInLength="0/1"  />
           </VectorParam>
           <VectorParam id="1359"  name="scale">
            <InterpolatingParam id="1360" interp="linr"  time="-9999999/1" value="0.625" leadInLength="0/1"  />
            <InterpolatingParam id="1361" interp="linr"  time="-9999999/1" value="0.625" leadInLength="0/1"  />
            <InterpolatingParam id="1362" interp="linr"  time="-9999999/1" value="1" leadInLength="0/1"  />
           </VectorParam>
           <VectorParam id="1363"  name="anchor">
            <InterpolatingParam id="1364" interp="linr"  time="0/1" value="0" leadInLength="0/1"  />
            <InterpolatingParam id="1365" interp="linr"  time="0/1" value="0" leadInLength="0/1"  />
            <InterpolatingParam id="1366" interp="linr"  time="0/1" value="0" leadInLength="0/1"  />
           </VectorParam>
          </Transformer>
          <Parameters>
           <VectorParam id="1367"  name="sourceCrop">
            <InterpolatingParam id="1368" interp="linr"  time="0/1" value="0" leadInLength="0/1"  />
            <InterpolatingParam id="1369" interp="linr"  time="0/1" value="0" leadInLength="0/1"  />
            <InterpolatingParam id="1370" interp="linr"  time="0/1" value="0" leadInLength="0/1"  />
            <InterpolatingParam id="1371" interp="linr"  time="0/1" value="0" leadInLength="0/1"  />
           </VectorParam>
           <VectorParam id="1372"  name="geometryCrop">
            <InterpolatingParam id="1373" interp="linr"  time="-9999999/1" value="0" leadInLength="0/1"  />
            <InterpolatingParam id="1374" interp="linr"  time="-9999999/1" value="0" leadInLength="0/1"  />
            <InterpolatingParam id="1375" interp="linr"  time="-9999999/1" value="0" leadInLength="0/1"  />
            <InterpolatingParam id="1376" interp="linr"  time="-9999999/1" value="0" leadInLength="0/1"  />
           </VectorParam>
           <InterpolatingParam id="1377" interp="linr"  time="-9999999/1" value="1" leadInLength="0/1"  name="opacity"/>
           <InterpolatingParam id="1378" interp="linr"  time="0/1" value="1" leadInLength="0/1"  name="cursorOpacity"/>
           <InterpolatingParam id="1379" interp="linr"  time="0/1" value="1" leadInLength="0/1"  name="cursorScale"/>
          </Parameters>
          <Effects>
           <GenericEffect id="1380" name = "CursorBaseEffectName" >
            <Parameters>
            <InterpolatingParam id="1381" interp="linr"  time="-9999999/1" value="1" leadInLength="0/1"   name="cursorSize"/>
            <InterpolatingParam id="1382" interp="linr"  time="-9999999/1" value="0" leadInLength="0/1"   name="highlightBlurRadius"/>
            <InterpolatingParam id="1383" interp="linr"  time="-9999999/1" value="0" leadInLength="0/1"   name="highlightColorBlue"/>
            <InterpolatingParam id="1384" interp="linr"  time="-9999999/1" value="255" leadInLength="0/1"   name="highlightColorGreen"/>
            <InterpolatingParam id="1385" interp="linr"  time="-9999999/1" value="255" leadInLength="0/1"   name="highlightColorRed"/>
            <InterpolatingParam id="1386" interp="linr"  time="-9999999/1" value="5" leadInLength="0/1"   name="highlightFeatherSize"/>
            <InterpolatingParam id="1387" interp="linr"  time="-9999999/1" value="2" leadInLength="0/1"   name="highlightMagnification"/>
            <InterpolatingParam id="1388" interp="linr"  time="-9999999/1" value="1" leadInLength="0/1"   name="highlightOpacity"/>
            <InterpolatingParam id="1389" interp="linr"  time="-9999999/1" value="45" leadInLength="0/1"   name="highlightSize"/>
            <Parameter id="1390"   name="highlightType">
             <Keyframes>
             <Keyframe id="1391"  time="-9999999/1" value="0" leadInLength="0/1"  />
             </Keyframes>
            </Parameter>
            <InterpolatingParam id="1392" interp="linr"  time="-9999999/1" value="0" leadInLength="0/1"   name="leftClickColorBlue"/>
            <InterpolatingParam id="1393" interp="linr"  time="-9999999/1" value="0" leadInLength="0/1"   name="leftClickColorGreen"/>
            <InterpolatingParam id="1394" interp="linr"  time="-9999999/1" value="255" leadInLength="0/1"   name="leftClickColorRed"/>
            <InterpolatingParam id="1395" interp="linr"  time="-9999999/1" value="0.80000000000000004" leadInLength="0/1"   name="leftClickDuration"/>
            <InterpolatingParam id="1396" interp="linr"  time="-9999999/1" value="20" leadInLength="0/1"   name="leftClickSize"/>
            <Parameter id="1397"   name="leftClickSoundFilename">
             <Keyframes>
             <Keyframe id="1398"  time="-9999999/1" value="" leadInLength="0/1"  />
             </Keyframes>
            </Parameter>
            <InterpolatingParam id="1399" interp="linr"  time="-9999999/1" value="1" leadInLength="0/1"   name="leftClickSoundVolume"/>
            <Parameter id="1400"   name="leftClickType">
             <Keyframes>
             <Keyframe id="1401"  time="-9999999/1" value="0" leadInLength="0/1"  />
             </Keyframes>
            </Parameter>
            <InterpolatingParam id="1402" interp="linr"  time="-9999999/1" value="1" leadInLength="0/1"   name="opacity"/>
            <InterpolatingParam id="1403" interp="linr"  time="-9999999/1" value="255" leadInLength="0/1"   name="rightClickColorBlue"/>
            <InterpolatingParam id="1404" interp="linr"  time="-9999999/1" value="0" leadInLength="0/1"   name="rightClickColorGreen"/>
            <InterpolatingParam id="1405" interp="linr"  time="-9999999/1" value="0" leadInLength="0/1"   name="rightClickColorRed"/>
            <InterpolatingParam id="1406" interp="linr"  time="-9999999/1" value="0.80000000000000004" leadInLength="0/1"   name="rightClickDuration"/>
            <InterpolatingParam id="1407" interp="linr"  time="-9999999/1" value="20" leadInLength="0/1"   name="rightClickSize"/>
            <Parameter id="1408"   name="rightClickSoundFilename">
             <Keyframes>
             <Keyframe id="1409"  time="-9999999/1" value="" leadInLength="0/1"  />
             </Keyframes>
            </Parameter>
            <InterpolatingParam id="1410" interp="linr"  time="-9999999/1" value="1" leadInLength="0/1"   name="rightClickSoundVolume"/>
            <Parameter id="1411"   name="rightClickType">
             <Keyframes>
             <Keyframe id="1412"  time="-9999999/1" value="0" leadInLength="0/1"  />
             </Keyframes>
            </Parameter>
            </Parameters>
            <MetaData>
             <entry key="effectIndex" val="0"/>
            </MetaData>
           </GenericEffect>
          </Effects>
          <Attributes>
           <Attribute id="1413" value="" name="ident"/>
          </Attributes>
          <ExtraData>
           <Entry key="ZoomPanBin">
            <ZoomPanBin id="1414"  >
             <ZoomPanKeyframes>
              <ZoomPanKeyframe id="1415" timeRangeEnd="-9999999/1" timeRangeDuration="0/1" interpolaterName="linr"  />
             </ZoomPanKeyframes>
            </ZoomPanBin>
           </Entry>
           <Entry key="CursorEffectBin">
            <CursorEffectBin id="1416"  >
             <CursorEffectKeyframes>
              <CursorEffectKeyframe id="1417" timeRangeEnd="-9999999/1" timeRangeDuration="0/1" interpolaterName=""  />
             </CursorEffectKeyframes>
            </CursorEffectBin>
           </Entry>
          </ExtraData>
         </ScreenVMFile>
         <MetaData>
          <entry key="AutoAppliedSmartFocus" val="False"/>
          <entry key="WinSubProjectDisplayName" val=""/>
         </MetaData>
        </UnifiedMedia>
        <UnifiedMedia id="1418"  >
         <AMFile id="1419" start="5191" duration="41" scalar="1/1" mediaStart="6605/1" mediaDuration="41/1" trackNumber="1" src="5" channelNumber="0,1" >
          <Parameters>
           <InterpolatingParam id="1420" interp="linr"  time="0/1" value="1" leadInLength="0/1"  name="volume"/>
           <Parameter id="1421"  name="captions"/>
          </Parameters>
          <Attributes>
           <Attribute id="1422" value="" name="ident"/>
           <Attribute id="1423" value="44100" name="sampleRate"/>
           <Attribute id="1424" value="16" name="bitDepth"/>
           <Attribute id="1425" value="1" name="gain"/>
           <Attribute id="1426" value="0" name="mixToMono"/>
          </Attributes>
         </AMFile>
         <ScreenVMFile id="1427" start="5191" duration="41" scalar="1/1" mediaStart="6605/1" mediaDuration="41/1" trackNumber="0" src="5" >
          <Transformer>
           <VectorParam id="1428"  name="translation">
            <InterpolatingParam id="1429" interp="linr"  time="-9999999/1" value="0" leadInLength="0/1"  />
            <InterpolatingParam id="1430" interp="linr"  time="-9999999/1" value="0" leadInLength="0/1"  />
            <InterpolatingParam id="1431" interp="linr"  time="-9999999/1" value="0" leadInLength="0/1"  />
           </VectorParam>
           <VectorParam id="1432"  name="rotation">
            <InterpolatingParam id="1433" interp="linr"  time="-9999999/1" value="0" leadInLength="0/1"  />
            <InterpolatingParam id="1434" interp="linr"  time="-9999999/1" value="0" leadInLength="0/1"  />
            <InterpolatingParam id="1435" interp="linr"  time="-9999999/1" value="0" leadInLength="0/1"  />
           </VectorParam>
           <VectorParam id="1436"  name="shear">
            <InterpolatingParam id="1437" interp="linr"  time="-9999999/1" value="0" leadInLength="0/1"  />
            <InterpolatingParam id="1438" interp="linr"  time="-9999999/1" value="0" leadInLength="0/1"  />
            <InterpolatingParam id="1439" interp="linr"  time="-9999999/1" value="0" leadInLength="0/1"  />
           </VectorParam>
           <VectorParam id="1440"  name="scale">
            <InterpolatingParam id="1441" interp="linr"  time="-9999999/1" value="0.625" leadInLength="0/1"  />
            <InterpolatingParam id="1442" interp="linr"  time="-9999999/1" value="0.625" leadInLength="0/1"  />
            <InterpolatingParam id="1443" interp="linr"  time="-9999999/1" value="1" leadInLength="0/1"  />
           </VectorParam>
           <VectorParam id="1444"  name="anchor">
            <InterpolatingParam id="1445" interp="linr"  time="0/1" value="0" leadInLength="0/1"  />
            <InterpolatingParam id="1446" interp="linr"  time="0/1" value="0" leadInLength="0/1"  />
            <InterpolatingParam id="1447" interp="linr"  time="0/1" value="0" leadInLength="0/1"  />
           </VectorParam>
          </Transformer>
          <Parameters>
           <VectorParam id="1448"  name="sourceCrop">
            <InterpolatingParam id="1449" interp="linr"  time="0/1" value="0" leadInLength="0/1"  />
            <InterpolatingParam id="1450" interp="linr"  time="0/1" value="0" leadInLength="0/1"  />
            <InterpolatingParam id="1451" interp="linr"  time="0/1" value="0" leadInLength="0/1"  />
            <InterpolatingParam id="1452" interp="linr"  time="0/1" value="0" leadInLength="0/1"  />
           </VectorParam>
           <VectorParam id="1453"  name="geometryCrop">
            <InterpolatingParam id="1454" interp="linr"  time="-9999999/1" value="0" leadInLength="0/1"  />
            <InterpolatingParam id="1455" interp="linr"  time="-9999999/1" value="0" leadInLength="0/1"  />
            <InterpolatingParam id="1456" interp="linr"  time="-9999999/1" value="0" leadInLength="0/1"  />
            <InterpolatingParam id="1457" interp="linr"  time="-9999999/1" value="0" leadInLength="0/1"  />
           </VectorParam>
           <InterpolatingParam id="1458" interp="linr"  time="-9999999/1" value="1" leadInLength="0/1"  name="opacity"/>
           <InterpolatingParam id="1459" interp="linr"  time="0/1" value="1" leadInLength="0/1"  name="cursorOpacity"/>
           <InterpolatingParam id="1460" interp="linr"  time="0/1" value="1" leadInLength="0/1"  name="cursorScale"/>
          </Parameters>
          <Effects>
           <GenericEffect id="1461" name = "CursorBaseEffectName" >
            <Parameters>
            <InterpolatingParam id="1462" interp="linr"  time="-9999999/1" value="1" leadInLength="0/1"   name="cursorSize"/>
            <InterpolatingParam id="1463" interp="linr"  time="-9999999/1" value="0" leadInLength="0/1"   name="highlightBlurRadius"/>
            <InterpolatingParam id="1464" interp="linr"  time="-9999999/1" value="0" leadInLength="0/1"   name="highlightColorBlue"/>
            <InterpolatingParam id="1465" interp="linr"  time="-9999999/1" value="255" leadInLength="0/1"   name="highlightColorGreen"/>
            <InterpolatingParam id="1466" interp="linr"  time="-9999999/1" value="255" leadInLength="0/1"   name="highlightColorRed"/>
            <InterpolatingParam id="1467" interp="linr"  time="-9999999/1" value="5" leadInLength="0/1"   name="highlightFeatherSize"/>
            <InterpolatingParam id="1468" interp="linr"  time="-9999999/1" value="2" leadInLength="0/1"   name="highlightMagnification"/>
            <InterpolatingParam id="1469" interp="linr"  time="-9999999/1" value="1" leadInLength="0/1"   name="highlightOpacity"/>
            <InterpolatingParam id="1470" interp="linr"  time="-9999999/1" value="45" leadInLength="0/1"   name="highlightSize"/>
            <Parameter id="1471"   name="highlightType">
             <Keyframes>
             <Keyframe id="1472"  time="-9999999/1" value="0" leadInLength="0/1"  />
             </Keyframes>
            </Parameter>
            <InterpolatingParam id="1473" interp="linr"  time="-9999999/1" value="0" leadInLength="0/1"   name="leftClickColorBlue"/>
            <InterpolatingParam id="1474" interp="linr"  time="-9999999/1" value="0" leadInLength="0/1"   name="leftClickColorGreen"/>
            <InterpolatingParam id="1475" interp="linr"  time="-9999999/1" value="255" leadInLength="0/1"   name="leftClickColorRed"/>
            <InterpolatingParam id="1476" interp="linr"  time="-9999999/1" value="0.80000000000000004" leadInLength="0/1"   name="leftClickDuration"/>
            <InterpolatingParam id="1477" interp="linr"  time="-9999999/1" value="20" leadInLength="0/1"   name="leftClickSize"/>
            <Parameter id="1478"   name="leftClickSoundFilename">
             <Keyframes>
             <Keyframe id="1479"  time="-9999999/1" value="" leadInLength="0/1"  />
             </Keyframes>
            </Parameter>
            <InterpolatingParam id="1480" interp="linr"  time="-9999999/1" value="1" leadInLength="0/1"   name="leftClickSoundVolume"/>
            <Parameter id="1481"   name="leftClickType">
             <Keyframes>
             <Keyframe id="1482"  time="-9999999/1" value="0" leadInLength="0/1"  />
             </Keyframes>
            </Parameter>
            <InterpolatingParam id="1483" interp="linr"  time="-9999999/1" value="1" leadInLength="0/1"   name="opacity"/>
            <InterpolatingParam id="1484" interp="linr"  time="-9999999/1" value="255" leadInLength="0/1"   name="rightClickColorBlue"/>
            <InterpolatingParam id="1485" interp="linr"  time="-9999999/1" value="0" leadInLength="0/1"   name="rightClickColorGreen"/>
            <InterpolatingParam id="1486" interp="linr"  time="-9999999/1" value="0" leadInLength="0/1"   name="rightClickColorRed"/>
            <InterpolatingParam id="1487" interp="linr"  time="-9999999/1" value="0.80000000000000004" leadInLength="0/1"   name="rightClickDuration"/>
            <InterpolatingParam id="1488" interp="linr"  time="-9999999/1" value="20" leadInLength="0/1"   name="rightClickSize"/>
            <Parameter id="1489"   name="rightClickSoundFilename">
             <Keyframes>
             <Keyframe id="1490"  time="-9999999/1" value="" leadInLength="0/1"  />
             </Keyframes>
            </Parameter>
            <InterpolatingParam id="1491" interp="linr"  time="-9999999/1" value="1" leadInLength="0/1"   name="rightClickSoundVolume"/>
            <Parameter id="1492"   name="rightClickType">
             <Keyframes>
             <Keyframe id="1493"  time="-9999999/1" value="0" leadInLength="0/1"  />
             </Keyframes>
            </Parameter>
            </Parameters>
            <MetaData>
             <entry key="effectIndex" val="0"/>
            </MetaData>
           </GenericEffect>
          </Effects>
          <Attributes>
           <Attribute id="1494" value="" name="ident"/>
          </Attributes>
          <ExtraData>
           <Entry key="ZoomPanBin">
            <ZoomPanBin id="1495"  >
             <ZoomPanKeyframes>
              <ZoomPanKeyframe id="1496" timeRangeEnd="-9999999/1" timeRangeDuration="0/1" interpolaterName="linr"  />
             </ZoomPanKeyframes>
            </ZoomPanBin>
           </Entry>
           <Entry key="CursorEffectBin">
            <CursorEffectBin id="1497"  >
             <CursorEffectKeyframes>
              <CursorEffectKeyframe id="1498" timeRangeEnd="-9999999/1" timeRangeDuration="0/1" interpolaterName=""  />
             </CursorEffectKeyframes>
            </CursorEffectBin>
           </Entry>
          </ExtraData>
         </ScreenVMFile>
         <MetaData>
          <entry key="AutoAppliedSmartFocus" val="False"/>
          <entry key="WinSubProjectDisplayName" val=""/>
         </MetaData>
        </UnifiedMedia>
        <UnifiedMedia id="1499"  >
         <AMFile id="1500" start="5232" duration="67" scalar="1/1" mediaStart="6735/1" mediaDuration="67/1" trackNumber="1" src="5" channelNumber="0,1" >
          <Parameters>
           <InterpolatingParam id="1501" interp="linr"  time="0/1" value="1" leadInLength="0/1"  name="volume"/>
           <Parameter id="1502"  name="captions"/>
          </Parameters>
          <Attributes>
           <Attribute id="1503" value="" name="ident"/>
           <Attribute id="1504" value="44100" name="sampleRate"/>
           <Attribute id="1505" value="16" name="bitDepth"/>
           <Attribute id="1506" value="1" name="gain"/>
           <Attribute id="1507" value="0" name="mixToMono"/>
          </Attributes>
         </AMFile>
         <ScreenVMFile id="1508" start="5232" duration="67" scalar="1/1" mediaStart="6735/1" mediaDuration="67/1" trackNumber="0" src="5" >
          <Transformer>
           <VectorParam id="1509"  name="translation">
            <InterpolatingParam id="1510" interp="linr"  time="-9999999/1" value="0" leadInLength="0/1"  />
            <InterpolatingParam id="1511" interp="linr"  time="-9999999/1" value="0" leadInLength="0/1"  />
            <InterpolatingParam id="1512" interp="linr"  time="-9999999/1" value="0" leadInLength="0/1"  />
           </VectorParam>
           <VectorParam id="1513"  name="rotation">
            <InterpolatingParam id="1514" interp="linr"  time="-9999999/1" value="0" leadInLength="0/1"  />
            <InterpolatingParam id="1515" interp="linr"  time="-9999999/1" value="0" leadInLength="0/1"  />
            <InterpolatingParam id="1516" interp="linr"  time="-9999999/1" value="0" leadInLength="0/1"  />
           </VectorParam>
           <VectorParam id="1517"  name="shear">
            <InterpolatingParam id="1518" interp="linr"  time="-9999999/1" value="0" leadInLength="0/1"  />
            <InterpolatingParam id="1519" interp="linr"  time="-9999999/1" value="0" leadInLength="0/1"  />
            <InterpolatingParam id="1520" interp="linr"  time="-9999999/1" value="0" leadInLength="0/1"  />
           </VectorParam>
           <VectorParam id="1521"  name="scale">
            <InterpolatingParam id="1522" interp="linr"  time="-9999999/1" value="0.625" leadInLength="0/1"  />
            <InterpolatingParam id="1523" interp="linr"  time="-9999999/1" value="0.625" leadInLength="0/1"  />
            <InterpolatingParam id="1524" interp="linr"  time="-9999999/1" value="1" leadInLength="0/1"  />
           </VectorParam>
           <VectorParam id="1525"  name="anchor">
            <InterpolatingParam id="1526" interp="linr"  time="0/1" value="0" leadInLength="0/1"  />
            <InterpolatingParam id="1527" interp="linr"  time="0/1" value="0" leadInLength="0/1"  />
            <InterpolatingParam id="1528" interp="linr"  time="0/1" value="0" leadInLength="0/1"  />
           </VectorParam>
          </Transformer>
          <Parameters>
           <VectorParam id="1529"  name="sourceCrop">
            <InterpolatingParam id="1530" interp="linr"  time="0/1" value="0" leadInLength="0/1"  />
            <InterpolatingParam id="1531" interp="linr"  time="0/1" value="0" leadInLength="0/1"  />
            <InterpolatingParam id="1532" interp="linr"  time="0/1" value="0" leadInLength="0/1"  />
            <InterpolatingParam id="1533" interp="linr"  time="0/1" value="0" leadInLength="0/1"  />
           </VectorParam>
           <VectorParam id="1534"  name="geometryCrop">
            <InterpolatingParam id="1535" interp="linr"  time="-9999999/1" value="0" leadInLength="0/1"  />
            <InterpolatingParam id="1536" interp="linr"  time="-9999999/1" value="0" leadInLength="0/1"  />
            <InterpolatingParam id="1537" interp="linr"  time="-9999999/1" value="0" leadInLength="0/1"  />
            <InterpolatingParam id="1538" interp="linr"  time="-9999999/1" value="0" leadInLength="0/1"  />
           </VectorParam>
           <InterpolatingParam id="1539" interp="linr"  time="-9999999/1" value="1" leadInLength="0/1"  name="opacity"/>
           <InterpolatingParam id="1540" interp="linr"  time="0/1" value="1" leadInLength="0/1"  name="cursorOpacity"/>
           <InterpolatingParam id="1541" interp="linr"  time="0/1" value="1" leadInLength="0/1"  name="cursorScale"/>
          </Parameters>
          <Effects>
           <GenericEffect id="1542" name = "CursorBaseEffectName" >
            <Parameters>
            <InterpolatingParam id="1543" interp="linr"  time="-9999999/1" value="1" leadInLength="0/1"   name="cursorSize"/>
            <InterpolatingParam id="1544" interp="linr"  time="-9999999/1" value="0" leadInLength="0/1"   name="highlightBlurRadius"/>
            <InterpolatingParam id="1545" interp="linr"  time="-9999999/1" value="0" leadInLength="0/1"   name="highlightColorBlue"/>
            <InterpolatingParam id="1546" interp="linr"  time="-9999999/1" value="255" leadInLength="0/1"   name="highlightColorGreen"/>
            <InterpolatingParam id="1547" interp="linr"  time="-9999999/1" value="255" leadInLength="0/1"   name="highlightColorRed"/>
            <InterpolatingParam id="1548" interp="linr"  time="-9999999/1" value="5" leadInLength="0/1"   name="highlightFeatherSize"/>
            <InterpolatingParam id="1549" interp="linr"  time="-9999999/1" value="2" leadInLength="0/1"   name="highlightMagnification"/>
            <InterpolatingParam id="1550" interp="linr"  time="-9999999/1" value="1" leadInLength="0/1"   name="highlightOpacity"/>
            <InterpolatingParam id="1551" interp="linr"  time="-9999999/1" value="45" leadInLength="0/1"   name="highlightSize"/>
            <Parameter id="1552"   name="highlightType">
             <Keyframes>
             <Keyframe id="1553"  time="-9999999/1" value="0" leadInLength="0/1"  />
             </Keyframes>
            </Parameter>
            <InterpolatingParam id="1554" interp="linr"  time="-9999999/1" value="0" leadInLength="0/1"   name="leftClickColorBlue"/>
            <InterpolatingParam id="1555" interp="linr"  time="-9999999/1" value="0" leadInLength="0/1"   name="leftClickColorGreen"/>
            <InterpolatingParam id="1556" interp="linr"  time="-9999999/1" value="255" leadInLength="0/1"   name="leftClickColorRed"/>
            <InterpolatingParam id="1557" interp="linr"  time="-9999999/1" value="0.80000000000000004" leadInLength="0/1"   name="leftClickDuration"/>
            <InterpolatingParam id="1558" interp="linr"  time="-9999999/1" value="20" leadInLength="0/1"   name="leftClickSize"/>
            <Parameter id="1559"   name="leftClickSoundFilename">
             <Keyframes>
             <Keyframe id="1560"  time="-9999999/1" value="" leadInLength="0/1"  />
             </Keyframes>
            </Parameter>
            <InterpolatingParam id="1561" interp="linr"  time="-9999999/1" value="1" leadInLength="0/1"   name="leftClickSoundVolume"/>
            <Parameter id="1562"   name="leftClickType">
             <Keyframes>
             <Keyframe id="1563"  time="-9999999/1" value="0" leadInLength="0/1"  />
             </Keyframes>
            </Parameter>
            <InterpolatingParam id="1564" interp="linr"  time="-9999999/1" value="1" leadInLength="0/1"   name="opacity"/>
            <InterpolatingParam id="1565" interp="linr"  time="-9999999/1" value="255" leadInLength="0/1"   name="rightClickColorBlue"/>
            <InterpolatingParam id="1566" interp="linr"  time="-9999999/1" value="0" leadInLength="0/1"   name="rightClickColorGreen"/>
            <InterpolatingParam id="1567" interp="linr"  time="-9999999/1" value="0" leadInLength="0/1"   name="rightClickColorRed"/>
            <InterpolatingParam id="1568" interp="linr"  time="-9999999/1" value="0.80000000000000004" leadInLength="0/1"   name="rightClickDuration"/>
            <InterpolatingParam id="1569" interp="linr"  time="-9999999/1" value="20" leadInLength="0/1"   name="rightClickSize"/>
            <Parameter id="1570"   name="rightClickSoundFilename">
             <Keyframes>
             <Keyframe id="1571"  time="-9999999/1" value="" leadInLength="0/1"  />
             </Keyframes>
            </Parameter>
            <InterpolatingParam id="1572" interp="linr"  time="-9999999/1" value="1" leadInLength="0/1"   name="rightClickSoundVolume"/>
            <Parameter id="1573"   name="rightClickType">
             <Keyframes>
             <Keyframe id="1574"  time="-9999999/1" value="0" leadInLength="0/1"  />
             </Keyframes>
            </Parameter>
            </Parameters>
            <MetaData>
             <entry key="effectIndex" val="0"/>
            </MetaData>
           </GenericEffect>
          </Effects>
          <Attributes>
           <Attribute id="1575" value="" name="ident"/>
          </Attributes>
          <ExtraData>
           <Entry key="ZoomPanBin">
            <ZoomPanBin id="1576"  >
             <ZoomPanKeyframes>
              <ZoomPanKeyframe id="1577" timeRangeEnd="-9999999/1" timeRangeDuration="0/1" interpolaterName="linr"  />
             </ZoomPanKeyframes>
            </ZoomPanBin>
           </Entry>
           <Entry key="CursorEffectBin">
            <CursorEffectBin id="1578"  >
             <CursorEffectKeyframes>
              <CursorEffectKeyframe id="1579" timeRangeEnd="-9999999/1" timeRangeDuration="0/1" interpolaterName=""  />
             </CursorEffectKeyframes>
            </CursorEffectBin>
           </Entry>
          </ExtraData>
         </ScreenVMFile>
         <MetaData>
          <entry key="AutoAppliedSmartFocus" val="False"/>
          <entry key="WinSubProjectDisplayName" val=""/>
         </MetaData>
        </UnifiedMedia>
        <UnifiedMedia id="1580"  >
         <AMFile id="1581" start="5299" duration="314" scalar="1/1" mediaStart="6844/1" mediaDuration="314/1" trackNumber="1" src="5" channelNumber="0,1" >
          <Parameters>
           <InterpolatingParam id="1582" interp="linr"  time="0/1" value="1" leadInLength="0/1"  name="volume"/>
           <Parameter id="1583"  name="captions"/>
          </Parameters>
          <Attributes>
           <Attribute id="1584" value="" name="ident"/>
           <Attribute id="1585" value="44100" name="sampleRate"/>
           <Attribute id="1586" value="16" name="bitDepth"/>
           <Attribute id="1587" value="1" name="gain"/>
           <Attribute id="1588" value="0" name="mixToMono"/>
          </Attributes>
         </AMFile>
         <ScreenVMFile id="1589" start="5299" duration="314" scalar="1/1" mediaStart="6844/1" mediaDuration="314/1" trackNumber="0" src="5" >
          <Transformer>
           <VectorParam id="1590"  name="translation">
            <InterpolatingParam id="1591" interp="linr"  time="-9999999/1" value="0" leadInLength="0/1"  />
            <InterpolatingParam id="1592" interp="linr"  time="-9999999/1" value="0" leadInLength="0/1"  />
            <InterpolatingParam id="1593" interp="linr"  time="-9999999/1" value="0" leadInLength="0/1"  />
           </VectorParam>
           <VectorParam id="1594"  name="rotation">
            <InterpolatingParam id="1595" interp="linr"  time="-9999999/1" value="0" leadInLength="0/1"  />
            <InterpolatingParam id="1596" interp="linr"  time="-9999999/1" value="0" leadInLength="0/1"  />
            <InterpolatingParam id="1597" interp="linr"  time="-9999999/1" value="0" leadInLength="0/1"  />
           </VectorParam>
           <VectorParam id="1598"  name="shear">
            <InterpolatingParam id="1599" interp="linr"  time="-9999999/1" value="0" leadInLength="0/1"  />
            <InterpolatingParam id="1600" interp="linr"  time="-9999999/1" value="0" leadInLength="0/1"  />
            <InterpolatingParam id="1601" interp="linr"  time="-9999999/1" value="0" leadInLength="0/1"  />
           </VectorParam>
           <VectorParam id="1602"  name="scale">
            <InterpolatingParam id="1603" interp="linr"  time="-9999999/1" value="0.625" leadInLength="0/1"  />
            <InterpolatingParam id="1604" interp="linr"  time="-9999999/1" value="0.625" leadInLength="0/1"  />
            <InterpolatingParam id="1605" interp="linr"  time="-9999999/1" value="1" leadInLength="0/1"  />
           </VectorParam>
           <VectorParam id="1606"  name="anchor">
            <InterpolatingParam id="1607" interp="linr"  time="0/1" value="0" leadInLength="0/1"  />
            <InterpolatingParam id="1608" interp="linr"  time="0/1" value="0" leadInLength="0/1"  />
            <InterpolatingParam id="1609" interp="linr"  time="0/1" value="0" leadInLength="0/1"  />
           </VectorParam>
          </Transformer>
          <Parameters>
           <VectorParam id="1610"  name="sourceCrop">
            <InterpolatingParam id="1611" interp="linr"  time="0/1" value="0" leadInLength="0/1"  />
            <InterpolatingParam id="1612" interp="linr"  time="0/1" value="0" leadInLength="0/1"  />
            <InterpolatingParam id="1613" interp="linr"  time="0/1" value="0" leadInLength="0/1"  />
            <InterpolatingParam id="1614" interp="linr"  time="0/1" value="0" leadInLength="0/1"  />
           </VectorParam>
           <VectorParam id="1615"  name="geometryCrop">
            <InterpolatingParam id="1616" interp="linr"  time="-9999999/1" value="0" leadInLength="0/1"  />
            <InterpolatingParam id="1617" interp="linr"  time="-9999999/1" value="0" leadInLength="0/1"  />
            <InterpolatingParam id="1618" interp="linr"  time="-9999999/1" value="0" leadInLength="0/1"  />
            <InterpolatingParam id="1619" interp="linr"  time="-9999999/1" value="0" leadInLength="0/1"  />
           </VectorParam>
           <InterpolatingParam id="1620" interp="linr"  time="-9999999/1" value="1" leadInLength="0/1"  name="opacity"/>
           <InterpolatingParam id="1621" interp="linr"  time="0/1" value="1" leadInLength="0/1"  name="cursorOpacity"/>
           <InterpolatingParam id="1622" interp="linr"  time="0/1" value="1" leadInLength="0/1"  name="cursorScale"/>
          </Parameters>
          <Effects>
           <GenericEffect id="1623" name = "CursorBaseEffectName" >
            <Parameters>
            <InterpolatingParam id="1624" interp="linr"  time="-9999999/1" value="1" leadInLength="0/1"   name="cursorSize"/>
            <InterpolatingParam id="1625" interp="linr"  time="-9999999/1" value="0" leadInLength="0/1"   name="highlightBlurRadius"/>
            <InterpolatingParam id="1626" interp="linr"  time="-9999999/1" value="0" leadInLength="0/1"   name="highlightColorBlue"/>
            <InterpolatingParam id="1627" interp="linr"  time="-9999999/1" value="255" leadInLength="0/1"   name="highlightColorGreen"/>
            <InterpolatingParam id="1628" interp="linr"  time="-9999999/1" value="255" leadInLength="0/1"   name="highlightColorRed"/>
            <InterpolatingParam id="1629" interp="linr"  time="-9999999/1" value="5" leadInLength="0/1"   name="highlightFeatherSize"/>
            <InterpolatingParam id="1630" interp="linr"  time="-9999999/1" value="2" leadInLength="0/1"   name="highlightMagnification"/>
            <InterpolatingParam id="1631" interp="linr"  time="-9999999/1" value="1" leadInLength="0/1"   name="highlightOpacity"/>
            <InterpolatingParam id="1632" interp="linr"  time="-9999999/1" value="45" leadInLength="0/1"   name="highlightSize"/>
            <Parameter id="1633"   name="highlightType">
             <Keyframes>
             <Keyframe id="1634"  time="-9999999/1" value="0" leadInLength="0/1"  />
             </Keyframes>
            </Parameter>
            <InterpolatingParam id="1635" interp="linr"  time="-9999999/1" value="0" leadInLength="0/1"   name="leftClickColorBlue"/>
            <InterpolatingParam id="1636" interp="linr"  time="-9999999/1" value="0" leadInLength="0/1"   name="leftClickColorGreen"/>
            <InterpolatingParam id="1637" interp="linr"  time="-9999999/1" value="255" leadInLength="0/1"   name="leftClickColorRed"/>
            <InterpolatingParam id="1638" interp="linr"  time="-9999999/1" value="0.80000000000000004" leadInLength="0/1"   name="leftClickDuration"/>
            <InterpolatingParam id="1639" interp="linr"  time="-9999999/1" value="20" leadInLength="0/1"   name="leftClickSize"/>
            <Parameter id="1640"   name="leftClickSoundFilename">
             <Keyframes>
             <Keyframe id="1641"  time="-9999999/1" value="" leadInLength="0/1"  />
             </Keyframes>
            </Parameter>
            <InterpolatingParam id="1642" interp="linr"  time="-9999999/1" value="1" leadInLength="0/1"   name="leftClickSoundVolume"/>
            <Parameter id="1643"   name="leftClickType">
             <Keyframes>
             <Keyframe id="1644"  time="-9999999/1" value="0" leadInLength="0/1"  />
             </Keyframes>
            </Parameter>
            <InterpolatingParam id="1645" interp="linr"  time="-9999999/1" value="1" leadInLength="0/1"   name="opacity"/>
            <InterpolatingParam id="1646" interp="linr"  time="-9999999/1" value="255" leadInLength="0/1"   name="rightClickColorBlue"/>
            <InterpolatingParam id="1647" interp="linr"  time="-9999999/1" value="0" leadInLength="0/1"   name="rightClickColorGreen"/>
            <InterpolatingParam id="1648" interp="linr"  time="-9999999/1" value="0" leadInLength="0/1"   name="rightClickColorRed"/>
            <InterpolatingParam id="1649" interp="linr"  time="-9999999/1" value="0.80000000000000004" leadInLength="0/1"   name="rightClickDuration"/>
            <InterpolatingParam id="1650" interp="linr"  time="-9999999/1" value="20" leadInLength="0/1"   name="rightClickSize"/>
            <Parameter id="1651"   name="rightClickSoundFilename">
             <Keyframes>
             <Keyframe id="1652"  time="-9999999/1" value="" leadInLength="0/1"  />
             </Keyframes>
            </Parameter>
            <InterpolatingParam id="1653" interp="linr"  time="-9999999/1" value="1" leadInLength="0/1"   name="rightClickSoundVolume"/>
            <Parameter id="1654"   name="rightClickType">
             <Keyframes>
             <Keyframe id="1655"  time="-9999999/1" value="0" leadInLength="0/1"  />
             </Keyframes>
            </Parameter>
            </Parameters>
            <MetaData>
             <entry key="effectIndex" val="0"/>
            </MetaData>
           </GenericEffect>
          </Effects>
          <Attributes>
           <Attribute id="1656" value="" name="ident"/>
          </Attributes>
          <ExtraData>
           <Entry key="ZoomPanBin">
            <ZoomPanBin id="1657"  >
             <ZoomPanKeyframes>
              <ZoomPanKeyframe id="1658" timeRangeEnd="-9999999/1" timeRangeDuration="0/1" interpolaterName="linr"  />
             </ZoomPanKeyframes>
            </ZoomPanBin>
           </Entry>
           <Entry key="CursorEffectBin">
            <CursorEffectBin id="1659"  >
             <CursorEffectKeyframes>
              <CursorEffectKeyframe id="1660" timeRangeEnd="-9999999/1" timeRangeDuration="0/1" interpolaterName=""  />
             </CursorEffectKeyframes>
            </CursorEffectBin>
           </Entry>
          </ExtraData>
         </ScreenVMFile>
         <MetaData>
          <entry key="AutoAppliedSmartFocus" val="False"/>
          <entry key="WinSubProjectDisplayName" val=""/>
         </MetaData>
        </UnifiedMedia>
        <UnifiedMedia id="1661"  >
         <AMFile id="1662" start="5613" duration="412" scalar="1/1" mediaStart="7272/1" mediaDuration="412/1" trackNumber="1" src="5" channelNumber="0,1" >
          <Parameters>
           <InterpolatingParam id="1663" interp="linr"  time="0/1" value="1" leadInLength="0/1"  name="volume"/>
           <Parameter id="1664"  name="captions"/>
          </Parameters>
          <Attributes>
           <Attribute id="1665" value="" name="ident"/>
           <Attribute id="1666" value="44100" name="sampleRate"/>
           <Attribute id="1667" value="16" name="bitDepth"/>
           <Attribute id="1668" value="1" name="gain"/>
           <Attribute id="1669" value="0" name="mixToMono"/>
          </Attributes>
         </AMFile>
         <ScreenVMFile id="1670" start="5613" duration="412" scalar="1/1" mediaStart="7272/1" mediaDuration="412/1" trackNumber="0" src="5" >
          <Transformer>
           <VectorParam id="1671"  name="translation">
            <InterpolatingParam id="1672" interp="linr"  time="-9999999/1" value="0" leadInLength="0/1"  />
            <InterpolatingParam id="1673" interp="linr"  time="-9999999/1" value="0" leadInLength="0/1"  />
            <InterpolatingParam id="1674" interp="linr"  time="-9999999/1" value="0" leadInLength="0/1"  />
           </VectorParam>
           <VectorParam id="1675"  name="rotation">
            <InterpolatingParam id="1676" interp="linr"  time="-9999999/1" value="0" leadInLength="0/1"  />
            <InterpolatingParam id="1677" interp="linr"  time="-9999999/1" value="0" leadInLength="0/1"  />
            <InterpolatingParam id="1678" interp="linr"  time="-9999999/1" value="0" leadInLength="0/1"  />
           </VectorParam>
           <VectorParam id="1679"  name="shear">
            <InterpolatingParam id="1680" interp="linr"  time="-9999999/1" value="0" leadInLength="0/1"  />
            <InterpolatingParam id="1681" interp="linr"  time="-9999999/1" value="0" leadInLength="0/1"  />
            <InterpolatingParam id="1682" interp="linr"  time="-9999999/1" value="0" leadInLength="0/1"  />
           </VectorParam>
           <VectorParam id="1683"  name="scale">
            <InterpolatingParam id="1684" interp="linr"  time="-9999999/1" value="0.625" leadInLength="0/1"  />
            <InterpolatingParam id="1685" interp="linr"  time="-9999999/1" value="0.625" leadInLength="0/1"  />
            <InterpolatingParam id="1686" interp="linr"  time="-9999999/1" value="1" leadInLength="0/1"  />
           </VectorParam>
           <VectorParam id="1687"  name="anchor">
            <InterpolatingParam id="1688" interp="linr"  time="0/1" value="0" leadInLength="0/1"  />
            <InterpolatingParam id="1689" interp="linr"  time="0/1" value="0" leadInLength="0/1"  />
            <InterpolatingParam id="1690" interp="linr"  time="0/1" value="0" leadInLength="0/1"  />
           </VectorParam>
          </Transformer>
          <Parameters>
           <VectorParam id="1691"  name="sourceCrop">
            <InterpolatingParam id="1692" interp="linr"  time="0/1" value="0" leadInLength="0/1"  />
            <InterpolatingParam id="1693" interp="linr"  time="0/1" value="0" leadInLength="0/1"  />
            <InterpolatingParam id="1694" interp="linr"  time="0/1" value="0" leadInLength="0/1"  />
            <InterpolatingParam id="1695" interp="linr"  time="0/1" value="0" leadInLength="0/1"  />
           </VectorParam>
           <VectorParam id="1696"  name="geometryCrop">
            <InterpolatingParam id="1697" interp="linr"  time="-9999999/1" value="0" leadInLength="0/1"  />
            <InterpolatingParam id="1698" interp="linr"  time="-9999999/1" value="0" leadInLength="0/1"  />
            <InterpolatingParam id="1699" interp="linr"  time="-9999999/1" value="0" leadInLength="0/1"  />
            <InterpolatingParam id="1700" interp="linr"  time="-9999999/1" value="0" leadInLength="0/1"  />
           </VectorParam>
           <InterpolatingParam id="1701" interp="linr"  time="-9999999/1" value="1" leadInLength="0/1"  name="opacity"/>
           <InterpolatingParam id="1702" interp="linr"  time="0/1" value="1" leadInLength="0/1"  name="cursorOpacity"/>
           <InterpolatingParam id="1703" interp="linr"  time="0/1" value="1" leadInLength="0/1"  name="cursorScale"/>
          </Parameters>
          <Effects>
           <GenericEffect id="1704" name = "CursorBaseEffectName" >
            <Parameters>
            <InterpolatingParam id="1705" interp="linr"  time="-9999999/1" value="1" leadInLength="0/1"   name="cursorSize"/>
            <InterpolatingParam id="1706" interp="linr"  time="-9999999/1" value="0" leadInLength="0/1"   name="highlightBlurRadius"/>
            <InterpolatingParam id="1707" interp="linr"  time="-9999999/1" value="0" leadInLength="0/1"   name="highlightColorBlue"/>
            <InterpolatingParam id="1708" interp="linr"  time="-9999999/1" value="255" leadInLength="0/1"   name="highlightColorGreen"/>
            <InterpolatingParam id="1709" interp="linr"  time="-9999999/1" value="255" leadInLength="0/1"   name="highlightColorRed"/>
            <InterpolatingParam id="1710" interp="linr"  time="-9999999/1" value="5" leadInLength="0/1"   name="highlightFeatherSize"/>
            <InterpolatingParam id="1711" interp="linr"  time="-9999999/1" value="2" leadInLength="0/1"   name="highlightMagnification"/>
            <InterpolatingParam id="1712" interp="linr"  time="-9999999/1" value="1" leadInLength="0/1"   name="highlightOpacity"/>
            <InterpolatingParam id="1713" interp="linr"  time="-9999999/1" value="45" leadInLength="0/1"   name="highlightSize"/>
            <Parameter id="1714"   name="highlightType">
             <Keyframes>
             <Keyframe id="1715"  time="-9999999/1" value="0" leadInLength="0/1"  />
             </Keyframes>
            </Parameter>
            <InterpolatingParam id="1716" interp="linr"  time="-9999999/1" value="0" leadInLength="0/1"   name="leftClickColorBlue"/>
            <InterpolatingParam id="1717" interp="linr"  time="-9999999/1" value="0" leadInLength="0/1"   name="leftClickColorGreen"/>
            <InterpolatingParam id="1718" interp="linr"  time="-9999999/1" value="255" leadInLength="0/1"   name="leftClickColorRed"/>
            <InterpolatingParam id="1719" interp="linr"  time="-9999999/1" value="0.80000000000000004" leadInLength="0/1"   name="leftClickDuration"/>
            <InterpolatingParam id="1720" interp="linr"  time="-9999999/1" value="20" leadInLength="0/1"   name="leftClickSize"/>
            <Parameter id="1721"   name="leftClickSoundFilename">
             <Keyframes>
             <Keyframe id="1722"  time="-9999999/1" value="" leadInLength="0/1"  />
             </Keyframes>
            </Parameter>
            <InterpolatingParam id="1723" interp="linr"  time="-9999999/1" value="1" leadInLength="0/1"   name="leftClickSoundVolume"/>
            <Parameter id="1724"   name="leftClickType">
             <Keyframes>
             <Keyframe id="1725"  time="-9999999/1" value="0" leadInLength="0/1"  />
             </Keyframes>
            </Parameter>
            <InterpolatingParam id="1726" interp="linr"  time="-9999999/1" value="1" leadInLength="0/1"   name="opacity"/>
            <InterpolatingParam id="1727" interp="linr"  time="-9999999/1" value="255" leadInLength="0/1"   name="rightClickColorBlue"/>
            <InterpolatingParam id="1728" interp="linr"  time="-9999999/1" value="0" leadInLength="0/1"   name="rightClickColorGreen"/>
            <InterpolatingParam id="1729" interp="linr"  time="-9999999/1" value="0" leadInLength="0/1"   name="rightClickColorRed"/>
            <InterpolatingParam id="1730" interp="linr"  time="-9999999/1" value="0.80000000000000004" leadInLength="0/1"   name="rightClickDuration"/>
            <InterpolatingParam id="1731" interp="linr"  time="-9999999/1" value="20" leadInLength="0/1"   name="rightClickSize"/>
            <Parameter id="1732"   name="rightClickSoundFilename">
             <Keyframes>
             <Keyframe id="1733"  time="-9999999/1" value="" leadInLength="0/1"  />
             </Keyframes>
            </Parameter>
            <InterpolatingParam id="1734" interp="linr"  time="-9999999/1" value="1" leadInLength="0/1"   name="rightClickSoundVolume"/>
            <Parameter id="1735"   name="rightClickType">
             <Keyframes>
             <Keyframe id="1736"  time="-9999999/1" value="0" leadInLength="0/1"  />
             </Keyframes>
            </Parameter>
            </Parameters>
            <MetaData>
             <entry key="effectIndex" val="0"/>
            </MetaData>
           </GenericEffect>
          </Effects>
          <Attributes>
           <Attribute id="1737" value="" name="ident"/>
          </Attributes>
          <ExtraData>
           <Entry key="ZoomPanBin">
            <ZoomPanBin id="1738"  >
             <ZoomPanKeyframes>
              <ZoomPanKeyframe id="1739" timeRangeEnd="-9999999/1" timeRangeDuration="0/1" interpolaterName="linr"  />
             </ZoomPanKeyframes>
            </ZoomPanBin>
           </Entry>
           <Entry key="CursorEffectBin">
            <CursorEffectBin id="1740"  >
             <CursorEffectKeyframes>
              <CursorEffectKeyframe id="1741" timeRangeEnd="-9999999/1" timeRangeDuration="0/1" interpolaterName=""  />
             </CursorEffectKeyframes>
            </CursorEffectBin>
           </Entry>
          </ExtraData>
         </ScreenVMFile>
         <MetaData>
          <entry key="AutoAppliedSmartFocus" val="False"/>
          <entry key="WinSubProjectDisplayName" val=""/>
         </MetaData>
        </UnifiedMedia>
        <UnifiedMedia id="1742"  >
         <AMFile id="1743" start="6025" duration="118" scalar="1/1" mediaStart="7763/1" mediaDuration="118/1" trackNumber="1" src="5" channelNumber="0,1" >
          <Parameters>
           <InterpolatingParam id="1744" interp="linr"  time="0/1" value="1" leadInLength="0/1"  name="volume"/>
           <Parameter id="1745"  name="captions"/>
          </Parameters>
          <Attributes>
           <Attribute id="1746" value="" name="ident"/>
           <Attribute id="1747" value="44100" name="sampleRate"/>
           <Attribute id="1748" value="16" name="bitDepth"/>
           <Attribute id="1749" value="1" name="gain"/>
           <Attribute id="1750" value="0" name="mixToMono"/>
          </Attributes>
         </AMFile>
         <ScreenVMFile id="1751" start="6025" duration="118" scalar="1/1" mediaStart="7763/1" mediaDuration="118/1" trackNumber="0" src="5" >
          <Transformer>
           <VectorParam id="1752"  name="translation">
            <InterpolatingParam id="1753" interp="linr"  time="-9999999/1" value="0" leadInLength="0/1"  />
            <InterpolatingParam id="1754" interp="linr"  time="-9999999/1" value="0" leadInLength="0/1"  />
            <InterpolatingParam id="1755" interp="linr"  time="-9999999/1" value="0" leadInLength="0/1"  />
           </VectorParam>
           <VectorParam id="1756"  name="rotation">
            <InterpolatingParam id="1757" interp="linr"  time="-9999999/1" value="0" leadInLength="0/1"  />
            <InterpolatingParam id="1758" interp="linr"  time="-9999999/1" value="0" leadInLength="0/1"  />
            <InterpolatingParam id="1759" interp="linr"  time="-9999999/1" value="0" leadInLength="0/1"  />
           </VectorParam>
           <VectorParam id="1760"  name="shear">
            <InterpolatingParam id="1761" interp="linr"  time="-9999999/1" value="0" leadInLength="0/1"  />
            <InterpolatingParam id="1762" interp="linr"  time="-9999999/1" value="0" leadInLength="0/1"  />
            <InterpolatingParam id="1763" interp="linr"  time="-9999999/1" value="0" leadInLength="0/1"  />
           </VectorParam>
           <VectorParam id="1764"  name="scale">
            <InterpolatingParam id="1765" interp="linr"  time="-9999999/1" value="0.625" leadInLength="0/1"  />
            <InterpolatingParam id="1766" interp="linr"  time="-9999999/1" value="0.625" leadInLength="0/1"  />
            <InterpolatingParam id="1767" interp="linr"  time="-9999999/1" value="1" leadInLength="0/1"  />
           </VectorParam>
           <VectorParam id="1768"  name="anchor">
            <InterpolatingParam id="1769" interp="linr"  time="0/1" value="0" leadInLength="0/1"  />
            <InterpolatingParam id="1770" interp="linr"  time="0/1" value="0" leadInLength="0/1"  />
            <InterpolatingParam id="1771" interp="linr"  time="0/1" value="0" leadInLength="0/1"  />
           </VectorParam>
          </Transformer>
          <Parameters>
           <VectorParam id="1772"  name="sourceCrop">
            <InterpolatingParam id="1773" interp="linr"  time="0/1" value="0" leadInLength="0/1"  />
            <InterpolatingParam id="1774" interp="linr"  time="0/1" value="0" leadInLength="0/1"  />
            <InterpolatingParam id="1775" interp="linr"  time="0/1" value="0" leadInLength="0/1"  />
            <InterpolatingParam id="1776" interp="linr"  time="0/1" value="0" leadInLength="0/1"  />
           </VectorParam>
           <VectorParam id="1777"  name="geometryCrop">
            <InterpolatingParam id="1778" interp="linr"  time="-9999999/1" value="0" leadInLength="0/1"  />
            <InterpolatingParam id="1779" interp="linr"  time="-9999999/1" value="0" leadInLength="0/1"  />
            <InterpolatingParam id="1780" interp="linr"  time="-9999999/1" value="0" leadInLength="0/1"  />
            <InterpolatingParam id="1781" interp="linr"  time="-9999999/1" value="0" leadInLength="0/1"  />
           </VectorParam>
           <InterpolatingParam id="1782" interp="linr"  time="-9999999/1" value="1" leadInLength="0/1"  name="opacity"/>
           <InterpolatingParam id="1783" interp="linr"  time="0/1" value="1" leadInLength="0/1"  name="cursorOpacity"/>
           <InterpolatingParam id="1784" interp="linr"  time="0/1" value="1" leadInLength="0/1"  name="cursorScale"/>
          </Parameters>
          <Effects>
           <GenericEffect id="1785" name = "CursorBaseEffectName" >
            <Parameters>
            <InterpolatingParam id="1786" interp="linr"  time="-9999999/1" value="1" leadInLength="0/1"   name="cursorSize"/>
            <InterpolatingParam id="1787" interp="linr"  time="-9999999/1" value="0" leadInLength="0/1"   name="highlightBlurRadius"/>
            <InterpolatingParam id="1788" interp="linr"  time="-9999999/1" value="0" leadInLength="0/1"   name="highlightColorBlue"/>
            <InterpolatingParam id="1789" interp="linr"  time="-9999999/1" value="255" leadInLength="0/1"   name="highlightColorGreen"/>
            <InterpolatingParam id="1790" interp="linr"  time="-9999999/1" value="255" leadInLength="0/1"   name="highlightColorRed"/>
            <InterpolatingParam id="1791" interp="linr"  time="-9999999/1" value="5" leadInLength="0/1"   name="highlightFeatherSize"/>
            <InterpolatingParam id="1792" interp="linr"  time="-9999999/1" value="2" leadInLength="0/1"   name="highlightMagnification"/>
            <InterpolatingParam id="1793" interp="linr"  time="-9999999/1" value="1" leadInLength="0/1"   name="highlightOpacity"/>
            <InterpolatingParam id="1794" interp="linr"  time="-9999999/1" value="45" leadInLength="0/1"   name="highlightSize"/>
            <Parameter id="1795"   name="highlightType">
             <Keyframes>
             <Keyframe id="1796"  time="-9999999/1" value="0" leadInLength="0/1"  />
             </Keyframes>
            </Parameter>
            <InterpolatingParam id="1797" interp="linr"  time="-9999999/1" value="0" leadInLength="0/1"   name="leftClickColorBlue"/>
            <InterpolatingParam id="1798" interp="linr"  time="-9999999/1" value="0" leadInLength="0/1"   name="leftClickColorGreen"/>
            <InterpolatingParam id="1799" interp="linr"  time="-9999999/1" value="255" leadInLength="0/1"   name="leftClickColorRed"/>
            <InterpolatingParam id="1800" interp="linr"  time="-9999999/1" value="0.80000000000000004" leadInLength="0/1"   name="leftClickDuration"/>
            <InterpolatingParam id="1801" interp="linr"  time="-9999999/1" value="20" leadInLength="0/1"   name="leftClickSize"/>
            <Parameter id="1802"   name="leftClickSoundFilename">
             <Keyframes>
             <Keyframe id="1803"  time="-9999999/1" value="" leadInLength="0/1"  />
             </Keyframes>
            </Parameter>
            <InterpolatingParam id="1804" interp="linr"  time="-9999999/1" value="1" leadInLength="0/1"   name="leftClickSoundVolume"/>
            <Parameter id="1805"   name="leftClickType">
             <Keyframes>
             <Keyframe id="1806"  time="-9999999/1" value="0" leadInLength="0/1"  />
             </Keyframes>
            </Parameter>
            <InterpolatingParam id="1807" interp="linr"  time="-9999999/1" value="1" leadInLength="0/1"   name="opacity"/>
            <InterpolatingParam id="1808" interp="linr"  time="-9999999/1" value="255" leadInLength="0/1"   name="rightClickColorBlue"/>
            <InterpolatingParam id="1809" interp="linr"  time="-9999999/1" value="0" leadInLength="0/1"   name="rightClickColorGreen"/>
            <InterpolatingParam id="1810" interp="linr"  time="-9999999/1" value="0" leadInLength="0/1"   name="rightClickColorRed"/>
            <InterpolatingParam id="1811" interp="linr"  time="-9999999/1" value="0.80000000000000004" leadInLength="0/1"   name="rightClickDuration"/>
            <InterpolatingParam id="1812" interp="linr"  time="-9999999/1" value="20" leadInLength="0/1"   name="rightClickSize"/>
            <Parameter id="1813"   name="rightClickSoundFilename">
             <Keyframes>
             <Keyframe id="1814"  time="-9999999/1" value="" leadInLength="0/1"  />
             </Keyframes>
            </Parameter>
            <InterpolatingParam id="1815" interp="linr"  time="-9999999/1" value="1" leadInLength="0/1"   name="rightClickSoundVolume"/>
            <Parameter id="1816"   name="rightClickType">
             <Keyframes>
             <Keyframe id="1817"  time="-9999999/1" value="0" leadInLength="0/1"  />
             </Keyframes>
            </Parameter>
            </Parameters>
            <MetaData>
             <entry key="effectIndex" val="0"/>
            </MetaData>
           </GenericEffect>
          </Effects>
          <Attributes>
           <Attribute id="1818" value="" name="ident"/>
          </Attributes>
          <ExtraData>
           <Entry key="ZoomPanBin">
            <ZoomPanBin id="1819"  >
             <ZoomPanKeyframes>
              <ZoomPanKeyframe id="1820" timeRangeEnd="-9999999/1" timeRangeDuration="0/1" interpolaterName="linr"  />
             </ZoomPanKeyframes>
            </ZoomPanBin>
           </Entry>
           <Entry key="CursorEffectBin">
            <CursorEffectBin id="1821"  >
             <CursorEffectKeyframes>
              <CursorEffectKeyframe id="1822" timeRangeEnd="-9999999/1" timeRangeDuration="0/1" interpolaterName=""  />
             </CursorEffectKeyframes>
            </CursorEffectBin>
           </Entry>
          </ExtraData>
         </ScreenVMFile>
         <MetaData>
          <entry key="AutoAppliedSmartFocus" val="False"/>
          <entry key="WinSubProjectDisplayName" val=""/>
         </MetaData>
        </UnifiedMedia>
        <UnifiedMedia id="1823"  >
         <AMFile id="1824" start="6143" duration="442" scalar="1/1" mediaStart="7973/1" mediaDuration="442/1" trackNumber="1" src="5" channelNumber="0,1" >
          <Parameters>
           <InterpolatingParam id="1825" interp="linr"  time="0/1" value="1" leadInLength="0/1"  name="volume"/>
           <Parameter id="1826"  name="captions"/>
          </Parameters>
          <Attributes>
           <Attribute id="1827" value="" name="ident"/>
           <Attribute id="1828" value="44100" name="sampleRate"/>
           <Attribute id="1829" value="16" name="bitDepth"/>
           <Attribute id="1830" value="1" name="gain"/>
           <Attribute id="1831" value="0" name="mixToMono"/>
          </Attributes>
         </AMFile>
         <ScreenVMFile id="1832" start="6143" duration="442" scalar="1/1" mediaStart="7973/1" mediaDuration="442/1" trackNumber="0" src="5" >
          <Transformer>
           <VectorParam id="1833"  name="translation">
            <InterpolatingParam id="1834" interp="linr"  time="-9999999/1" value="0" leadInLength="0/1"  />
            <InterpolatingParam id="1835" interp="linr"  time="-9999999/1" value="0" leadInLength="0/1"  />
            <InterpolatingParam id="1836" interp="linr"  time="-9999999/1" value="0" leadInLength="0/1"  />
           </VectorParam>
           <VectorParam id="1837"  name="rotation">
            <InterpolatingParam id="1838" interp="linr"  time="-9999999/1" value="0" leadInLength="0/1"  />
            <InterpolatingParam id="1839" interp="linr"  time="-9999999/1" value="0" leadInLength="0/1"  />
            <InterpolatingParam id="1840" interp="linr"  time="-9999999/1" value="0" leadInLength="0/1"  />
           </VectorParam>
           <VectorParam id="1841"  name="shear">
            <InterpolatingParam id="1842" interp="linr"  time="-9999999/1" value="0" leadInLength="0/1"  />
            <InterpolatingParam id="1843" interp="linr"  time="-9999999/1" value="0" leadInLength="0/1"  />
            <InterpolatingParam id="1844" interp="linr"  time="-9999999/1" value="0" leadInLength="0/1"  />
           </VectorParam>
           <VectorParam id="1845"  name="scale">
            <InterpolatingParam id="1846" interp="linr"  time="-9999999/1" value="0.625" leadInLength="0/1"  />
            <InterpolatingParam id="1847" interp="linr"  time="-9999999/1" value="0.625" leadInLength="0/1"  />
            <InterpolatingParam id="1848" interp="linr"  time="-9999999/1" value="1" leadInLength="0/1"  />
           </VectorParam>
           <VectorParam id="1849"  name="anchor">
            <InterpolatingParam id="1850" interp="linr"  time="0/1" value="0" leadInLength="0/1"  />
            <InterpolatingParam id="1851" interp="linr"  time="0/1" value="0" leadInLength="0/1"  />
            <InterpolatingParam id="1852" interp="linr"  time="0/1" value="0" leadInLength="0/1"  />
           </VectorParam>
          </Transformer>
          <Parameters>
           <VectorParam id="1853"  name="sourceCrop">
            <InterpolatingParam id="1854" interp="linr"  time="0/1" value="0" leadInLength="0/1"  />
            <InterpolatingParam id="1855" interp="linr"  time="0/1" value="0" leadInLength="0/1"  />
            <InterpolatingParam id="1856" interp="linr"  time="0/1" value="0" leadInLength="0/1"  />
            <InterpolatingParam id="1857" interp="linr"  time="0/1" value="0" leadInLength="0/1"  />
           </VectorParam>
           <VectorParam id="1858"  name="geometryCrop">
            <InterpolatingParam id="1859" interp="linr"  time="-9999999/1" value="0" leadInLength="0/1"  />
            <InterpolatingParam id="1860" interp="linr"  time="-9999999/1" value="0" leadInLength="0/1"  />
            <InterpolatingParam id="1861" interp="linr"  time="-9999999/1" value="0" leadInLength="0/1"  />
            <InterpolatingParam id="1862" interp="linr"  time="-9999999/1" value="0" leadInLength="0/1"  />
           </VectorParam>
           <InterpolatingParam id="1863" interp="linr"  time="-9999999/1" value="1" leadInLength="0/1"  name="opacity"/>
           <InterpolatingParam id="1864" interp="linr"  time="0/1" value="1" leadInLength="0/1"  name="cursorOpacity"/>
           <InterpolatingParam id="1865" interp="linr"  time="0/1" value="1" leadInLength="0/1"  name="cursorScale"/>
          </Parameters>
          <Effects>
           <GenericEffect id="1866" name = "CursorBaseEffectName" >
            <Parameters>
            <InterpolatingParam id="1867" interp="linr"  time="-9999999/1" value="1" leadInLength="0/1"   name="cursorSize"/>
            <InterpolatingParam id="1868" interp="linr"  time="-9999999/1" value="0" leadInLength="0/1"   name="highlightBlurRadius"/>
            <InterpolatingParam id="1869" interp="linr"  time="-9999999/1" value="0" leadInLength="0/1"   name="highlightColorBlue"/>
            <InterpolatingParam id="1870" interp="linr"  time="-9999999/1" value="255" leadInLength="0/1"   name="highlightColorGreen"/>
            <InterpolatingParam id="1871" interp="linr"  time="-9999999/1" value="255" leadInLength="0/1"   name="highlightColorRed"/>
            <InterpolatingParam id="1872" interp="linr"  time="-9999999/1" value="5" leadInLength="0/1"   name="highlightFeatherSize"/>
            <InterpolatingParam id="1873" interp="linr"  time="-9999999/1" value="2" leadInLength="0/1"   name="highlightMagnification"/>
            <InterpolatingParam id="1874" interp="linr"  time="-9999999/1" value="1" leadInLength="0/1"   name="highlightOpacity"/>
            <InterpolatingParam id="1875" interp="linr"  time="-9999999/1" value="45" leadInLength="0/1"   name="highlightSize"/>
            <Parameter id="1876"   name="highlightType">
             <Keyframes>
             <Keyframe id="1877"  time="-9999999/1" value="0" leadInLength="0/1"  />
             </Keyframes>
            </Parameter>
            <InterpolatingParam id="1878" interp="linr"  time="-9999999/1" value="0" leadInLength="0/1"   name="leftClickColorBlue"/>
            <InterpolatingParam id="1879" interp="linr"  time="-9999999/1" value="0" leadInLength="0/1"   name="leftClickColorGreen"/>
            <InterpolatingParam id="1880" interp="linr"  time="-9999999/1" value="255" leadInLength="0/1"   name="leftClickColorRed"/>
            <InterpolatingParam id="1881" interp="linr"  time="-9999999/1" value="0.80000000000000004" leadInLength="0/1"   name="leftClickDuration"/>
            <InterpolatingParam id="1882" interp="linr"  time="-9999999/1" value="20" leadInLength="0/1"   name="leftClickSize"/>
            <Parameter id="1883"   name="leftClickSoundFilename">
             <Keyframes>
             <Keyframe id="1884"  time="-9999999/1" value="" leadInLength="0/1"  />
             </Keyframes>
            </Parameter>
            <InterpolatingParam id="1885" interp="linr"  time="-9999999/1" value="1" leadInLength="0/1"   name="leftClickSoundVolume"/>
            <Parameter id="1886"   name="leftClickType">
             <Keyframes>
             <Keyframe id="1887"  time="-9999999/1" value="0" leadInLength="0/1"  />
             </Keyframes>
            </Parameter>
            <InterpolatingParam id="1888" interp="linr"  time="-9999999/1" value="1" leadInLength="0/1"   name="opacity"/>
            <InterpolatingParam id="1889" interp="linr"  time="-9999999/1" value="255" leadInLength="0/1"   name="rightClickColorBlue"/>
            <InterpolatingParam id="1890" interp="linr"  time="-9999999/1" value="0" leadInLength="0/1"   name="rightClickColorGreen"/>
            <InterpolatingParam id="1891" interp="linr"  time="-9999999/1" value="0" leadInLength="0/1"   name="rightClickColorRed"/>
            <InterpolatingParam id="1892" interp="linr"  time="-9999999/1" value="0.80000000000000004" leadInLength="0/1"   name="rightClickDuration"/>
            <InterpolatingParam id="1893" interp="linr"  time="-9999999/1" value="20" leadInLength="0/1"   name="rightClickSize"/>
            <Parameter id="1894"   name="rightClickSoundFilename">
             <Keyframes>
             <Keyframe id="1895"  time="-9999999/1" value="" leadInLength="0/1"  />
             </Keyframes>
            </Parameter>
            <InterpolatingParam id="1896" interp="linr"  time="-9999999/1" value="1" leadInLength="0/1"   name="rightClickSoundVolume"/>
            <Parameter id="1897"   name="rightClickType">
             <Keyframes>
             <Keyframe id="1898"  time="-9999999/1" value="0" leadInLength="0/1"  />
             </Keyframes>
            </Parameter>
            </Parameters>
            <MetaData>
             <entry key="effectIndex" val="0"/>
            </MetaData>
           </GenericEffect>
          </Effects>
          <Attributes>
           <Attribute id="1899" value="" name="ident"/>
          </Attributes>
          <ExtraData>
           <Entry key="ZoomPanBin">
            <ZoomPanBin id="1900"  >
             <ZoomPanKeyframes>
              <ZoomPanKeyframe id="1901" timeRangeEnd="-9999999/1" timeRangeDuration="0/1" interpolaterName="linr"  />
             </ZoomPanKeyframes>
            </ZoomPanBin>
           </Entry>
           <Entry key="CursorEffectBin">
            <CursorEffectBin id="1902"  >
             <CursorEffectKeyframes>
              <CursorEffectKeyframe id="1903" timeRangeEnd="-9999999/1" timeRangeDuration="0/1" interpolaterName=""  />
             </CursorEffectKeyframes>
            </CursorEffectBin>
           </Entry>
          </ExtraData>
         </ScreenVMFile>
         <MetaData>
          <entry key="AutoAppliedSmartFocus" val="False"/>
          <entry key="WinSubProjectDisplayName" val=""/>
         </MetaData>
        </UnifiedMedia>
        <UnifiedMedia id="1904"  >
         <AMFile id="1905" start="6585" duration="754" scalar="1/1" mediaStart="8600/1" mediaDuration="754/1" trackNumber="1" src="5" channelNumber="0,1" >
          <Parameters>
           <InterpolatingParam id="1906" interp="linr"  time="0/1" value="1" leadInLength="0/1"  name="volume"/>
           <Parameter id="1907"  name="captions"/>
          </Parameters>
          <Attributes>
           <Attribute id="1908" value="" name="ident"/>
           <Attribute id="1909" value="44100" name="sampleRate"/>
           <Attribute id="1910" value="16" name="bitDepth"/>
           <Attribute id="1911" value="1" name="gain"/>
           <Attribute id="1912" value="0" name="mixToMono"/>
          </Attributes>
         </AMFile>
         <ScreenVMFile id="1913" start="6585" duration="754" scalar="1/1" mediaStart="8600/1" mediaDuration="754/1" trackNumber="0" src="5" >
          <Transformer>
           <VectorParam id="1914"  name="translation">
            <InterpolatingParam id="1915" interp="linr"  time="-9999999/1" value="0" leadInLength="0/1"  />
            <InterpolatingParam id="1916" interp="linr"  time="-9999999/1" value="0" leadInLength="0/1"  />
            <InterpolatingParam id="1917" interp="linr"  time="-9999999/1" value="0" leadInLength="0/1"  />
           </VectorParam>
           <VectorParam id="1918"  name="rotation">
            <InterpolatingParam id="1919" interp="linr"  time="-9999999/1" value="0" leadInLength="0/1"  />
            <InterpolatingParam id="1920" interp="linr"  time="-9999999/1" value="0" leadInLength="0/1"  />
            <InterpolatingParam id="1921" interp="linr"  time="-9999999/1" value="0" leadInLength="0/1"  />
           </VectorParam>
           <VectorParam id="1922"  name="shear">
            <InterpolatingParam id="1923" interp="linr"  time="-9999999/1" value="0" leadInLength="0/1"  />
            <InterpolatingParam id="1924" interp="linr"  time="-9999999/1" value="0" leadInLength="0/1"  />
            <InterpolatingParam id="1925" interp="linr"  time="-9999999/1" value="0" leadInLength="0/1"  />
           </VectorParam>
           <VectorParam id="1926"  name="scale">
            <InterpolatingParam id="1927" interp="linr"  time="-9999999/1" value="0.625" leadInLength="0/1"  />
            <InterpolatingParam id="1928" interp="linr"  time="-9999999/1" value="0.625" leadInLength="0/1"  />
            <InterpolatingParam id="1929" interp="linr"  time="-9999999/1" value="1" leadInLength="0/1"  />
           </VectorParam>
           <VectorParam id="1930"  name="anchor">
            <InterpolatingParam id="1931" interp="linr"  time="0/1" value="0" leadInLength="0/1"  />
            <InterpolatingParam id="1932" interp="linr"  time="0/1" value="0" leadInLength="0/1"  />
            <InterpolatingParam id="1933" interp="linr"  time="0/1" value="0" leadInLength="0/1"  />
           </VectorParam>
          </Transformer>
          <Parameters>
           <VectorParam id="1934"  name="sourceCrop">
            <InterpolatingParam id="1935" interp="linr"  time="0/1" value="0" leadInLength="0/1"  />
            <InterpolatingParam id="1936" interp="linr"  time="0/1" value="0" leadInLength="0/1"  />
            <InterpolatingParam id="1937" interp="linr"  time="0/1" value="0" leadInLength="0/1"  />
            <InterpolatingParam id="1938" interp="linr"  time="0/1" value="0" leadInLength="0/1"  />
           </VectorParam>
           <VectorParam id="1939"  name="geometryCrop">
            <InterpolatingParam id="1940" interp="linr"  time="-9999999/1" value="0" leadInLength="0/1"  />
            <InterpolatingParam id="1941" interp="linr"  time="-9999999/1" value="0" leadInLength="0/1"  />
            <InterpolatingParam id="1942" interp="linr"  time="-9999999/1" value="0" leadInLength="0/1"  />
            <InterpolatingParam id="1943" interp="linr"  time="-9999999/1" value="0" leadInLength="0/1"  />
           </VectorParam>
           <InterpolatingParam id="1944" interp="linr"  time="-9999999/1" value="1" leadInLength="0/1"  name="opacity"/>
           <InterpolatingParam id="1945" interp="linr"  time="0/1" value="1" leadInLength="0/1"  name="cursorOpacity"/>
           <InterpolatingParam id="1946" interp="linr"  time="0/1" value="1" leadInLength="0/1"  name="cursorScale"/>
          </Parameters>
          <Effects>
           <GenericEffect id="1947" name = "CursorBaseEffectName" >
            <Parameters>
            <InterpolatingParam id="1948" interp="linr"  time="-9999999/1" value="1" leadInLength="0/1"   name="cursorSize"/>
            <InterpolatingParam id="1949" interp="linr"  time="-9999999/1" value="0" leadInLength="0/1"   name="highlightBlurRadius"/>
            <InterpolatingParam id="1950" interp="linr"  time="-9999999/1" value="0" leadInLength="0/1"   name="highlightColorBlue"/>
            <InterpolatingParam id="1951" interp="linr"  time="-9999999/1" value="255" leadInLength="0/1"   name="highlightColorGreen"/>
            <InterpolatingParam id="1952" interp="linr"  time="-9999999/1" value="255" leadInLength="0/1"   name="highlightColorRed"/>
            <InterpolatingParam id="1953" interp="linr"  time="-9999999/1" value="5" leadInLength="0/1"   name="highlightFeatherSize"/>
            <InterpolatingParam id="1954" interp="linr"  time="-9999999/1" value="2" leadInLength="0/1"   name="highlightMagnification"/>
            <InterpolatingParam id="1955" interp="linr"  time="-9999999/1" value="1" leadInLength="0/1"   name="highlightOpacity"/>
            <InterpolatingParam id="1956" interp="linr"  time="-9999999/1" value="45" leadInLength="0/1"   name="highlightSize"/>
            <Parameter id="1957"   name="highlightType">
             <Keyframes>
             <Keyframe id="1958"  time="-9999999/1" value="0" leadInLength="0/1"  />
             </Keyframes>
            </Parameter>
            <InterpolatingParam id="1959" interp="linr"  time="-9999999/1" value="0" leadInLength="0/1"   name="leftClickColorBlue"/>
            <InterpolatingParam id="1960" interp="linr"  time="-9999999/1" value="0" leadInLength="0/1"   name="leftClickColorGreen"/>
            <InterpolatingParam id="1961" interp="linr"  time="-9999999/1" value="255" leadInLength="0/1"   name="leftClickColorRed"/>
            <InterpolatingParam id="1962" interp="linr"  time="-9999999/1" value="0.80000000000000004" leadInLength="0/1"   name="leftClickDuration"/>
            <InterpolatingParam id="1963" interp="linr"  time="-9999999/1" value="20" leadInLength="0/1"   name="leftClickSize"/>
            <Parameter id="1964"   name="leftClickSoundFilename">
             <Keyframes>
             <Keyframe id="1965"  time="-9999999/1" value="" leadInLength="0/1"  />
             </Keyframes>
            </Parameter>
            <InterpolatingParam id="1966" interp="linr"  time="-9999999/1" value="1" leadInLength="0/1"   name="leftClickSoundVolume"/>
            <Parameter id="1967"   name="leftClickType">
             <Keyframes>
             <Keyframe id="1968"  time="-9999999/1" value="0" leadInLength="0/1"  />
             </Keyframes>
            </Parameter>
            <InterpolatingParam id="1969" interp="linr"  time="-9999999/1" value="1" leadInLength="0/1"   name="opacity"/>
            <InterpolatingParam id="1970" interp="linr"  time="-9999999/1" value="255" leadInLength="0/1"   name="rightClickColorBlue"/>
            <InterpolatingParam id="1971" interp="linr"  time="-9999999/1" value="0" leadInLength="0/1"   name="rightClickColorGreen"/>
            <InterpolatingParam id="1972" interp="linr"  time="-9999999/1" value="0" leadInLength="0/1"   name="rightClickColorRed"/>
            <InterpolatingParam id="1973" interp="linr"  time="-9999999/1" value="0.80000000000000004" leadInLength="0/1"   name="rightClickDuration"/>
            <InterpolatingParam id="1974" interp="linr"  time="-9999999/1" value="20" leadInLength="0/1"   name="rightClickSize"/>
            <Parameter id="1975"   name="rightClickSoundFilename">
             <Keyframes>
             <Keyframe id="1976"  time="-9999999/1" value="" leadInLength="0/1"  />
             </Keyframes>
            </Parameter>
            <InterpolatingParam id="1977" interp="linr"  time="-9999999/1" value="1" leadInLength="0/1"   name="rightClickSoundVolume"/>
            <Parameter id="1978"   name="rightClickType">
             <Keyframes>
             <Keyframe id="1979"  time="-9999999/1" value="0" leadInLength="0/1"  />
             </Keyframes>
            </Parameter>
            </Parameters>
            <MetaData>
             <entry key="effectIndex" val="0"/>
            </MetaData>
           </GenericEffect>
          </Effects>
          <Attributes>
           <Attribute id="1980" value="" name="ident"/>
          </Attributes>
          <ExtraData>
           <Entry key="ZoomPanBin">
            <ZoomPanBin id="1981"  >
             <ZoomPanKeyframes>
              <ZoomPanKeyframe id="1982" timeRangeEnd="-9999999/1" timeRangeDuration="0/1" interpolaterName="linr"  />
             </ZoomPanKeyframes>
            </ZoomPanBin>
           </Entry>
           <Entry key="CursorEffectBin">
            <CursorEffectBin id="1983"  >
             <CursorEffectKeyframes>
              <CursorEffectKeyframe id="1984" timeRangeEnd="-9999999/1" timeRangeDuration="0/1" interpolaterName=""  />
             </CursorEffectKeyframes>
            </CursorEffectBin>
           </Entry>
          </ExtraData>
         </ScreenVMFile>
         <MetaData>
          <entry key="AutoAppliedSmartFocus" val="False"/>
          <entry key="WinSubProjectDisplayName" val=""/>
         </MetaData>
        </UnifiedMedia>
        <UnifiedMedia id="1985"  >
         <AMFile id="1986" start="7339" duration="2051" scalar="1/1" mediaStart="14515/1" mediaDuration="2051/1" trackNumber="1" src="5" channelNumber="0,1" >
          <Parameters>
           <InterpolatingParam id="1987" interp="linr"  time="0/1" value="1" leadInLength="0/1"  name="volume"/>
           <Parameter id="1988"  name="captions"/>
          </Parameters>
          <Attributes>
           <Attribute id="1989" value="" name="ident"/>
           <Attribute id="1990" value="44100" name="sampleRate"/>
           <Attribute id="1991" value="16" name="bitDepth"/>
           <Attribute id="1992" value="1" name="gain"/>
           <Attribute id="1993" value="0" name="mixToMono"/>
          </Attributes>
         </AMFile>
         <ScreenVMFile id="1994" start="7339" duration="2051" scalar="1/1" mediaStart="14515/1" mediaDuration="2051/1" trackNumber="0" src="5" >
          <Transformer>
           <VectorParam id="1995"  name="translation">
            <InterpolatingParam id="1996" interp="linr"  time="-9999999/1" value="0" leadInLength="0/1"  />
            <InterpolatingParam id="1997" interp="linr"  time="-9999999/1" value="0" leadInLength="0/1"  />
            <InterpolatingParam id="1998" interp="linr"  time="-9999999/1" value="0" leadInLength="0/1"  />
           </VectorParam>
           <VectorParam id="1999"  name="rotation">
            <InterpolatingParam id="2000" interp="linr"  time="-9999999/1" value="0" leadInLength="0/1"  />
            <InterpolatingParam id="2001" interp="linr"  time="-9999999/1" value="0" leadInLength="0/1"  />
            <InterpolatingParam id="2002" interp="linr"  time="-9999999/1" value="0" leadInLength="0/1"  />
           </VectorParam>
           <VectorParam id="2003"  name="shear">
            <InterpolatingParam id="2004" interp="linr"  time="-9999999/1" value="0" leadInLength="0/1"  />
            <InterpolatingParam id="2005" interp="linr"  time="-9999999/1" value="0" leadInLength="0/1"  />
            <InterpolatingParam id="2006" interp="linr"  time="-9999999/1" value="0" leadInLength="0/1"  />
           </VectorParam>
           <VectorParam id="2007"  name="scale">
            <InterpolatingParam id="2008" interp="linr"  time="-9999999/1" value="0.625" leadInLength="0/1"  />
            <InterpolatingParam id="2009" interp="linr"  time="-9999999/1" value="0.625" leadInLength="0/1"  />
            <InterpolatingParam id="2010" interp="linr"  time="-9999999/1" value="1" leadInLength="0/1"  />
           </VectorParam>
           <VectorParam id="2011"  name="anchor">
            <InterpolatingParam id="2012" interp="linr"  time="0/1" value="0" leadInLength="0/1"  />
            <InterpolatingParam id="2013" interp="linr"  time="0/1" value="0" leadInLength="0/1"  />
            <InterpolatingParam id="2014" interp="linr"  time="0/1" value="0" leadInLength="0/1"  />
           </VectorParam>
          </Transformer>
          <Parameters>
           <VectorParam id="2015"  name="sourceCrop">
            <InterpolatingParam id="2016" interp="linr"  time="0/1" value="0" leadInLength="0/1"  />
            <InterpolatingParam id="2017" interp="linr"  time="0/1" value="0" leadInLength="0/1"  />
            <InterpolatingParam id="2018" interp="linr"  time="0/1" value="0" leadInLength="0/1"  />
            <InterpolatingParam id="2019" interp="linr"  time="0/1" value="0" leadInLength="0/1"  />
           </VectorParam>
           <VectorParam id="2020"  name="geometryCrop">
            <InterpolatingParam id="2021" interp="linr"  time="-9999999/1" value="0" leadInLength="0/1"  />
            <InterpolatingParam id="2022" interp="linr"  time="-9999999/1" value="0" leadInLength="0/1"  />
            <InterpolatingParam id="2023" interp="linr"  time="-9999999/1" value="0" leadInLength="0/1"  />
            <InterpolatingParam id="2024" interp="linr"  time="-9999999/1" value="0" leadInLength="0/1"  />
           </VectorParam>
           <InterpolatingParam id="2025" interp="linr"  time="-9999999/1" value="1" leadInLength="0/1"  name="opacity"/>
           <InterpolatingParam id="2026" interp="linr"  time="0/1" value="1" leadInLength="0/1"  name="cursorOpacity"/>
           <InterpolatingParam id="2027" interp="linr"  time="0/1" value="1" leadInLength="0/1"  name="cursorScale"/>
          </Parameters>
          <Effects>
           <GenericEffect id="2028" name = "CursorBaseEffectName" >
            <Parameters>
            <InterpolatingParam id="2029" interp="linr"  time="-9999999/1" value="1" leadInLength="0/1"   name="cursorSize"/>
            <InterpolatingParam id="2030" interp="linr"  time="-9999999/1" value="0" leadInLength="0/1"   name="highlightBlurRadius"/>
            <InterpolatingParam id="2031" interp="linr"  time="-9999999/1" value="0" leadInLength="0/1"   name="highlightColorBlue"/>
            <InterpolatingParam id="2032" interp="linr"  time="-9999999/1" value="255" leadInLength="0/1"   name="highlightColorGreen"/>
            <InterpolatingParam id="2033" interp="linr"  time="-9999999/1" value="255" leadInLength="0/1"   name="highlightColorRed"/>
            <InterpolatingParam id="2034" interp="linr"  time="-9999999/1" value="5" leadInLength="0/1"   name="highlightFeatherSize"/>
            <InterpolatingParam id="2035" interp="linr"  time="-9999999/1" value="2" leadInLength="0/1"   name="highlightMagnification"/>
            <InterpolatingParam id="2036" interp="linr"  time="-9999999/1" value="1" leadInLength="0/1"   name="highlightOpacity"/>
            <InterpolatingParam id="2037" interp="linr"  time="-9999999/1" value="45" leadInLength="0/1"   name="highlightSize"/>
            <Parameter id="2038"   name="highlightType">
             <Keyframes>
             <Keyframe id="2039"  time="-9999999/1" value="0" leadInLength="0/1"  />
             </Keyframes>
            </Parameter>
            <InterpolatingParam id="2040" interp="linr"  time="-9999999/1" value="0" leadInLength="0/1"   name="leftClickColorBlue"/>
            <InterpolatingParam id="2041" interp="linr"  time="-9999999/1" value="0" leadInLength="0/1"   name="leftClickColorGreen"/>
            <InterpolatingParam id="2042" interp="linr"  time="-9999999/1" value="255" leadInLength="0/1"   name="leftClickColorRed"/>
            <InterpolatingParam id="2043" interp="linr"  time="-9999999/1" value="0.80000000000000004" leadInLength="0/1"   name="leftClickDuration"/>
            <InterpolatingParam id="2044" interp="linr"  time="-9999999/1" value="20" leadInLength="0/1"   name="leftClickSize"/>
            <Parameter id="2045"   name="leftClickSoundFilename">
             <Keyframes>
             <Keyframe id="2046"  time="-9999999/1" value="" leadInLength="0/1"  />
             </Keyframes>
            </Parameter>
            <InterpolatingParam id="2047" interp="linr"  time="-9999999/1" value="1" leadInLength="0/1"   name="leftClickSoundVolume"/>
            <Parameter id="2048"   name="leftClickType">
             <Keyframes>
             <Keyframe id="2049"  time="-9999999/1" value="0" leadInLength="0/1"  />
             </Keyframes>
            </Parameter>
            <InterpolatingParam id="2050" interp="linr"  time="-9999999/1" value="1" leadInLength="0/1"   name="opacity"/>
            <InterpolatingParam id="2051" interp="linr"  time="-9999999/1" value="255" leadInLength="0/1"   name="rightClickColorBlue"/>
            <InterpolatingParam id="2052" interp="linr"  time="-9999999/1" value="0" leadInLength="0/1"   name="rightClickColorGreen"/>
            <InterpolatingParam id="2053" interp="linr"  time="-9999999/1" value="0" leadInLength="0/1"   name="rightClickColorRed"/>
            <InterpolatingParam id="2054" interp="linr"  time="-9999999/1" value="0.80000000000000004" leadInLength="0/1"   name="rightClickDuration"/>
            <InterpolatingParam id="2055" interp="linr"  time="-9999999/1" value="20" leadInLength="0/1"   name="rightClickSize"/>
            <Parameter id="2056"   name="rightClickSoundFilename">
             <Keyframes>
             <Keyframe id="2057"  time="-9999999/1" value="" leadInLength="0/1"  />
             </Keyframes>
            </Parameter>
            <InterpolatingParam id="2058" interp="linr"  time="-9999999/1" value="1" leadInLength="0/1"   name="rightClickSoundVolume"/>
            <Parameter id="2059"   name="rightClickType">
             <Keyframes>
             <Keyframe id="2060"  time="-9999999/1" value="0" leadInLength="0/1"  />
             </Keyframes>
            </Parameter>
            </Parameters>
            <MetaData>
             <entry key="effectIndex" val="0"/>
            </MetaData>
           </GenericEffect>
          </Effects>
          <Attributes>
           <Attribute id="2061" value="" name="ident"/>
          </Attributes>
          <ExtraData>
           <Entry key="ZoomPanBin">
            <ZoomPanBin id="2062"  >
             <ZoomPanKeyframes>
              <ZoomPanKeyframe id="2063" timeRangeEnd="-9999999/1" timeRangeDuration="0/1" interpolaterName="linr"  />
             </ZoomPanKeyframes>
            </ZoomPanBin>
           </Entry>
           <Entry key="CursorEffectBin">
            <CursorEffectBin id="2064"  >
             <CursorEffectKeyframes>
              <CursorEffectKeyframe id="2065" timeRangeEnd="-9999999/1" timeRangeDuration="0/1" interpolaterName=""  />
             </CursorEffectKeyframes>
            </CursorEffectBin>
           </Entry>
          </ExtraData>
         </ScreenVMFile>
         <MetaData>
          <entry key="AutoAppliedSmartFocus" val="False"/>
          <entry key="WinSubProjectDisplayName" val=""/>
         </MetaData>
        </UnifiedMedia>
        <UnifiedMedia id="2066"  >
         <AMFile id="2067" start="9390" duration="2120" scalar="1/1" mediaStart="18395/1" mediaDuration="2120/1" trackNumber="1" src="5" channelNumber="0,1" >
          <Parameters>
           <InterpolatingParam id="2068" interp="linr"  time="0/1" value="1" leadInLength="0/1"  name="volume"/>
           <Parameter id="2069"  name="captions"/>
          </Parameters>
          <Attributes>
           <Attribute id="2070" value="" name="ident"/>
           <Attribute id="2071" value="44100" name="sampleRate"/>
           <Attribute id="2072" value="16" name="bitDepth"/>
           <Attribute id="2073" value="1" name="gain"/>
           <Attribute id="2074" value="0" name="mixToMono"/>
          </Attributes>
         </AMFile>
         <ScreenVMFile id="2075" start="9390" duration="2120" scalar="1/1" mediaStart="18395/1" mediaDuration="2120/1" trackNumber="0" src="5" >
          <Transformer>
           <VectorParam id="2076"  name="translation">
            <InterpolatingParam id="2077" interp="linr"  time="-9999999/1" value="0" leadInLength="0/1"  />
            <InterpolatingParam id="2078" interp="linr"  time="-9999999/1" value="0" leadInLength="0/1"  />
            <InterpolatingParam id="2079" interp="linr"  time="-9999999/1" value="0" leadInLength="0/1"  />
           </VectorParam>
           <VectorParam id="2080"  name="rotation">
            <InterpolatingParam id="2081" interp="linr"  time="-9999999/1" value="0" leadInLength="0/1"  />
            <InterpolatingParam id="2082" interp="linr"  time="-9999999/1" value="0" leadInLength="0/1"  />
            <InterpolatingParam id="2083" interp="linr"  time="-9999999/1" value="0" leadInLength="0/1"  />
           </VectorParam>
           <VectorParam id="2084"  name="shear">
            <InterpolatingParam id="2085" interp="linr"  time="-9999999/1" value="0" leadInLength="0/1"  />
            <InterpolatingParam id="2086" interp="linr"  time="-9999999/1" value="0" leadInLength="0/1"  />
            <InterpolatingParam id="2087" interp="linr"  time="-9999999/1" value="0" leadInLength="0/1"  />
           </VectorParam>
           <VectorParam id="2088"  name="scale">
            <InterpolatingParam id="2089" interp="linr"  time="-9999999/1" value="0.625" leadInLength="0/1"  />
            <InterpolatingParam id="2090" interp="linr"  time="-9999999/1" value="0.625" leadInLength="0/1"  />
            <InterpolatingParam id="2091" interp="linr"  time="-9999999/1" value="1" leadInLength="0/1"  />
           </VectorParam>
           <VectorParam id="2092"  name="anchor">
            <InterpolatingParam id="2093" interp="linr"  time="0/1" value="0" leadInLength="0/1"  />
            <InterpolatingParam id="2094" interp="linr"  time="0/1" value="0" leadInLength="0/1"  />
            <InterpolatingParam id="2095" interp="linr"  time="0/1" value="0" leadInLength="0/1"  />
           </VectorParam>
          </Transformer>
          <Parameters>
           <VectorParam id="2096"  name="sourceCrop">
            <InterpolatingParam id="2097" interp="linr"  time="0/1" value="0" leadInLength="0/1"  />
            <InterpolatingParam id="2098" interp="linr"  time="0/1" value="0" leadInLength="0/1"  />
            <InterpolatingParam id="2099" interp="linr"  time="0/1" value="0" leadInLength="0/1"  />
            <InterpolatingParam id="2100" interp="linr"  time="0/1" value="0" leadInLength="0/1"  />
           </VectorParam>
           <VectorParam id="2101"  name="geometryCrop">
            <InterpolatingParam id="2102" interp="linr"  time="-9999999/1" value="0" leadInLength="0/1"  />
            <InterpolatingParam id="2103" interp="linr"  time="-9999999/1" value="0" leadInLength="0/1"  />
            <InterpolatingParam id="2104" interp="linr"  time="-9999999/1" value="0" leadInLength="0/1"  />
            <InterpolatingParam id="2105" interp="linr"  time="-9999999/1" value="0" leadInLength="0/1"  />
           </VectorParam>
           <InterpolatingParam id="2106" interp="linr"  time="-9999999/1" value="1" leadInLength="0/1"  name="opacity"/>
           <InterpolatingParam id="2107" interp="linr"  time="0/1" value="1" leadInLength="0/1"  name="cursorOpacity"/>
           <InterpolatingParam id="2108" interp="linr"  time="0/1" value="1" leadInLength="0/1"  name="cursorScale"/>
          </Parameters>
          <Effects>
           <GenericEffect id="2109" name = "CursorBaseEffectName" >
            <Parameters>
            <InterpolatingParam id="2110" interp="linr"  time="-9999999/1" value="1" leadInLength="0/1"   name="cursorSize"/>
            <InterpolatingParam id="2111" interp="linr"  time="-9999999/1" value="0" leadInLength="0/1"   name="highlightBlurRadius"/>
            <InterpolatingParam id="2112" interp="linr"  time="-9999999/1" value="0" leadInLength="0/1"   name="highlightColorBlue"/>
            <InterpolatingParam id="2113" interp="linr"  time="-9999999/1" value="255" leadInLength="0/1"   name="highlightColorGreen"/>
            <InterpolatingParam id="2114" interp="linr"  time="-9999999/1" value="255" leadInLength="0/1"   name="highlightColorRed"/>
            <InterpolatingParam id="2115" interp="linr"  time="-9999999/1" value="5" leadInLength="0/1"   name="highlightFeatherSize"/>
            <InterpolatingParam id="2116" interp="linr"  time="-9999999/1" value="2" leadInLength="0/1"   name="highlightMagnification"/>
            <InterpolatingParam id="2117" interp="linr"  time="-9999999/1" value="1" leadInLength="0/1"   name="highlightOpacity"/>
            <InterpolatingParam id="2118" interp="linr"  time="-9999999/1" value="45" leadInLength="0/1"   name="highlightSize"/>
            <Parameter id="2119"   name="highlightType">
             <Keyframes>
             <Keyframe id="2120"  time="-9999999/1" value="0" leadInLength="0/1"  />
             </Keyframes>
            </Parameter>
            <InterpolatingParam id="2121" interp="linr"  time="-9999999/1" value="0" leadInLength="0/1"   name="leftClickColorBlue"/>
            <InterpolatingParam id="2122" interp="linr"  time="-9999999/1" value="0" leadInLength="0/1"   name="leftClickColorGreen"/>
            <InterpolatingParam id="2123" interp="linr"  time="-9999999/1" value="255" leadInLength="0/1"   name="leftClickColorRed"/>
            <InterpolatingParam id="2124" interp="linr"  time="-9999999/1" value="0.80000000000000004" leadInLength="0/1"   name="leftClickDuration"/>
            <InterpolatingParam id="2125" interp="linr"  time="-9999999/1" value="20" leadInLength="0/1"   name="leftClickSize"/>
            <Parameter id="2126"   name="leftClickSoundFilename">
             <Keyframes>
             <Keyframe id="2127"  time="-9999999/1" value="" leadInLength="0/1"  />
             </Keyframes>
            </Parameter>
            <InterpolatingParam id="2128" interp="linr"  time="-9999999/1" value="1" leadInLength="0/1"   name="leftClickSoundVolume"/>
            <Parameter id="2129"   name="leftClickType">
             <Keyframes>
             <Keyframe id="2130"  time="-9999999/1" value="0" leadInLength="0/1"  />
             </Keyframes>
            </Parameter>
            <InterpolatingParam id="2131" interp="linr"  time="-9999999/1" value="1" leadInLength="0/1"   name="opacity"/>
            <InterpolatingParam id="2132" interp="linr"  time="-9999999/1" value="255" leadInLength="0/1"   name="rightClickColorBlue"/>
            <InterpolatingParam id="2133" interp="linr"  time="-9999999/1" value="0" leadInLength="0/1"   name="rightClickColorGreen"/>
            <InterpolatingParam id="2134" interp="linr"  time="-9999999/1" value="0" leadInLength="0/1"   name="rightClickColorRed"/>
            <InterpolatingParam id="2135" interp="linr"  time="-9999999/1" value="0.80000000000000004" leadInLength="0/1"   name="rightClickDuration"/>
            <InterpolatingParam id="2136" interp="linr"  time="-9999999/1" value="20" leadInLength="0/1"   name="rightClickSize"/>
            <Parameter id="2137"   name="rightClickSoundFilename">
             <Keyframes>
             <Keyframe id="2138"  time="-9999999/1" value="" leadInLength="0/1"  />
             </Keyframes>
            </Parameter>
            <InterpolatingParam id="2139" interp="linr"  time="-9999999/1" value="1" leadInLength="0/1"   name="rightClickSoundVolume"/>
            <Parameter id="2140"   name="rightClickType">
             <Keyframes>
             <Keyframe id="2141"  time="-9999999/1" value="0" leadInLength="0/1"  />
             </Keyframes>
            </Parameter>
            </Parameters>
            <MetaData>
             <entry key="effectIndex" val="0"/>
            </MetaData>
           </GenericEffect>
          </Effects>
          <Attributes>
           <Attribute id="2142" value="" name="ident"/>
          </Attributes>
          <ExtraData>
           <Entry key="ZoomPanBin">
            <ZoomPanBin id="2143"  >
             <ZoomPanKeyframes>
              <ZoomPanKeyframe id="2144" timeRangeEnd="-9999999/1" timeRangeDuration="0/1" interpolaterName="linr"  />
             </ZoomPanKeyframes>
            </ZoomPanBin>
           </Entry>
           <Entry key="CursorEffectBin">
            <CursorEffectBin id="2145"  >
             <CursorEffectKeyframes>
              <CursorEffectKeyframe id="2146" timeRangeEnd="-9999999/1" timeRangeDuration="0/1" interpolaterName=""  />
             </CursorEffectKeyframes>
            </CursorEffectBin>
           </Entry>
          </ExtraData>
         </ScreenVMFile>
         <MetaData>
          <entry key="AutoAppliedSmartFocus" val="False"/>
          <entry key="WinSubProjectDisplayName" val=""/>
         </MetaData>
        </UnifiedMedia>
        <UnifiedMedia id="2147"  >
         <AMFile id="2148" start="11510" duration="1189" scalar="1/1" mediaStart="21805/1" mediaDuration="1189/1" trackNumber="1" src="5" channelNumber="0,1" >
          <Parameters>
           <InterpolatingParam id="2149" interp="linr"  time="0/1" value="1" leadInLength="0/1"  name="volume"/>
           <Parameter id="2150"  name="captions"/>
          </Parameters>
          <Attributes>
           <Attribute id="2151" value="" name="ident"/>
           <Attribute id="2152" value="44100" name="sampleRate"/>
           <Attribute id="2153" value="16" name="bitDepth"/>
           <Attribute id="2154" value="1" name="gain"/>
           <Attribute id="2155" value="0" name="mixToMono"/>
          </Attributes>
         </AMFile>
         <ScreenVMFile id="2156" start="11510" duration="1189" scalar="1/1" mediaStart="21805/1" mediaDuration="1189/1" trackNumber="0" src="5" >
          <Transformer>
           <VectorParam id="2157"  name="translation">
            <InterpolatingParam id="2158" interp="linr"  time="-9999999/1" value="0" leadInLength="0/1"  />
            <InterpolatingParam id="2159" interp="linr"  time="-9999999/1" value="0" leadInLength="0/1"  />
            <InterpolatingParam id="2160" interp="linr"  time="-9999999/1" value="0" leadInLength="0/1"  />
           </VectorParam>
           <VectorParam id="2161"  name="rotation">
            <InterpolatingParam id="2162" interp="linr"  time="-9999999/1" value="0" leadInLength="0/1"  />
            <InterpolatingParam id="2163" interp="linr"  time="-9999999/1" value="0" leadInLength="0/1"  />
            <InterpolatingParam id="2164" interp="linr"  time="-9999999/1" value="0" leadInLength="0/1"  />
           </VectorParam>
           <VectorParam id="2165"  name="shear">
            <InterpolatingParam id="2166" interp="linr"  time="-9999999/1" value="0" leadInLength="0/1"  />
            <InterpolatingParam id="2167" interp="linr"  time="-9999999/1" value="0" leadInLength="0/1"  />
            <InterpolatingParam id="2168" interp="linr"  time="-9999999/1" value="0" leadInLength="0/1"  />
           </VectorParam>
           <VectorParam id="2169"  name="scale">
            <InterpolatingParam id="2170" interp="linr"  time="-9999999/1" value="0.625" leadInLength="0/1"  />
            <InterpolatingParam id="2171" interp="linr"  time="-9999999/1" value="0.625" leadInLength="0/1"  />
            <InterpolatingParam id="2172" interp="linr"  time="-9999999/1" value="1" leadInLength="0/1"  />
           </VectorParam>
           <VectorParam id="2173"  name="anchor">
            <InterpolatingParam id="2174" interp="linr"  time="0/1" value="0" leadInLength="0/1"  />
            <InterpolatingParam id="2175" interp="linr"  time="0/1" value="0" leadInLength="0/1"  />
            <InterpolatingParam id="2176" interp="linr"  time="0/1" value="0" leadInLength="0/1"  />
           </VectorParam>
          </Transformer>
          <Parameters>
           <VectorParam id="2177"  name="sourceCrop">
            <InterpolatingParam id="2178" interp="linr"  time="0/1" value="0" leadInLength="0/1"  />
            <InterpolatingParam id="2179" interp="linr"  time="0/1" value="0" leadInLength="0/1"  />
            <InterpolatingParam id="2180" interp="linr"  time="0/1" value="0" leadInLength="0/1"  />
            <InterpolatingParam id="2181" interp="linr"  time="0/1" value="0" leadInLength="0/1"  />
           </VectorParam>
           <VectorParam id="2182"  name="geometryCrop">
            <InterpolatingParam id="2183" interp="linr"  time="-9999999/1" value="0" leadInLength="0/1"  />
            <InterpolatingParam id="2184" interp="linr"  time="-9999999/1" value="0" leadInLength="0/1"  />
            <InterpolatingParam id="2185" interp="linr"  time="-9999999/1" value="0" leadInLength="0/1"  />
            <InterpolatingParam id="2186" interp="linr"  time="-9999999/1" value="0" leadInLength="0/1"  />
           </VectorParam>
           <InterpolatingParam id="2187" interp="linr"  time="-9999999/1" value="1" leadInLength="0/1"  name="opacity"/>
           <InterpolatingParam id="2188" interp="linr"  time="0/1" value="1" leadInLength="0/1"  name="cursorOpacity"/>
           <InterpolatingParam id="2189" interp="linr"  time="0/1" value="1" leadInLength="0/1"  name="cursorScale"/>
          </Parameters>
          <Effects>
           <GenericEffect id="2190" name = "CursorBaseEffectName" >
            <Parameters>
            <InterpolatingParam id="2191" interp="linr"  time="-9999999/1" value="1" leadInLength="0/1"   name="cursorSize"/>
            <InterpolatingParam id="2192" interp="linr"  time="-9999999/1" value="0" leadInLength="0/1"   name="highlightBlurRadius"/>
            <InterpolatingParam id="2193" interp="linr"  time="-9999999/1" value="0" leadInLength="0/1"   name="highlightColorBlue"/>
            <InterpolatingParam id="2194" interp="linr"  time="-9999999/1" value="255" leadInLength="0/1"   name="highlightColorGreen"/>
            <InterpolatingParam id="2195" interp="linr"  time="-9999999/1" value="255" leadInLength="0/1"   name="highlightColorRed"/>
            <InterpolatingParam id="2196" interp="linr"  time="-9999999/1" value="5" leadInLength="0/1"   name="highlightFeatherSize"/>
            <InterpolatingParam id="2197" interp="linr"  time="-9999999/1" value="2" leadInLength="0/1"   name="highlightMagnification"/>
            <InterpolatingParam id="2198" interp="linr"  time="-9999999/1" value="1" leadInLength="0/1"   name="highlightOpacity"/>
            <InterpolatingParam id="2199" interp="linr"  time="-9999999/1" value="45" leadInLength="0/1"   name="highlightSize"/>
            <Parameter id="2200"   name="highlightType">
             <Keyframes>
             <Keyframe id="2201"  time="-9999999/1" value="0" leadInLength="0/1"  />
             </Keyframes>
            </Parameter>
            <InterpolatingParam id="2202" interp="linr"  time="-9999999/1" value="0" leadInLength="0/1"   name="leftClickColorBlue"/>
            <InterpolatingParam id="2203" interp="linr"  time="-9999999/1" value="0" leadInLength="0/1"   name="leftClickColorGreen"/>
            <InterpolatingParam id="2204" interp="linr"  time="-9999999/1" value="255" leadInLength="0/1"   name="leftClickColorRed"/>
            <InterpolatingParam id="2205" interp="linr"  time="-9999999/1" value="0.80000000000000004" leadInLength="0/1"   name="leftClickDuration"/>
            <InterpolatingParam id="2206" interp="linr"  time="-9999999/1" value="20" leadInLength="0/1"   name="leftClickSize"/>
            <Parameter id="2207"   name="leftClickSoundFilename">
             <Keyframes>
             <Keyframe id="2208"  time="-9999999/1" value="" leadInLength="0/1"  />
             </Keyframes>
            </Parameter>
            <InterpolatingParam id="2209" interp="linr"  time="-9999999/1" value="1" leadInLength="0/1"   name="leftClickSoundVolume"/>
            <Parameter id="2210"   name="leftClickType">
             <Keyframes>
             <Keyframe id="2211"  time="-9999999/1" value="0" leadInLength="0/1"  />
             </Keyframes>
            </Parameter>
            <InterpolatingParam id="2212" interp="linr"  time="-9999999/1" value="1" leadInLength="0/1"   name="opacity"/>
            <InterpolatingParam id="2213" interp="linr"  time="-9999999/1" value="255" leadInLength="0/1"   name="rightClickColorBlue"/>
            <InterpolatingParam id="2214" interp="linr"  time="-9999999/1" value="0" leadInLength="0/1"   name="rightClickColorGreen"/>
            <InterpolatingParam id="2215" interp="linr"  time="-9999999/1" value="0" leadInLength="0/1"   name="rightClickColorRed"/>
            <InterpolatingParam id="2216" interp="linr"  time="-9999999/1" value="0.80000000000000004" leadInLength="0/1"   name="rightClickDuration"/>
            <InterpolatingParam id="2217" interp="linr"  time="-9999999/1" value="20" leadInLength="0/1"   name="rightClickSize"/>
            <Parameter id="2218"   name="rightClickSoundFilename">
             <Keyframes>
             <Keyframe id="2219"  time="-9999999/1" value="" leadInLength="0/1"  />
             </Keyframes>
            </Parameter>
            <InterpolatingParam id="2220" interp="linr"  time="-9999999/1" value="1" leadInLength="0/1"   name="rightClickSoundVolume"/>
            <Parameter id="2221"   name="rightClickType">
             <Keyframes>
             <Keyframe id="2222"  time="-9999999/1" value="0" leadInLength="0/1"  />
             </Keyframes>
            </Parameter>
            </Parameters>
            <MetaData>
             <entry key="effectIndex" val="0"/>
            </MetaData>
           </GenericEffect>
          </Effects>
          <Attributes>
           <Attribute id="2223" value="" name="ident"/>
          </Attributes>
          <ExtraData>
           <Entry key="ZoomPanBin">
            <ZoomPanBin id="2224"  >
             <ZoomPanKeyframes>
              <ZoomPanKeyframe id="2225" timeRangeEnd="-9999999/1" timeRangeDuration="0/1" interpolaterName="linr"  />
             </ZoomPanKeyframes>
            </ZoomPanBin>
           </Entry>
           <Entry key="CursorEffectBin">
            <CursorEffectBin id="2226"  >
             <CursorEffectKeyframes>
              <CursorEffectKeyframe id="2227" timeRangeEnd="-9999999/1" timeRangeDuration="0/1" interpolaterName=""  />
             </CursorEffectKeyframes>
            </CursorEffectBin>
           </Entry>
          </ExtraData>
         </ScreenVMFile>
         <MetaData>
          <entry key="AutoAppliedSmartFocus" val="False"/>
          <entry key="WinSubProjectDisplayName" val=""/>
         </MetaData>
        </UnifiedMedia>
        <UnifiedMedia id="2228"  >
         <AMFile id="2229" start="12699" duration="1802" scalar="1/1" mediaStart="25975/1" mediaDuration="1802/1" trackNumber="1" src="5" channelNumber="0,1" >
          <Parameters>
           <InterpolatingParam id="2230" interp="linr"  time="0/1" value="1" leadInLength="0/1"  name="volume"/>
           <Parameter id="2231"  name="captions"/>
          </Parameters>
          <Attributes>
           <Attribute id="2232" value="" name="ident"/>
           <Attribute id="2233" value="44100" name="sampleRate"/>
           <Attribute id="2234" value="16" name="bitDepth"/>
           <Attribute id="2235" value="1" name="gain"/>
           <Attribute id="2236" value="0" name="mixToMono"/>
          </Attributes>
         </AMFile>
         <ScreenVMFile id="2237" start="12699" duration="1802" scalar="1/1" mediaStart="25975/1" mediaDuration="1802/1" trackNumber="0" src="5" >
          <Transformer>
           <VectorParam id="2238"  name="translation">
            <InterpolatingParam id="2239" interp="linr"  time="-9999999/1" value="0" leadInLength="0/1"  />
            <InterpolatingParam id="2240" interp="linr"  time="-9999999/1" value="0" leadInLength="0/1"  />
            <InterpolatingParam id="2241" interp="linr"  time="-9999999/1" value="0" leadInLength="0/1"  />
           </VectorParam>
           <VectorParam id="2242"  name="rotation">
            <InterpolatingParam id="2243" interp="linr"  time="-9999999/1" value="0" leadInLength="0/1"  />
            <InterpolatingParam id="2244" interp="linr"  time="-9999999/1" value="0" leadInLength="0/1"  />
            <InterpolatingParam id="2245" interp="linr"  time="-9999999/1" value="0" leadInLength="0/1"  />
           </VectorParam>
           <VectorParam id="2246"  name="shear">
            <InterpolatingParam id="2247" interp="linr"  time="-9999999/1" value="0" leadInLength="0/1"  />
            <InterpolatingParam id="2248" interp="linr"  time="-9999999/1" value="0" leadInLength="0/1"  />
            <InterpolatingParam id="2249" interp="linr"  time="-9999999/1" value="0" leadInLength="0/1"  />
           </VectorParam>
           <VectorParam id="2250"  name="scale">
            <InterpolatingParam id="2251" interp="linr"  time="-9999999/1" value="0.625" leadInLength="0/1"  />
            <InterpolatingParam id="2252" interp="linr"  time="-9999999/1" value="0.625" leadInLength="0/1"  />
            <InterpolatingParam id="2253" interp="linr"  time="-9999999/1" value="1" leadInLength="0/1"  />
           </VectorParam>
           <VectorParam id="2254"  name="anchor">
            <InterpolatingParam id="2255" interp="linr"  time="0/1" value="0" leadInLength="0/1"  />
            <InterpolatingParam id="2256" interp="linr"  time="0/1" value="0" leadInLength="0/1"  />
            <InterpolatingParam id="2257" interp="linr"  time="0/1" value="0" leadInLength="0/1"  />
           </VectorParam>
          </Transformer>
          <Parameters>
           <VectorParam id="2258"  name="sourceCrop">
            <InterpolatingParam id="2259" interp="linr"  time="0/1" value="0" leadInLength="0/1"  />
            <InterpolatingParam id="2260" interp="linr"  time="0/1" value="0" leadInLength="0/1"  />
            <InterpolatingParam id="2261" interp="linr"  time="0/1" value="0" leadInLength="0/1"  />
            <InterpolatingParam id="2262" interp="linr"  time="0/1" value="0" leadInLength="0/1"  />
           </VectorParam>
           <VectorParam id="2263"  name="geometryCrop">
            <InterpolatingParam id="2264" interp="linr"  time="-9999999/1" value="0" leadInLength="0/1"  />
            <InterpolatingParam id="2265" interp="linr"  time="-9999999/1" value="0" leadInLength="0/1"  />
            <InterpolatingParam id="2266" interp="linr"  time="-9999999/1" value="0" leadInLength="0/1"  />
            <InterpolatingParam id="2267" interp="linr"  time="-9999999/1" value="0" leadInLength="0/1"  />
           </VectorParam>
           <InterpolatingParam id="2268" interp="linr"  time="-9999999/1" value="1" leadInLength="0/1"  name="opacity"/>
           <InterpolatingParam id="2269" interp="linr"  time="0/1" value="1" leadInLength="0/1"  name="cursorOpacity"/>
           <InterpolatingParam id="2270" interp="linr"  time="0/1" value="1" leadInLength="0/1"  name="cursorScale"/>
          </Parameters>
          <Effects>
           <GenericEffect id="2271" name = "CursorBaseEffectName" >
            <Parameters>
            <InterpolatingParam id="2272" interp="linr"  time="-9999999/1" value="1" leadInLength="0/1"   name="cursorSize"/>
            <InterpolatingParam id="2273" interp="linr"  time="-9999999/1" value="0" leadInLength="0/1"   name="highlightBlurRadius"/>
            <InterpolatingParam id="2274" interp="linr"  time="-9999999/1" value="0" leadInLength="0/1"   name="highlightColorBlue"/>
            <InterpolatingParam id="2275" interp="linr"  time="-9999999/1" value="255" leadInLength="0/1"   name="highlightColorGreen"/>
            <InterpolatingParam id="2276" interp="linr"  time="-9999999/1" value="255" leadInLength="0/1"   name="highlightColorRed"/>
            <InterpolatingParam id="2277" interp="linr"  time="-9999999/1" value="5" leadInLength="0/1"   name="highlightFeatherSize"/>
            <InterpolatingParam id="2278" interp="linr"  time="-9999999/1" value="2" leadInLength="0/1"   name="highlightMagnification"/>
            <InterpolatingParam id="2279" interp="linr"  time="-9999999/1" value="1" leadInLength="0/1"   name="highlightOpacity"/>
            <InterpolatingParam id="2280" interp="linr"  time="-9999999/1" value="45" leadInLength="0/1"   name="highlightSize"/>
            <Parameter id="2281"   name="highlightType">
             <Keyframes>
             <Keyframe id="2282"  time="-9999999/1" value="0" leadInLength="0/1"  />
             </Keyframes>
            </Parameter>
            <InterpolatingParam id="2283" interp="linr"  time="-9999999/1" value="0" leadInLength="0/1"   name="leftClickColorBlue"/>
            <InterpolatingParam id="2284" interp="linr"  time="-9999999/1" value="0" leadInLength="0/1"   name="leftClickColorGreen"/>
            <InterpolatingParam id="2285" interp="linr"  time="-9999999/1" value="255" leadInLength="0/1"   name="leftClickColorRed"/>
            <InterpolatingParam id="2286" interp="linr"  time="-9999999/1" value="0.80000000000000004" leadInLength="0/1"   name="leftClickDuration"/>
            <InterpolatingParam id="2287" interp="linr"  time="-9999999/1" value="20" leadInLength="0/1"   name="leftClickSize"/>
            <Parameter id="2288"   name="leftClickSoundFilename">
             <Keyframes>
             <Keyframe id="2289"  time="-9999999/1" value="" leadInLength="0/1"  />
             </Keyframes>
            </Parameter>
            <InterpolatingParam id="2290" interp="linr"  time="-9999999/1" value="1" leadInLength="0/1"   name="leftClickSoundVolume"/>
            <Parameter id="2291"   name="leftClickType">
             <Keyframes>
             <Keyframe id="2292"  time="-9999999/1" value="0" leadInLength="0/1"  />
             </Keyframes>
            </Parameter>
            <InterpolatingParam id="2293" interp="linr"  time="-9999999/1" value="1" leadInLength="0/1"   name="opacity"/>
            <InterpolatingParam id="2294" interp="linr"  time="-9999999/1" value="255" leadInLength="0/1"   name="rightClickColorBlue"/>
            <InterpolatingParam id="2295" interp="linr"  time="-9999999/1" value="0" leadInLength="0/1"   name="rightClickColorGreen"/>
            <InterpolatingParam id="2296" interp="linr"  time="-9999999/1" value="0" leadInLength="0/1"   name="rightClickColorRed"/>
            <InterpolatingParam id="2297" interp="linr"  time="-9999999/1" value="0.80000000000000004" leadInLength="0/1"   name="rightClickDuration"/>
            <InterpolatingParam id="2298" interp="linr"  time="-9999999/1" value="20" leadInLength="0/1"   name="rightClickSize"/>
            <Parameter id="2299"   name="rightClickSoundFilename">
             <Keyframes>
             <Keyframe id="2300"  time="-9999999/1" value="" leadInLength="0/1"  />
             </Keyframes>
            </Parameter>
            <InterpolatingParam id="2301" interp="linr"  time="-9999999/1" value="1" leadInLength="0/1"   name="rightClickSoundVolume"/>
            <Parameter id="2302"   name="rightClickType">
             <Keyframes>
             <Keyframe id="2303"  time="-9999999/1" value="0" leadInLength="0/1"  />
             </Keyframes>
            </Parameter>
            </Parameters>
            <MetaData>
             <entry key="effectIndex" val="0"/>
            </MetaData>
           </GenericEffect>
          </Effects>
          <Attributes>
           <Attribute id="2304" value="" name="ident"/>
          </Attributes>
          <ExtraData>
           <Entry key="ZoomPanBin">
            <ZoomPanBin id="2305"  >
             <ZoomPanKeyframes>
              <ZoomPanKeyframe id="2306" timeRangeEnd="-9999999/1" timeRangeDuration="0/1" interpolaterName="linr"  />
             </ZoomPanKeyframes>
            </ZoomPanBin>
           </Entry>
           <Entry key="CursorEffectBin">
            <CursorEffectBin id="2307"  >
             <CursorEffectKeyframes>
              <CursorEffectKeyframe id="2308" timeRangeEnd="-9999999/1" timeRangeDuration="0/1" interpolaterName=""  />
             </CursorEffectKeyframes>
            </CursorEffectBin>
           </Entry>
          </ExtraData>
         </ScreenVMFile>
         <MetaData>
          <entry key="AutoAppliedSmartFocus" val="False"/>
          <entry key="WinSubProjectDisplayName" val=""/>
         </MetaData>
        </UnifiedMedia>
        <UnifiedMedia id="2309"  >
         <AMFile id="2310" start="14501" duration="1862" scalar="1/1" mediaStart="28956/1" mediaDuration="1862/1" trackNumber="1" src="5" channelNumber="0,1" >
          <Parameters>
           <InterpolatingParam id="2311" interp="linr"  time="0/1" value="1" leadInLength="0/1"  name="volume"/>
           <Parameter id="2312"  name="captions"/>
          </Parameters>
          <Attributes>
           <Attribute id="2313" value="" name="ident"/>
           <Attribute id="2314" value="44100" name="sampleRate"/>
           <Attribute id="2315" value="16" name="bitDepth"/>
           <Attribute id="2316" value="1" name="gain"/>
           <Attribute id="2317" value="0" name="mixToMono"/>
          </Attributes>
         </AMFile>
         <ScreenVMFile id="2318" start="14501" duration="1862" scalar="1/1" mediaStart="28956/1" mediaDuration="1862/1" trackNumber="0" src="5" >
          <Transformer>
           <VectorParam id="2319"  name="translation">
            <InterpolatingParam id="2320" interp="linr"  time="-9999999/1" value="0" leadInLength="0/1"  />
            <InterpolatingParam id="2321" interp="linr"  time="-9999999/1" value="0" leadInLength="0/1"  />
            <InterpolatingParam id="2322" interp="linr"  time="-9999999/1" value="0" leadInLength="0/1"  />
           </VectorParam>
           <VectorParam id="2323"  name="rotation">
            <InterpolatingParam id="2324" interp="linr"  time="-9999999/1" value="0" leadInLength="0/1"  />
            <InterpolatingParam id="2325" interp="linr"  time="-9999999/1" value="0" leadInLength="0/1"  />
            <InterpolatingParam id="2326" interp="linr"  time="-9999999/1" value="0" leadInLength="0/1"  />
           </VectorParam>
           <VectorParam id="2327"  name="shear">
            <InterpolatingParam id="2328" interp="linr"  time="-9999999/1" value="0" leadInLength="0/1"  />
            <InterpolatingParam id="2329" interp="linr"  time="-9999999/1" value="0" leadInLength="0/1"  />
            <InterpolatingParam id="2330" interp="linr"  time="-9999999/1" value="0" leadInLength="0/1"  />
           </VectorParam>
           <VectorParam id="2331"  name="scale">
            <InterpolatingParam id="2332" interp="linr"  time="-9999999/1" value="0.625" leadInLength="0/1"  />
            <InterpolatingParam id="2333" interp="linr"  time="-9999999/1" value="0.625" leadInLength="0/1"  />
            <InterpolatingParam id="2334" interp="linr"  time="-9999999/1" value="1" leadInLength="0/1"  />
           </VectorParam>
           <VectorParam id="2335"  name="anchor">
            <InterpolatingParam id="2336" interp="linr"  time="0/1" value="0" leadInLength="0/1"  />
            <InterpolatingParam id="2337" interp="linr"  time="0/1" value="0" leadInLength="0/1"  />
            <InterpolatingParam id="2338" interp="linr"  time="0/1" value="0" leadInLength="0/1"  />
           </VectorParam>
          </Transformer>
          <Parameters>
           <VectorParam id="2339"  name="sourceCrop">
            <InterpolatingParam id="2340" interp="linr"  time="0/1" value="0" leadInLength="0/1"  />
            <InterpolatingParam id="2341" interp="linr"  time="0/1" value="0" leadInLength="0/1"  />
            <InterpolatingParam id="2342" interp="linr"  time="0/1" value="0" leadInLength="0/1"  />
            <InterpolatingParam id="2343" interp="linr"  time="0/1" value="0" leadInLength="0/1"  />
           </VectorParam>
           <VectorParam id="2344"  name="geometryCrop">
            <InterpolatingParam id="2345" interp="linr"  time="-9999999/1" value="0" leadInLength="0/1"  />
            <InterpolatingParam id="2346" interp="linr"  time="-9999999/1" value="0" leadInLength="0/1"  />
            <InterpolatingParam id="2347" interp="linr"  time="-9999999/1" value="0" leadInLength="0/1"  />
            <InterpolatingParam id="2348" interp="linr"  time="-9999999/1" value="0" leadInLength="0/1"  />
           </VectorParam>
           <InterpolatingParam id="2349" interp="linr"  time="-9999999/1" value="1" leadInLength="0/1"  name="opacity"/>
           <InterpolatingParam id="2350" interp="linr"  time="0/1" value="1" leadInLength="0/1"  name="cursorOpacity"/>
           <InterpolatingParam id="2351" interp="linr"  time="0/1" value="1" leadInLength="0/1"  name="cursorScale"/>
          </Parameters>
          <Effects>
           <GenericEffect id="2352" name = "CursorBaseEffectName" >
            <Parameters>
            <InterpolatingParam id="2353" interp="linr"  time="-9999999/1" value="1" leadInLength="0/1"   name="cursorSize"/>
            <InterpolatingParam id="2354" interp="linr"  time="-9999999/1" value="0" leadInLength="0/1"   name="highlightBlurRadius"/>
            <InterpolatingParam id="2355" interp="linr"  time="-9999999/1" value="0" leadInLength="0/1"   name="highlightColorBlue"/>
            <InterpolatingParam id="2356" interp="linr"  time="-9999999/1" value="255" leadInLength="0/1"   name="highlightColorGreen"/>
            <InterpolatingParam id="2357" interp="linr"  time="-9999999/1" value="255" leadInLength="0/1"   name="highlightColorRed"/>
            <InterpolatingParam id="2358" interp="linr"  time="-9999999/1" value="5" leadInLength="0/1"   name="highlightFeatherSize"/>
            <InterpolatingParam id="2359" interp="linr"  time="-9999999/1" value="2" leadInLength="0/1"   name="highlightMagnification"/>
            <InterpolatingParam id="2360" interp="linr"  time="-9999999/1" value="1" leadInLength="0/1"   name="highlightOpacity"/>
            <InterpolatingParam id="2361" interp="linr"  time="-9999999/1" value="45" leadInLength="0/1"   name="highlightSize"/>
            <Parameter id="2362"   name="highlightType">
             <Keyframes>
             <Keyframe id="2363"  time="-9999999/1" value="0" leadInLength="0/1"  />
             </Keyframes>
            </Parameter>
            <InterpolatingParam id="2364" interp="linr"  time="-9999999/1" value="0" leadInLength="0/1"   name="leftClickColorBlue"/>
            <InterpolatingParam id="2365" interp="linr"  time="-9999999/1" value="0" leadInLength="0/1"   name="leftClickColorGreen"/>
            <InterpolatingParam id="2366" interp="linr"  time="-9999999/1" value="255" leadInLength="0/1"   name="leftClickColorRed"/>
            <InterpolatingParam id="2367" interp="linr"  time="-9999999/1" value="0.80000000000000004" leadInLength="0/1"   name="leftClickDuration"/>
            <InterpolatingParam id="2368" interp="linr"  time="-9999999/1" value="20" leadInLength="0/1"   name="leftClickSize"/>
            <Parameter id="2369"   name="leftClickSoundFilename">
             <Keyframes>
             <Keyframe id="2370"  time="-9999999/1" value="" leadInLength="0/1"  />
             </Keyframes>
            </Parameter>
            <InterpolatingParam id="2371" interp="linr"  time="-9999999/1" value="1" leadInLength="0/1"   name="leftClickSoundVolume"/>
            <Parameter id="2372"   name="leftClickType">
             <Keyframes>
             <Keyframe id="2373"  time="-9999999/1" value="0" leadInLength="0/1"  />
             </Keyframes>
            </Parameter>
            <InterpolatingParam id="2374" interp="linr"  time="-9999999/1" value="1" leadInLength="0/1"   name="opacity"/>
            <InterpolatingParam id="2375" interp="linr"  time="-9999999/1" value="255" leadInLength="0/1"   name="rightClickColorBlue"/>
            <InterpolatingParam id="2376" interp="linr"  time="-9999999/1" value="0" leadInLength="0/1"   name="rightClickColorGreen"/>
            <InterpolatingParam id="2377" interp="linr"  time="-9999999/1" value="0" leadInLength="0/1"   name="rightClickColorRed"/>
            <InterpolatingParam id="2378" interp="linr"  time="-9999999/1" value="0.80000000000000004" leadInLength="0/1"   name="rightClickDuration"/>
            <InterpolatingParam id="2379" interp="linr"  time="-9999999/1" value="20" leadInLength="0/1"   name="rightClickSize"/>
            <Parameter id="2380"   name="rightClickSoundFilename">
             <Keyframes>
             <Keyframe id="2381"  time="-9999999/1" value="" leadInLength="0/1"  />
             </Keyframes>
            </Parameter>
            <InterpolatingParam id="2382" interp="linr"  time="-9999999/1" value="1" leadInLength="0/1"   name="rightClickSoundVolume"/>
            <Parameter id="2383"   name="rightClickType">
             <Keyframes>
             <Keyframe id="2384"  time="-9999999/1" value="0" leadInLength="0/1"  />
             </Keyframes>
            </Parameter>
            </Parameters>
            <MetaData>
             <entry key="effectIndex" val="0"/>
            </MetaData>
           </GenericEffect>
          </Effects>
          <Attributes>
           <Attribute id="2385" value="" name="ident"/>
          </Attributes>
          <ExtraData>
           <Entry key="ZoomPanBin">
            <ZoomPanBin id="2386"  >
             <ZoomPanKeyframes>
              <ZoomPanKeyframe id="2387" timeRangeEnd="-9999999/1" timeRangeDuration="0/1" interpolaterName="linr"  />
             </ZoomPanKeyframes>
            </ZoomPanBin>
           </Entry>
           <Entry key="CursorEffectBin">
            <CursorEffectBin id="2388"  >
             <CursorEffectKeyframes>
              <CursorEffectKeyframe id="2389" timeRangeEnd="-9999999/1" timeRangeDuration="0/1" interpolaterName=""  />
             </CursorEffectKeyframes>
            </CursorEffectBin>
           </Entry>
          </ExtraData>
         </ScreenVMFile>
         <MetaData>
          <entry key="AutoAppliedSmartFocus" val="False"/>
          <entry key="WinSubProjectDisplayName" val=""/>
         </MetaData>
        </UnifiedMedia>
        <UnifiedMedia id="2390"  >
         <AMFile id="2391" start="16363" duration="1388" scalar="1/1" mediaStart="32402/1" mediaDuration="1388/1" trackNumber="1" src="5" channelNumber="0,1" >
          <Parameters>
           <InterpolatingParam id="2392" interp="linr"  time="0/1" value="1" leadInLength="0/1"  name="volume"/>
           <Parameter id="2393"  name="captions"/>
          </Parameters>
          <Attributes>
           <Attribute id="2394" value="" name="ident"/>
           <Attribute id="2395" value="44100" name="sampleRate"/>
           <Attribute id="2396" value="16" name="bitDepth"/>
           <Attribute id="2397" value="1" name="gain"/>
           <Attribute id="2398" value="0" name="mixToMono"/>
          </Attributes>
         </AMFile>
         <ScreenVMFile id="2399" start="16363" duration="1388" scalar="1/1" mediaStart="32402/1" mediaDuration="1388/1" trackNumber="0" src="5" >
          <Transformer>
           <VectorParam id="2400"  name="translation">
            <InterpolatingParam id="2401" interp="linr"  time="-9999999/1" value="0" leadInLength="0/1"  />
            <InterpolatingParam id="2402" interp="linr"  time="-9999999/1" value="0" leadInLength="0/1"  />
            <InterpolatingParam id="2403" interp="linr"  time="-9999999/1" value="0" leadInLength="0/1"  />
           </VectorParam>
           <VectorParam id="2404"  name="rotation">
            <InterpolatingParam id="2405" interp="linr"  time="-9999999/1" value="0" leadInLength="0/1"  />
            <InterpolatingParam id="2406" interp="linr"  time="-9999999/1" value="0" leadInLength="0/1"  />
            <InterpolatingParam id="2407" interp="linr"  time="-9999999/1" value="0" leadInLength="0/1"  />
           </VectorParam>
           <VectorParam id="2408"  name="shear">
            <InterpolatingParam id="2409" interp="linr"  time="-9999999/1" value="0" leadInLength="0/1"  />
            <InterpolatingParam id="2410" interp="linr"  time="-9999999/1" value="0" leadInLength="0/1"  />
            <InterpolatingParam id="2411" interp="linr"  time="-9999999/1" value="0" leadInLength="0/1"  />
           </VectorParam>
           <VectorParam id="2412"  name="scale">
            <InterpolatingParam id="2413" interp="linr"  time="-9999999/1" value="0.625" leadInLength="0/1"  />
            <InterpolatingParam id="2414" interp="linr"  time="-9999999/1" value="0.625" leadInLength="0/1"  />
            <InterpolatingParam id="2415" interp="linr"  time="-9999999/1" value="1" leadInLength="0/1"  />
           </VectorParam>
           <VectorParam id="2416"  name="anchor">
            <InterpolatingParam id="2417" interp="linr"  time="0/1" value="0" leadInLength="0/1"  />
            <InterpolatingParam id="2418" interp="linr"  time="0/1" value="0" leadInLength="0/1"  />
            <InterpolatingParam id="2419" interp="linr"  time="0/1" value="0" leadInLength="0/1"  />
           </VectorParam>
          </Transformer>
          <Parameters>
           <VectorParam id="2420"  name="sourceCrop">
            <InterpolatingParam id="2421" interp="linr"  time="0/1" value="0" leadInLength="0/1"  />
            <InterpolatingParam id="2422" interp="linr"  time="0/1" value="0" leadInLength="0/1"  />
            <InterpolatingParam id="2423" interp="linr"  time="0/1" value="0" leadInLength="0/1"  />
            <InterpolatingParam id="2424" interp="linr"  time="0/1" value="0" leadInLength="0/1"  />
           </VectorParam>
           <VectorParam id="2425"  name="geometryCrop">
            <InterpolatingParam id="2426" interp="linr"  time="-9999999/1" value="0" leadInLength="0/1"  />
            <InterpolatingParam id="2427" interp="linr"  time="-9999999/1" value="0" leadInLength="0/1"  />
            <InterpolatingParam id="2428" interp="linr"  time="-9999999/1" value="0" leadInLength="0/1"  />
            <InterpolatingParam id="2429" interp="linr"  time="-9999999/1" value="0" leadInLength="0/1"  />
           </VectorParam>
           <InterpolatingParam id="2430" interp="linr"  time="-9999999/1" value="1" leadInLength="0/1"  name="opacity"/>
           <InterpolatingParam id="2431" interp="linr"  time="0/1" value="1" leadInLength="0/1"  name="cursorOpacity"/>
           <InterpolatingParam id="2432" interp="linr"  time="0/1" value="1" leadInLength="0/1"  name="cursorScale"/>
          </Parameters>
          <Effects>
           <GenericEffect id="2433" name = "CursorBaseEffectName" >
            <Parameters>
            <InterpolatingParam id="2434" interp="linr"  time="-9999999/1" value="1" leadInLength="0/1"   name="cursorSize"/>
            <InterpolatingParam id="2435" interp="linr"  time="-9999999/1" value="0" leadInLength="0/1"   name="highlightBlurRadius"/>
            <InterpolatingParam id="2436" interp="linr"  time="-9999999/1" value="0" leadInLength="0/1"   name="highlightColorBlue"/>
            <InterpolatingParam id="2437" interp="linr"  time="-9999999/1" value="255" leadInLength="0/1"   name="highlightColorGreen"/>
            <InterpolatingParam id="2438" interp="linr"  time="-9999999/1" value="255" leadInLength="0/1"   name="highlightColorRed"/>
            <InterpolatingParam id="2439" interp="linr"  time="-9999999/1" value="5" leadInLength="0/1"   name="highlightFeatherSize"/>
            <InterpolatingParam id="2440" interp="linr"  time="-9999999/1" value="2" leadInLength="0/1"   name="highlightMagnification"/>
            <InterpolatingParam id="2441" interp="linr"  time="-9999999/1" value="1" leadInLength="0/1"   name="highlightOpacity"/>
            <InterpolatingParam id="2442" interp="linr"  time="-9999999/1" value="45" leadInLength="0/1"   name="highlightSize"/>
            <Parameter id="2443"   name="highlightType">
             <Keyframes>
             <Keyframe id="2444"  time="-9999999/1" value="0" leadInLength="0/1"  />
             </Keyframes>
            </Parameter>
            <InterpolatingParam id="2445" interp="linr"  time="-9999999/1" value="0" leadInLength="0/1"   name="leftClickColorBlue"/>
            <InterpolatingParam id="2446" interp="linr"  time="-9999999/1" value="0" leadInLength="0/1"   name="leftClickColorGreen"/>
            <InterpolatingParam id="2447" interp="linr"  time="-9999999/1" value="255" leadInLength="0/1"   name="leftClickColorRed"/>
            <InterpolatingParam id="2448" interp="linr"  time="-9999999/1" value="0.80000000000000004" leadInLength="0/1"   name="leftClickDuration"/>
            <InterpolatingParam id="2449" interp="linr"  time="-9999999/1" value="20" leadInLength="0/1"   name="leftClickSize"/>
            <Parameter id="2450"   name="leftClickSoundFilename">
             <Keyframes>
             <Keyframe id="2451"  time="-9999999/1" value="" leadInLength="0/1"  />
             </Keyframes>
            </Parameter>
            <InterpolatingParam id="2452" interp="linr"  time="-9999999/1" value="1" leadInLength="0/1"   name="leftClickSoundVolume"/>
            <Parameter id="2453"   name="leftClickType">
             <Keyframes>
             <Keyframe id="2454"  time="-9999999/1" value="0" leadInLength="0/1"  />
             </Keyframes>
            </Parameter>
            <InterpolatingParam id="2455" interp="linr"  time="-9999999/1" value="1" leadInLength="0/1"   name="opacity"/>
            <InterpolatingParam id="2456" interp="linr"  time="-9999999/1" value="255" leadInLength="0/1"   name="rightClickColorBlue"/>
            <InterpolatingParam id="2457" interp="linr"  time="-9999999/1" value="0" leadInLength="0/1"   name="rightClickColorGreen"/>
            <InterpolatingParam id="2458" interp="linr"  time="-9999999/1" value="0" leadInLength="0/1"   name="rightClickColorRed"/>
            <InterpolatingParam id="2459" interp="linr"  time="-9999999/1" value="0.80000000000000004" leadInLength="0/1"   name="rightClickDuration"/>
            <InterpolatingParam id="2460" interp="linr"  time="-9999999/1" value="20" leadInLength="0/1"   name="rightClickSize"/>
            <Parameter id="2461"   name="rightClickSoundFilename">
             <Keyframes>
             <Keyframe id="2462"  time="-9999999/1" value="" leadInLength="0/1"  />
             </Keyframes>
            </Parameter>
            <InterpolatingParam id="2463" interp="linr"  time="-9999999/1" value="1" leadInLength="0/1"   name="rightClickSoundVolume"/>
            <Parameter id="2464"   name="rightClickType">
             <Keyframes>
             <Keyframe id="2465"  time="-9999999/1" value="0" leadInLength="0/1"  />
             </Keyframes>
            </Parameter>
            </Parameters>
            <MetaData>
             <entry key="effectIndex" val="0"/>
            </MetaData>
           </GenericEffect>
          </Effects>
          <Attributes>
           <Attribute id="2466" value="" name="ident"/>
          </Attributes>
          <ExtraData>
           <Entry key="ZoomPanBin">
            <ZoomPanBin id="2467"  >
             <ZoomPanKeyframes>
              <ZoomPanKeyframe id="2468" timeRangeEnd="-9999999/1" timeRangeDuration="0/1" interpolaterName="linr"  />
             </ZoomPanKeyframes>
            </ZoomPanBin>
           </Entry>
           <Entry key="CursorEffectBin">
            <CursorEffectBin id="2469"  >
             <CursorEffectKeyframes>
              <CursorEffectKeyframe id="2470" timeRangeEnd="-9999999/1" timeRangeDuration="0/1" interpolaterName=""  />
             </CursorEffectKeyframes>
            </CursorEffectBin>
           </Entry>
          </ExtraData>
         </ScreenVMFile>
         <MetaData>
          <entry key="AutoAppliedSmartFocus" val="False"/>
          <entry key="WinSubProjectDisplayName" val=""/>
         </MetaData>
        </UnifiedMedia>
        <UnifiedMedia id="2471"  >
         <AMFile id="2472" start="17751" duration="94" scalar="1/1" mediaStart="34166/1" mediaDuration="94/1" trackNumber="1" src="5" channelNumber="0,1" >
          <Parameters>
           <InterpolatingParam id="2473" interp="linr"  time="0/1" value="1" leadInLength="0/1"  name="volume"/>
           <Parameter id="2474"  name="captions"/>
          </Parameters>
          <Attributes>
           <Attribute id="2475" value="" name="ident"/>
           <Attribute id="2476" value="44100" name="sampleRate"/>
           <Attribute id="2477" value="16" name="bitDepth"/>
           <Attribute id="2478" value="1" name="gain"/>
           <Attribute id="2479" value="0" name="mixToMono"/>
          </Attributes>
         </AMFile>
         <ScreenVMFile id="2480" start="17751" duration="94" scalar="1/1" mediaStart="34166/1" mediaDuration="94/1" trackNumber="0" src="5" >
          <Transformer>
           <VectorParam id="2481"  name="translation">
            <InterpolatingParam id="2482" interp="linr"  time="-9999999/1" value="0" leadInLength="0/1"  />
            <InterpolatingParam id="2483" interp="linr"  time="-9999999/1" value="0" leadInLength="0/1"  />
            <InterpolatingParam id="2484" interp="linr"  time="-9999999/1" value="0" leadInLength="0/1"  />
           </VectorParam>
           <VectorParam id="2485"  name="rotation">
            <InterpolatingParam id="2486" interp="linr"  time="-9999999/1" value="0" leadInLength="0/1"  />
            <InterpolatingParam id="2487" interp="linr"  time="-9999999/1" value="0" leadInLength="0/1"  />
            <InterpolatingParam id="2488" interp="linr"  time="-9999999/1" value="0" leadInLength="0/1"  />
           </VectorParam>
           <VectorParam id="2489"  name="shear">
            <InterpolatingParam id="2490" interp="linr"  time="-9999999/1" value="0" leadInLength="0/1"  />
            <InterpolatingParam id="2491" interp="linr"  time="-9999999/1" value="0" leadInLength="0/1"  />
            <InterpolatingParam id="2492" interp="linr"  time="-9999999/1" value="0" leadInLength="0/1"  />
           </VectorParam>
           <VectorParam id="2493"  name="scale">
            <InterpolatingParam id="2494" interp="linr"  time="-9999999/1" value="0.625" leadInLength="0/1"  />
            <InterpolatingParam id="2495" interp="linr"  time="-9999999/1" value="0.625" leadInLength="0/1"  />
            <InterpolatingParam id="2496" interp="linr"  time="-9999999/1" value="1" leadInLength="0/1"  />
           </VectorParam>
           <VectorParam id="2497"  name="anchor">
            <InterpolatingParam id="2498" interp="linr"  time="0/1" value="0" leadInLength="0/1"  />
            <InterpolatingParam id="2499" interp="linr"  time="0/1" value="0" leadInLength="0/1"  />
            <InterpolatingParam id="2500" interp="linr"  time="0/1" value="0" leadInLength="0/1"  />
           </VectorParam>
          </Transformer>
          <Parameters>
           <VectorParam id="2501"  name="sourceCrop">
            <InterpolatingParam id="2502" interp="linr"  time="0/1" value="0" leadInLength="0/1"  />
            <InterpolatingParam id="2503" interp="linr"  time="0/1" value="0" leadInLength="0/1"  />
            <InterpolatingParam id="2504" interp="linr"  time="0/1" value="0" leadInLength="0/1"  />
            <InterpolatingParam id="2505" interp="linr"  time="0/1" value="0" leadInLength="0/1"  />
           </VectorParam>
           <VectorParam id="2506"  name="geometryCrop">
            <InterpolatingParam id="2507" interp="linr"  time="-9999999/1" value="0" leadInLength="0/1"  />
            <InterpolatingParam id="2508" interp="linr"  time="-9999999/1" value="0" leadInLength="0/1"  />
            <InterpolatingParam id="2509" interp="linr"  time="-9999999/1" value="0" leadInLength="0/1"  />
            <InterpolatingParam id="2510" interp="linr"  time="-9999999/1" value="0" leadInLength="0/1"  />
           </VectorParam>
           <InterpolatingParam id="2511" interp="linr"  time="-9999999/1" value="1" leadInLength="0/1"  name="opacity"/>
           <InterpolatingParam id="2512" interp="linr"  time="0/1" value="1" leadInLength="0/1"  name="cursorOpacity"/>
           <InterpolatingParam id="2513" interp="linr"  time="0/1" value="1" leadInLength="0/1"  name="cursorScale"/>
          </Parameters>
          <Effects>
           <GenericEffect id="2514" name = "CursorBaseEffectName" >
            <Parameters>
            <InterpolatingParam id="2515" interp="linr"  time="-9999999/1" value="1" leadInLength="0/1"   name="cursorSize"/>
            <InterpolatingParam id="2516" interp="linr"  time="-9999999/1" value="0" leadInLength="0/1"   name="highlightBlurRadius"/>
            <InterpolatingParam id="2517" interp="linr"  time="-9999999/1" value="0" leadInLength="0/1"   name="highlightColorBlue"/>
            <InterpolatingParam id="2518" interp="linr"  time="-9999999/1" value="255" leadInLength="0/1"   name="highlightColorGreen"/>
            <InterpolatingParam id="2519" interp="linr"  time="-9999999/1" value="255" leadInLength="0/1"   name="highlightColorRed"/>
            <InterpolatingParam id="2520" interp="linr"  time="-9999999/1" value="5" leadInLength="0/1"   name="highlightFeatherSize"/>
            <InterpolatingParam id="2521" interp="linr"  time="-9999999/1" value="2" leadInLength="0/1"   name="highlightMagnification"/>
            <InterpolatingParam id="2522" interp="linr"  time="-9999999/1" value="1" leadInLength="0/1"   name="highlightOpacity"/>
            <InterpolatingParam id="2523" interp="linr"  time="-9999999/1" value="45" leadInLength="0/1"   name="highlightSize"/>
            <Parameter id="2524"   name="highlightType">
             <Keyframes>
             <Keyframe id="2525"  time="-9999999/1" value="0" leadInLength="0/1"  />
             </Keyframes>
            </Parameter>
            <InterpolatingParam id="2526" interp="linr"  time="-9999999/1" value="0" leadInLength="0/1"   name="leftClickColorBlue"/>
            <InterpolatingParam id="2527" interp="linr"  time="-9999999/1" value="0" leadInLength="0/1"   name="leftClickColorGreen"/>
            <InterpolatingParam id="2528" interp="linr"  time="-9999999/1" value="255" leadInLength="0/1"   name="leftClickColorRed"/>
            <InterpolatingParam id="2529" interp="linr"  time="-9999999/1" value="0.80000000000000004" leadInLength="0/1"   name="leftClickDuration"/>
            <InterpolatingParam id="2530" interp="linr"  time="-9999999/1" value="20" leadInLength="0/1"   name="leftClickSize"/>
            <Parameter id="2531"   name="leftClickSoundFilename">
             <Keyframes>
             <Keyframe id="2532"  time="-9999999/1" value="" leadInLength="0/1"  />
             </Keyframes>
            </Parameter>
            <InterpolatingParam id="2533" interp="linr"  time="-9999999/1" value="1" leadInLength="0/1"   name="leftClickSoundVolume"/>
            <Parameter id="2534"   name="leftClickType">
             <Keyframes>
             <Keyframe id="2535"  time="-9999999/1" value="0" leadInLength="0/1"  />
             </Keyframes>
            </Parameter>
            <InterpolatingParam id="2536" interp="linr"  time="-9999999/1" value="1" leadInLength="0/1"   name="opacity"/>
            <InterpolatingParam id="2537" interp="linr"  time="-9999999/1" value="255" leadInLength="0/1"   name="rightClickColorBlue"/>
            <InterpolatingParam id="2538" interp="linr"  time="-9999999/1" value="0" leadInLength="0/1"   name="rightClickColorGreen"/>
            <InterpolatingParam id="2539" interp="linr"  time="-9999999/1" value="0" leadInLength="0/1"   name="rightClickColorRed"/>
            <InterpolatingParam id="2540" interp="linr"  time="-9999999/1" value="0.80000000000000004" leadInLength="0/1"   name="rightClickDuration"/>
            <InterpolatingParam id="2541" interp="linr"  time="-9999999/1" value="20" leadInLength="0/1"   name="rightClickSize"/>
            <Parameter id="2542"   name="rightClickSoundFilename">
             <Keyframes>
             <Keyframe id="2543"  time="-9999999/1" value="" leadInLength="0/1"  />
             </Keyframes>
            </Parameter>
            <InterpolatingParam id="2544" interp="linr"  time="-9999999/1" value="1" leadInLength="0/1"   name="rightClickSoundVolume"/>
            <Parameter id="2545"   name="rightClickType">
             <Keyframes>
             <Keyframe id="2546"  time="-9999999/1" value="0" leadInLength="0/1"  />
             </Keyframes>
            </Parameter>
            </Parameters>
            <MetaData>
             <entry key="effectIndex" val="0"/>
            </MetaData>
           </GenericEffect>
          </Effects>
          <Attributes>
           <Attribute id="2547" value="" name="ident"/>
          </Attributes>
          <ExtraData>
           <Entry key="ZoomPanBin">
            <ZoomPanBin id="2548"  >
             <ZoomPanKeyframes>
              <ZoomPanKeyframe id="2549" timeRangeEnd="-9999999/1" timeRangeDuration="0/1" interpolaterName="linr"  />
             </ZoomPanKeyframes>
            </ZoomPanBin>
           </Entry>
           <Entry key="CursorEffectBin">
            <CursorEffectBin id="2550"  >
             <CursorEffectKeyframes>
              <CursorEffectKeyframe id="2551" timeRangeEnd="-9999999/1" timeRangeDuration="0/1" interpolaterName=""  />
             </CursorEffectKeyframes>
            </CursorEffectBin>
           </Entry>
          </ExtraData>
         </ScreenVMFile>
         <MetaData>
          <entry key="AutoAppliedSmartFocus" val="False"/>
          <entry key="WinSubProjectDisplayName" val=""/>
         </MetaData>
        </UnifiedMedia>
        <UnifiedMedia id="2552"  >
         <AMFile id="2553" start="17845" duration="384" scalar="1/1" mediaStart="828/1" mediaDuration="384/1" trackNumber="1" src="6" channelNumber="0,1" >
          <Parameters>
           <InterpolatingParam id="2554" interp="linr"  time="0/1" value="1" leadInLength="0/1"  name="volume"/>
           <Parameter id="2555"  name="captions"/>
          </Parameters>
          <Attributes>
           <Attribute id="2556" value="" name="ident"/>
           <Attribute id="2557" value="44100" name="sampleRate"/>
           <Attribute id="2558" value="16" name="bitDepth"/>
           <Attribute id="2559" value="1" name="gain"/>
           <Attribute id="2560" value="0" name="mixToMono"/>
          </Attributes>
         </AMFile>
         <ScreenVMFile id="2561" start="17845" duration="384" scalar="1/1" mediaStart="828/1" mediaDuration="384/1" trackNumber="0" src="6" >
          <Transformer>
           <VectorParam id="2562"  name="translation">
            <InterpolatingParam id="2563" interp="linr"  time="-9999999/1" value="0" leadInLength="0/1"  />
            <InterpolatingParam id="2564" interp="linr"  time="-9999999/1" value="0" leadInLength="0/1"  />
            <InterpolatingParam id="2565" interp="linr"  time="-9999999/1" value="0" leadInLength="0/1"  />
           </VectorParam>
           <VectorParam id="2566"  name="rotation">
            <InterpolatingParam id="2567" interp="linr"  time="-9999999/1" value="0" leadInLength="0/1"  />
            <InterpolatingParam id="2568" interp="linr"  time="-9999999/1" value="0" leadInLength="0/1"  />
            <InterpolatingParam id="2569" interp="linr"  time="-9999999/1" value="0" leadInLength="0/1"  />
           </VectorParam>
           <VectorParam id="2570"  name="shear">
            <InterpolatingParam id="2571" interp="linr"  time="-9999999/1" value="0" leadInLength="0/1"  />
            <InterpolatingParam id="2572" interp="linr"  time="-9999999/1" value="0" leadInLength="0/1"  />
            <InterpolatingParam id="2573" interp="linr"  time="-9999999/1" value="0" leadInLength="0/1"  />
           </VectorParam>
           <VectorParam id="2574"  name="scale">
            <InterpolatingParam id="2575" interp="linr"  time="-9999999/1" value="0.625" leadInLength="0/1"  />
            <InterpolatingParam id="2576" interp="linr"  time="-9999999/1" value="0.625" leadInLength="0/1"  />
            <InterpolatingParam id="2577" interp="linr"  time="-9999999/1" value="1" leadInLength="0/1"  />
           </VectorParam>
           <VectorParam id="2578"  name="anchor">
            <InterpolatingParam id="2579" interp="linr"  time="0/1" value="0" leadInLength="0/1"  />
            <InterpolatingParam id="2580" interp="linr"  time="0/1" value="0" leadInLength="0/1"  />
            <InterpolatingParam id="2581" interp="linr"  time="0/1" value="0" leadInLength="0/1"  />
           </VectorParam>
          </Transformer>
          <Parameters>
           <VectorParam id="2582"  name="sourceCrop">
            <InterpolatingParam id="2583" interp="linr"  time="0/1" value="0" leadInLength="0/1"  />
            <InterpolatingParam id="2584" interp="linr"  time="0/1" value="0" leadInLength="0/1"  />
            <InterpolatingParam id="2585" interp="linr"  time="0/1" value="0" leadInLength="0/1"  />
            <InterpolatingParam id="2586" interp="linr"  time="0/1" value="0" leadInLength="0/1"  />
           </VectorParam>
           <VectorParam id="2587"  name="geometryCrop">
            <InterpolatingParam id="2588" interp="linr"  time="-9999999/1" value="0" leadInLength="0/1"  />
            <InterpolatingParam id="2589" interp="linr"  time="-9999999/1" value="0" leadInLength="0/1"  />
            <InterpolatingParam id="2590" interp="linr"  time="-9999999/1" value="0" leadInLength="0/1"  />
            <InterpolatingParam id="2591" interp="linr"  time="-9999999/1" value="0" leadInLength="0/1"  />
           </VectorParam>
           <InterpolatingParam id="2592" interp="linr"  time="-9999999/1" value="1" leadInLength="0/1"  name="opacity"/>
           <InterpolatingParam id="2593" interp="linr"  time="0/1" value="1" leadInLength="0/1"  name="cursorOpacity"/>
           <InterpolatingParam id="2594" interp="linr"  time="0/1" value="1" leadInLength="0/1"  name="cursorScale"/>
          </Parameters>
          <Effects>
           <GenericEffect id="2595" name = "CursorBaseEffectName" >
            <Parameters>
            <InterpolatingParam id="2596" interp="linr"  time="-9999999/1" value="1" leadInLength="0/1"   name="cursorSize"/>
            <InterpolatingParam id="2597" interp="linr"  time="-9999999/1" value="0" leadInLength="0/1"   name="highlightBlurRadius"/>
            <InterpolatingParam id="2598" interp="linr"  time="-9999999/1" value="0" leadInLength="0/1"   name="highlightColorBlue"/>
            <InterpolatingParam id="2599" interp="linr"  time="-9999999/1" value="255" leadInLength="0/1"   name="highlightColorGreen"/>
            <InterpolatingParam id="2600" interp="linr"  time="-9999999/1" value="255" leadInLength="0/1"   name="highlightColorRed"/>
            <InterpolatingParam id="2601" interp="linr"  time="-9999999/1" value="5" leadInLength="0/1"   name="highlightFeatherSize"/>
            <InterpolatingParam id="2602" interp="linr"  time="-9999999/1" value="2" leadInLength="0/1"   name="highlightMagnification"/>
            <InterpolatingParam id="2603" interp="linr"  time="-9999999/1" value="1" leadInLength="0/1"   name="highlightOpacity"/>
            <InterpolatingParam id="2604" interp="linr"  time="-9999999/1" value="45" leadInLength="0/1"   name="highlightSize"/>
            <Parameter id="2605"   name="highlightType">
             <Keyframes>
             <Keyframe id="2606"  time="-9999999/1" value="0" leadInLength="0/1"  />
             </Keyframes>
            </Parameter>
            <InterpolatingParam id="2607" interp="linr"  time="-9999999/1" value="0" leadInLength="0/1"   name="leftClickColorBlue"/>
            <InterpolatingParam id="2608" interp="linr"  time="-9999999/1" value="0" leadInLength="0/1"   name="leftClickColorGreen"/>
            <InterpolatingParam id="2609" interp="linr"  time="-9999999/1" value="255" leadInLength="0/1"   name="leftClickColorRed"/>
            <InterpolatingParam id="2610" interp="linr"  time="-9999999/1" value="0.80000000000000004" leadInLength="0/1"   name="leftClickDuration"/>
            <InterpolatingParam id="2611" interp="linr"  time="-9999999/1" value="20" leadInLength="0/1"   name="leftClickSize"/>
            <Parameter id="2612"   name="leftClickSoundFilename">
             <Keyframes>
             <Keyframe id="2613"  time="-9999999/1" value="" leadInLength="0/1"  />
             </Keyframes>
            </Parameter>
            <InterpolatingParam id="2614" interp="linr"  time="-9999999/1" value="1" leadInLength="0/1"   name="leftClickSoundVolume"/>
            <Parameter id="2615"   name="leftClickType">
             <Keyframes>
             <Keyframe id="2616"  time="-9999999/1" value="0" leadInLength="0/1"  />
             </Keyframes>
            </Parameter>
            <InterpolatingParam id="2617" interp="linr"  time="-9999999/1" value="1" leadInLength="0/1"   name="opacity"/>
            <InterpolatingParam id="2618" interp="linr"  time="-9999999/1" value="255" leadInLength="0/1"   name="rightClickColorBlue"/>
            <InterpolatingParam id="2619" interp="linr"  time="-9999999/1" value="0" leadInLength="0/1"   name="rightClickColorGreen"/>
            <InterpolatingParam id="2620" interp="linr"  time="-9999999/1" value="0" leadInLength="0/1"   name="rightClickColorRed"/>
            <InterpolatingParam id="2621" interp="linr"  time="-9999999/1" value="0.80000000000000004" leadInLength="0/1"   name="rightClickDuration"/>
            <InterpolatingParam id="2622" interp="linr"  time="-9999999/1" value="20" leadInLength="0/1"   name="rightClickSize"/>
            <Parameter id="2623"   name="rightClickSoundFilename">
             <Keyframes>
             <Keyframe id="2624"  time="-9999999/1" value="" leadInLength="0/1"  />
             </Keyframes>
            </Parameter>
            <InterpolatingParam id="2625" interp="linr"  time="-9999999/1" value="1" leadInLength="0/1"   name="rightClickSoundVolume"/>
            <Parameter id="2626"   name="rightClickType">
             <Keyframes>
             <Keyframe id="2627"  time="-9999999/1" value="0" leadInLength="0/1"  />
             </Keyframes>
            </Parameter>
            </Parameters>
            <MetaData>
             <entry key="effectIndex" val="0"/>
            </MetaData>
           </GenericEffect>
          </Effects>
          <Attributes>
           <Attribute id="2628" value="" name="ident"/>
          </Attributes>
          <ExtraData>
           <Entry key="ZoomPanBin">
            <ZoomPanBin id="2629"  >
             <ZoomPanKeyframes>
              <ZoomPanKeyframe id="2630" timeRangeEnd="-9999999/1" timeRangeDuration="0/1" interpolaterName="linr"  />
             </ZoomPanKeyframes>
            </ZoomPanBin>
           </Entry>
           <Entry key="CursorEffectBin">
            <CursorEffectBin id="2631"  >
             <CursorEffectKeyframes>
              <CursorEffectKeyframe id="2632" timeRangeEnd="-9999999/1" timeRangeDuration="0/1" interpolaterName=""  />
             </CursorEffectKeyframes>
            </CursorEffectBin>
           </Entry>
          </ExtraData>
         </ScreenVMFile>
         <MetaData>
          <entry key="AutoAppliedSmartFocus" val="False"/>
          <entry key="WinSubProjectDisplayName" val=""/>
         </MetaData>
        </UnifiedMedia>
        <UnifiedMedia id="2633"  >
         <AMFile id="2634" start="18229" duration="1465" scalar="1/1" mediaStart="2313/1" mediaDuration="1465/1" trackNumber="1" src="6" channelNumber="0,1" >
          <Parameters>
           <InterpolatingParam id="2635" interp="linr"  time="0/1" value="1" leadInLength="0/1"  name="volume"/>
           <Parameter id="2636"  name="captions"/>
          </Parameters>
          <Attributes>
           <Attribute id="2637" value="" name="ident"/>
           <Attribute id="2638" value="44100" name="sampleRate"/>
           <Attribute id="2639" value="16" name="bitDepth"/>
           <Attribute id="2640" value="1" name="gain"/>
           <Attribute id="2641" value="0" name="mixToMono"/>
          </Attributes>
         </AMFile>
         <ScreenVMFile id="2642" start="18229" duration="1465" scalar="1/1" mediaStart="2313/1" mediaDuration="1465/1" trackNumber="0" src="6" >
          <Transformer>
           <VectorParam id="2643"  name="translation">
            <InterpolatingParam id="2644" interp="linr"  time="-9999999/1" value="0" leadInLength="0/1"  />
            <InterpolatingParam id="2645" interp="linr"  time="-9999999/1" value="0" leadInLength="0/1"  />
            <InterpolatingParam id="2646" interp="linr"  time="-9999999/1" value="0" leadInLength="0/1"  />
           </VectorParam>
           <VectorParam id="2647"  name="rotation">
            <InterpolatingParam id="2648" interp="linr"  time="-9999999/1" value="0" leadInLength="0/1"  />
            <InterpolatingParam id="2649" interp="linr"  time="-9999999/1" value="0" leadInLength="0/1"  />
            <InterpolatingParam id="2650" interp="linr"  time="-9999999/1" value="0" leadInLength="0/1"  />
           </VectorParam>
           <VectorParam id="2651"  name="shear">
            <InterpolatingParam id="2652" interp="linr"  time="-9999999/1" value="0" leadInLength="0/1"  />
            <InterpolatingParam id="2653" interp="linr"  time="-9999999/1" value="0" leadInLength="0/1"  />
            <InterpolatingParam id="2654" interp="linr"  time="-9999999/1" value="0" leadInLength="0/1"  />
           </VectorParam>
           <VectorParam id="2655"  name="scale">
            <InterpolatingParam id="2656" interp="linr"  time="-9999999/1" value="0.625" leadInLength="0/1"  />
            <InterpolatingParam id="2657" interp="linr"  time="-9999999/1" value="0.625" leadInLength="0/1"  />
            <InterpolatingParam id="2658" interp="linr"  time="-9999999/1" value="1" leadInLength="0/1"  />
           </VectorParam>
           <VectorParam id="2659"  name="anchor">
            <InterpolatingParam id="2660" interp="linr"  time="0/1" value="0" leadInLength="0/1"  />
            <InterpolatingParam id="2661" interp="linr"  time="0/1" value="0" leadInLength="0/1"  />
            <InterpolatingParam id="2662" interp="linr"  time="0/1" value="0" leadInLength="0/1"  />
           </VectorParam>
          </Transformer>
          <Parameters>
           <VectorParam id="2663"  name="sourceCrop">
            <InterpolatingParam id="2664" interp="linr"  time="0/1" value="0" leadInLength="0/1"  />
            <InterpolatingParam id="2665" interp="linr"  time="0/1" value="0" leadInLength="0/1"  />
            <InterpolatingParam id="2666" interp="linr"  time="0/1" value="0" leadInLength="0/1"  />
            <InterpolatingParam id="2667" interp="linr"  time="0/1" value="0" leadInLength="0/1"  />
           </VectorParam>
           <VectorParam id="2668"  name="geometryCrop">
            <InterpolatingParam id="2669" interp="linr"  time="-9999999/1" value="0" leadInLength="0/1"  />
            <InterpolatingParam id="2670" interp="linr"  time="-9999999/1" value="0" leadInLength="0/1"  />
            <InterpolatingParam id="2671" interp="linr"  time="-9999999/1" value="0" leadInLength="0/1"  />
            <InterpolatingParam id="2672" interp="linr"  time="-9999999/1" value="0" leadInLength="0/1"  />
           </VectorParam>
           <InterpolatingParam id="2673" interp="linr"  time="-9999999/1" value="1" leadInLength="0/1"  name="opacity"/>
           <InterpolatingParam id="2674" interp="linr"  time="0/1" value="1" leadInLength="0/1"  name="cursorOpacity"/>
           <InterpolatingParam id="2675" interp="linr"  time="0/1" value="1" leadInLength="0/1"  name="cursorScale"/>
          </Parameters>
          <Effects>
           <GenericEffect id="2676" name = "CursorBaseEffectName" >
            <Parameters>
            <InterpolatingParam id="2677" interp="linr"  time="-9999999/1" value="1" leadInLength="0/1"   name="cursorSize"/>
            <InterpolatingParam id="2678" interp="linr"  time="-9999999/1" value="0" leadInLength="0/1"   name="highlightBlurRadius"/>
            <InterpolatingParam id="2679" interp="linr"  time="-9999999/1" value="0" leadInLength="0/1"   name="highlightColorBlue"/>
            <InterpolatingParam id="2680" interp="linr"  time="-9999999/1" value="255" leadInLength="0/1"   name="highlightColorGreen"/>
            <InterpolatingParam id="2681" interp="linr"  time="-9999999/1" value="255" leadInLength="0/1"   name="highlightColorRed"/>
            <InterpolatingParam id="2682" interp="linr"  time="-9999999/1" value="5" leadInLength="0/1"   name="highlightFeatherSize"/>
            <InterpolatingParam id="2683" interp="linr"  time="-9999999/1" value="2" leadInLength="0/1"   name="highlightMagnification"/>
            <InterpolatingParam id="2684" interp="linr"  time="-9999999/1" value="1" leadInLength="0/1"   name="highlightOpacity"/>
            <InterpolatingParam id="2685" interp="linr"  time="-9999999/1" value="45" leadInLength="0/1"   name="highlightSize"/>
            <Parameter id="2686"   name="highlightType">
             <Keyframes>
             <Keyframe id="2687"  time="-9999999/1" value="0" leadInLength="0/1"  />
             </Keyframes>
            </Parameter>
            <InterpolatingParam id="2688" interp="linr"  time="-9999999/1" value="0" leadInLength="0/1"   name="leftClickColorBlue"/>
            <InterpolatingParam id="2689" interp="linr"  time="-9999999/1" value="0" leadInLength="0/1"   name="leftClickColorGreen"/>
            <InterpolatingParam id="2690" interp="linr"  time="-9999999/1" value="255" leadInLength="0/1"   name="leftClickColorRed"/>
            <InterpolatingParam id="2691" interp="linr"  time="-9999999/1" value="0.80000000000000004" leadInLength="0/1"   name="leftClickDuration"/>
            <InterpolatingParam id="2692" interp="linr"  time="-9999999/1" value="20" leadInLength="0/1"   name="leftClickSize"/>
            <Parameter id="2693"   name="leftClickSoundFilename">
             <Keyframes>
             <Keyframe id="2694"  time="-9999999/1" value="" leadInLength="0/1"  />
             </Keyframes>
            </Parameter>
            <InterpolatingParam id="2695" interp="linr"  time="-9999999/1" value="1" leadInLength="0/1"   name="leftClickSoundVolume"/>
            <Parameter id="2696"   name="leftClickType">
             <Keyframes>
             <Keyframe id="2697"  time="-9999999/1" value="0" leadInLength="0/1"  />
             </Keyframes>
            </Parameter>
            <InterpolatingParam id="2698" interp="linr"  time="-9999999/1" value="1" leadInLength="0/1"   name="opacity"/>
            <InterpolatingParam id="2699" interp="linr"  time="-9999999/1" value="255" leadInLength="0/1"   name="rightClickColorBlue"/>
            <InterpolatingParam id="2700" interp="linr"  time="-9999999/1" value="0" leadInLength="0/1"   name="rightClickColorGreen"/>
            <InterpolatingParam id="2701" interp="linr"  time="-9999999/1" value="0" leadInLength="0/1"   name="rightClickColorRed"/>
            <InterpolatingParam id="2702" interp="linr"  time="-9999999/1" value="0.80000000000000004" leadInLength="0/1"   name="rightClickDuration"/>
            <InterpolatingParam id="2703" interp="linr"  time="-9999999/1" value="20" leadInLength="0/1"   name="rightClickSize"/>
            <Parameter id="2704"   name="rightClickSoundFilename">
             <Keyframes>
             <Keyframe id="2705"  time="-9999999/1" value="" leadInLength="0/1"  />
             </Keyframes>
            </Parameter>
            <InterpolatingParam id="2706" interp="linr"  time="-9999999/1" value="1" leadInLength="0/1"   name="rightClickSoundVolume"/>
            <Parameter id="2707"   name="rightClickType">
             <Keyframes>
             <Keyframe id="2708"  time="-9999999/1" value="0" leadInLength="0/1"  />
             </Keyframes>
            </Parameter>
            </Parameters>
            <MetaData>
             <entry key="effectIndex" val="0"/>
            </MetaData>
           </GenericEffect>
          </Effects>
          <Attributes>
           <Attribute id="2709" value="" name="ident"/>
          </Attributes>
          <ExtraData>
           <Entry key="ZoomPanBin">
            <ZoomPanBin id="2710"  >
             <ZoomPanKeyframes>
              <ZoomPanKeyframe id="2711" timeRangeEnd="-9999999/1" timeRangeDuration="0/1" interpolaterName="linr"  />
             </ZoomPanKeyframes>
            </ZoomPanBin>
           </Entry>
           <Entry key="CursorEffectBin">
            <CursorEffectBin id="2712"  >
             <CursorEffectKeyframes>
              <CursorEffectKeyframe id="2713" timeRangeEnd="-9999999/1" timeRangeDuration="0/1" interpolaterName=""  />
             </CursorEffectKeyframes>
            </CursorEffectBin>
           </Entry>
          </ExtraData>
         </ScreenVMFile>
         <MetaData>
          <entry key="AutoAppliedSmartFocus" val="False"/>
          <entry key="WinSubProjectDisplayName" val=""/>
         </MetaData>
        </UnifiedMedia>
        <UnifiedMedia id="2714"  >
         <AMFile id="2715" start="19694" duration="711" scalar="1/1" mediaStart="3793/1" mediaDuration="711/1" trackNumber="1" src="6" channelNumber="0,1" >
          <Parameters>
           <InterpolatingParam id="2716" interp="linr"  time="0/1" value="1" leadInLength="0/1"  name="volume"/>
           <Parameter id="2717"  name="captions"/>
          </Parameters>
          <Attributes>
           <Attribute id="2718" value="" name="ident"/>
           <Attribute id="2719" value="44100" name="sampleRate"/>
           <Attribute id="2720" value="16" name="bitDepth"/>
           <Attribute id="2721" value="1" name="gain"/>
           <Attribute id="2722" value="0" name="mixToMono"/>
          </Attributes>
         </AMFile>
         <ScreenVMFile id="2723" start="19694" duration="711" scalar="1/1" mediaStart="3793/1" mediaDuration="711/1" trackNumber="0" src="6" >
          <Transformer>
           <VectorParam id="2724"  name="translation">
            <InterpolatingParam id="2725" interp="linr"  time="-9999999/1" value="0" leadInLength="0/1"  />
            <InterpolatingParam id="2726" interp="linr"  time="-9999999/1" value="0" leadInLength="0/1"  />
            <InterpolatingParam id="2727" interp="linr"  time="-9999999/1" value="0" leadInLength="0/1"  />
           </VectorParam>
           <VectorParam id="2728"  name="rotation">
            <InterpolatingParam id="2729" interp="linr"  time="-9999999/1" value="0" leadInLength="0/1"  />
            <InterpolatingParam id="2730" interp="linr"  time="-9999999/1" value="0" leadInLength="0/1"  />
            <InterpolatingParam id="2731" interp="linr"  time="-9999999/1" value="0" leadInLength="0/1"  />
           </VectorParam>
           <VectorParam id="2732"  name="shear">
            <InterpolatingParam id="2733" interp="linr"  time="-9999999/1" value="0" leadInLength="0/1"  />
            <InterpolatingParam id="2734" interp="linr"  time="-9999999/1" value="0" leadInLength="0/1"  />
            <InterpolatingParam id="2735" interp="linr"  time="-9999999/1" value="0" leadInLength="0/1"  />
           </VectorParam>
           <VectorParam id="2736"  name="scale">
            <InterpolatingParam id="2737" interp="linr"  time="-9999999/1" value="0.625" leadInLength="0/1"  />
            <InterpolatingParam id="2738" interp="linr"  time="-9999999/1" value="0.625" leadInLength="0/1"  />
            <InterpolatingParam id="2739" interp="linr"  time="-9999999/1" value="1" leadInLength="0/1"  />
           </VectorParam>
           <VectorParam id="2740"  name="anchor">
            <InterpolatingParam id="2741" interp="linr"  time="0/1" value="0" leadInLength="0/1"  />
            <InterpolatingParam id="2742" interp="linr"  time="0/1" value="0" leadInLength="0/1"  />
            <InterpolatingParam id="2743" interp="linr"  time="0/1" value="0" leadInLength="0/1"  />
           </VectorParam>
          </Transformer>
          <Parameters>
           <VectorParam id="2744"  name="sourceCrop">
            <InterpolatingParam id="2745" interp="linr"  time="0/1" value="0" leadInLength="0/1"  />
            <InterpolatingParam id="2746" interp="linr"  time="0/1" value="0" leadInLength="0/1"  />
            <InterpolatingParam id="2747" interp="linr"  time="0/1" value="0" leadInLength="0/1"  />
            <InterpolatingParam id="2748" interp="linr"  time="0/1" value="0" leadInLength="0/1"  />
           </VectorParam>
           <VectorParam id="2749"  name="geometryCrop">
            <InterpolatingParam id="2750" interp="linr"  time="-9999999/1" value="0" leadInLength="0/1"  />
            <InterpolatingParam id="2751" interp="linr"  time="-9999999/1" value="0" leadInLength="0/1"  />
            <InterpolatingParam id="2752" interp="linr"  time="-9999999/1" value="0" leadInLength="0/1"  />
            <InterpolatingParam id="2753" interp="linr"  time="-9999999/1" value="0" leadInLength="0/1"  />
           </VectorParam>
           <InterpolatingParam id="2754" interp="linr"  time="-9999999/1" value="1" leadInLength="0/1"  name="opacity"/>
           <InterpolatingParam id="2755" interp="linr"  time="0/1" value="1" leadInLength="0/1"  name="cursorOpacity"/>
           <InterpolatingParam id="2756" interp="linr"  time="0/1" value="1" leadInLength="0/1"  name="cursorScale"/>
          </Parameters>
          <Effects>
           <GenericEffect id="2757" name = "CursorBaseEffectName" >
            <Parameters>
            <InterpolatingParam id="2758" interp="linr"  time="-9999999/1" value="1" leadInLength="0/1"   name="cursorSize"/>
            <InterpolatingParam id="2759" interp="linr"  time="-9999999/1" value="0" leadInLength="0/1"   name="highlightBlurRadius"/>
            <InterpolatingParam id="2760" interp="linr"  time="-9999999/1" value="0" leadInLength="0/1"   name="highlightColorBlue"/>
            <InterpolatingParam id="2761" interp="linr"  time="-9999999/1" value="255" leadInLength="0/1"   name="highlightColorGreen"/>
            <InterpolatingParam id="2762" interp="linr"  time="-9999999/1" value="255" leadInLength="0/1"   name="highlightColorRed"/>
            <InterpolatingParam id="2763" interp="linr"  time="-9999999/1" value="5" leadInLength="0/1"   name="highlightFeatherSize"/>
            <InterpolatingParam id="2764" interp="linr"  time="-9999999/1" value="2" leadInLength="0/1"   name="highlightMagnification"/>
            <InterpolatingParam id="2765" interp="linr"  time="-9999999/1" value="1" leadInLength="0/1"   name="highlightOpacity"/>
            <InterpolatingParam id="2766" interp="linr"  time="-9999999/1" value="45" leadInLength="0/1"   name="highlightSize"/>
            <Parameter id="2767"   name="highlightType">
             <Keyframes>
             <Keyframe id="2768"  time="-9999999/1" value="0" leadInLength="0/1"  />
             </Keyframes>
            </Parameter>
            <InterpolatingParam id="2769" interp="linr"  time="-9999999/1" value="0" leadInLength="0/1"   name="leftClickColorBlue"/>
            <InterpolatingParam id="2770" interp="linr"  time="-9999999/1" value="0" leadInLength="0/1"   name="leftClickColorGreen"/>
            <InterpolatingParam id="2771" interp="linr"  time="-9999999/1" value="255" leadInLength="0/1"   name="leftClickColorRed"/>
            <InterpolatingParam id="2772" interp="linr"  time="-9999999/1" value="0.80000000000000004" leadInLength="0/1"   name="leftClickDuration"/>
            <InterpolatingParam id="2773" interp="linr"  time="-9999999/1" value="20" leadInLength="0/1"   name="leftClickSize"/>
            <Parameter id="2774"   name="leftClickSoundFilename">
             <Keyframes>
             <Keyframe id="2775"  time="-9999999/1" value="" leadInLength="0/1"  />
             </Keyframes>
            </Parameter>
            <InterpolatingParam id="2776" interp="linr"  time="-9999999/1" value="1" leadInLength="0/1"   name="leftClickSoundVolume"/>
            <Parameter id="2777"   name="leftClickType">
             <Keyframes>
             <Keyframe id="2778"  time="-9999999/1" value="0" leadInLength="0/1"  />
             </Keyframes>
            </Parameter>
            <InterpolatingParam id="2779" interp="linr"  time="-9999999/1" value="1" leadInLength="0/1"   name="opacity"/>
            <InterpolatingParam id="2780" interp="linr"  time="-9999999/1" value="255" leadInLength="0/1"   name="rightClickColorBlue"/>
            <InterpolatingParam id="2781" interp="linr"  time="-9999999/1" value="0" leadInLength="0/1"   name="rightClickColorGreen"/>
            <InterpolatingParam id="2782" interp="linr"  time="-9999999/1" value="0" leadInLength="0/1"   name="rightClickColorRed"/>
            <InterpolatingParam id="2783" interp="linr"  time="-9999999/1" value="0.80000000000000004" leadInLength="0/1"   name="rightClickDuration"/>
            <InterpolatingParam id="2784" interp="linr"  time="-9999999/1" value="20" leadInLength="0/1"   name="rightClickSize"/>
            <Parameter id="2785"   name="rightClickSoundFilename">
             <Keyframes>
             <Keyframe id="2786"  time="-9999999/1" value="" leadInLength="0/1"  />
             </Keyframes>
            </Parameter>
            <InterpolatingParam id="2787" interp="linr"  time="-9999999/1" value="1" leadInLength="0/1"   name="rightClickSoundVolume"/>
            <Parameter id="2788"   name="rightClickType">
             <Keyframes>
             <Keyframe id="2789"  time="-9999999/1" value="0" leadInLength="0/1"  />
             </Keyframes>
            </Parameter>
            </Parameters>
            <MetaData>
             <entry key="effectIndex" val="0"/>
            </MetaData>
           </GenericEffect>
          </Effects>
          <Attributes>
           <Attribute id="2790" value="" name="ident"/>
          </Attributes>
          <ExtraData>
           <Entry key="ZoomPanBin">
            <ZoomPanBin id="2791"  >
             <ZoomPanKeyframes>
              <ZoomPanKeyframe id="2792" timeRangeEnd="-9999999/1" timeRangeDuration="0/1" interpolaterName="linr"  />
             </ZoomPanKeyframes>
            </ZoomPanBin>
           </Entry>
           <Entry key="CursorEffectBin">
            <CursorEffectBin id="2793"  >
             <CursorEffectKeyframes>
              <CursorEffectKeyframe id="2794" timeRangeEnd="-9999999/1" timeRangeDuration="0/1" interpolaterName=""  />
             </CursorEffectKeyframes>
            </CursorEffectBin>
           </Entry>
          </ExtraData>
         </ScreenVMFile>
         <MetaData>
          <entry key="AutoAppliedSmartFocus" val="False"/>
          <entry key="WinSubProjectDisplayName" val=""/>
         </MetaData>
        </UnifiedMedia>
        <UnifiedMedia id="2795"  >
         <AMFile id="2796" start="20405" duration="62" scalar="1/1" mediaStart="4550/1" mediaDuration="62/1" trackNumber="1" src="6" channelNumber="0,1" >
          <Parameters>
           <InterpolatingParam id="2797" interp="linr"  time="0/1" value="1" leadInLength="0/1"  name="volume"/>
           <Parameter id="2798"  name="captions"/>
          </Parameters>
          <Attributes>
           <Attribute id="2799" value="" name="ident"/>
           <Attribute id="2800" value="44100" name="sampleRate"/>
           <Attribute id="2801" value="16" name="bitDepth"/>
           <Attribute id="2802" value="1" name="gain"/>
           <Attribute id="2803" value="0" name="mixToMono"/>
          </Attributes>
         </AMFile>
         <ScreenVMFile id="2804" start="20405" duration="62" scalar="1/1" mediaStart="4550/1" mediaDuration="62/1" trackNumber="0" src="6" >
          <Transformer>
           <VectorParam id="2805"  name="translation">
            <InterpolatingParam id="2806" interp="linr"  time="-9999999/1" value="0" leadInLength="0/1"  />
            <InterpolatingParam id="2807" interp="linr"  time="-9999999/1" value="0" leadInLength="0/1"  />
            <InterpolatingParam id="2808" interp="linr"  time="-9999999/1" value="0" leadInLength="0/1"  />
           </VectorParam>
           <VectorParam id="2809"  name="rotation">
            <InterpolatingParam id="2810" interp="linr"  time="-9999999/1" value="0" leadInLength="0/1"  />
            <InterpolatingParam id="2811" interp="linr"  time="-9999999/1" value="0" leadInLength="0/1"  />
            <InterpolatingParam id="2812" interp="linr"  time="-9999999/1" value="0" leadInLength="0/1"  />
           </VectorParam>
           <VectorParam id="2813"  name="shear">
            <InterpolatingParam id="2814" interp="linr"  time="-9999999/1" value="0" leadInLength="0/1"  />
            <InterpolatingParam id="2815" interp="linr"  time="-9999999/1" value="0" leadInLength="0/1"  />
            <InterpolatingParam id="2816" interp="linr"  time="-9999999/1" value="0" leadInLength="0/1"  />
           </VectorParam>
           <VectorParam id="2817"  name="scale">
            <InterpolatingParam id="2818" interp="linr"  time="-9999999/1" value="0.625" leadInLength="0/1"  />
            <InterpolatingParam id="2819" interp="linr"  time="-9999999/1" value="0.625" leadInLength="0/1"  />
            <InterpolatingParam id="2820" interp="linr"  time="-9999999/1" value="1" leadInLength="0/1"  />
           </VectorParam>
           <VectorParam id="2821"  name="anchor">
            <InterpolatingParam id="2822" interp="linr"  time="0/1" value="0" leadInLength="0/1"  />
            <InterpolatingParam id="2823" interp="linr"  time="0/1" value="0" leadInLength="0/1"  />
            <InterpolatingParam id="2824" interp="linr"  time="0/1" value="0" leadInLength="0/1"  />
           </VectorParam>
          </Transformer>
          <Parameters>
           <VectorParam id="2825"  name="sourceCrop">
            <InterpolatingParam id="2826" interp="linr"  time="0/1" value="0" leadInLength="0/1"  />
            <InterpolatingParam id="2827" interp="linr"  time="0/1" value="0" leadInLength="0/1"  />
            <InterpolatingParam id="2828" interp="linr"  time="0/1" value="0" leadInLength="0/1"  />
            <InterpolatingParam id="2829" interp="linr"  time="0/1" value="0" leadInLength="0/1"  />
           </VectorParam>
           <VectorParam id="2830"  name="geometryCrop">
            <InterpolatingParam id="2831" interp="linr"  time="-9999999/1" value="0" leadInLength="0/1"  />
            <InterpolatingParam id="2832" interp="linr"  time="-9999999/1" value="0" leadInLength="0/1"  />
            <InterpolatingParam id="2833" interp="linr"  time="-9999999/1" value="0" leadInLength="0/1"  />
            <InterpolatingParam id="2834" interp="linr"  time="-9999999/1" value="0" leadInLength="0/1"  />
           </VectorParam>
           <InterpolatingParam id="2835" interp="linr"  time="-9999999/1" value="1" leadInLength="0/1"  name="opacity"/>
           <InterpolatingParam id="2836" interp="linr"  time="0/1" value="1" leadInLength="0/1"  name="cursorOpacity"/>
           <InterpolatingParam id="2837" interp="linr"  time="0/1" value="1" leadInLength="0/1"  name="cursorScale"/>
          </Parameters>
          <Effects>
           <GenericEffect id="2838" name = "CursorBaseEffectName" >
            <Parameters>
            <InterpolatingParam id="2839" interp="linr"  time="-9999999/1" value="1" leadInLength="0/1"   name="cursorSize"/>
            <InterpolatingParam id="2840" interp="linr"  time="-9999999/1" value="0" leadInLength="0/1"   name="highlightBlurRadius"/>
            <InterpolatingParam id="2841" interp="linr"  time="-9999999/1" value="0" leadInLength="0/1"   name="highlightColorBlue"/>
            <InterpolatingParam id="2842" interp="linr"  time="-9999999/1" value="255" leadInLength="0/1"   name="highlightColorGreen"/>
            <InterpolatingParam id="2843" interp="linr"  time="-9999999/1" value="255" leadInLength="0/1"   name="highlightColorRed"/>
            <InterpolatingParam id="2844" interp="linr"  time="-9999999/1" value="5" leadInLength="0/1"   name="highlightFeatherSize"/>
            <InterpolatingParam id="2845" interp="linr"  time="-9999999/1" value="2" leadInLength="0/1"   name="highlightMagnification"/>
            <InterpolatingParam id="2846" interp="linr"  time="-9999999/1" value="1" leadInLength="0/1"   name="highlightOpacity"/>
            <InterpolatingParam id="2847" interp="linr"  time="-9999999/1" value="45" leadInLength="0/1"   name="highlightSize"/>
            <Parameter id="2848"   name="highlightType">
             <Keyframes>
             <Keyframe id="2849"  time="-9999999/1" value="0" leadInLength="0/1"  />
             </Keyframes>
            </Parameter>
            <InterpolatingParam id="2850" interp="linr"  time="-9999999/1" value="0" leadInLength="0/1"   name="leftClickColorBlue"/>
            <InterpolatingParam id="2851" interp="linr"  time="-9999999/1" value="0" leadInLength="0/1"   name="leftClickColorGreen"/>
            <InterpolatingParam id="2852" interp="linr"  time="-9999999/1" value="255" leadInLength="0/1"   name="leftClickColorRed"/>
            <InterpolatingParam id="2853" interp="linr"  time="-9999999/1" value="0.80000000000000004" leadInLength="0/1"   name="leftClickDuration"/>
            <InterpolatingParam id="2854" interp="linr"  time="-9999999/1" value="20" leadInLength="0/1"   name="leftClickSize"/>
            <Parameter id="2855"   name="leftClickSoundFilename">
             <Keyframes>
             <Keyframe id="2856"  time="-9999999/1" value="" leadInLength="0/1"  />
             </Keyframes>
            </Parameter>
            <InterpolatingParam id="2857" interp="linr"  time="-9999999/1" value="1" leadInLength="0/1"   name="leftClickSoundVolume"/>
            <Parameter id="2858"   name="leftClickType">
             <Keyframes>
             <Keyframe id="2859"  time="-9999999/1" value="0" leadInLength="0/1"  />
             </Keyframes>
            </Parameter>
            <InterpolatingParam id="2860" interp="linr"  time="-9999999/1" value="1" leadInLength="0/1"   name="opacity"/>
            <InterpolatingParam id="2861" interp="linr"  time="-9999999/1" value="255" leadInLength="0/1"   name="rightClickColorBlue"/>
            <InterpolatingParam id="2862" interp="linr"  time="-9999999/1" value="0" leadInLength="0/1"   name="rightClickColorGreen"/>
            <InterpolatingParam id="2863" interp="linr"  time="-9999999/1" value="0" leadInLength="0/1"   name="rightClickColorRed"/>
            <InterpolatingParam id="2864" interp="linr"  time="-9999999/1" value="0.80000000000000004" leadInLength="0/1"   name="rightClickDuration"/>
            <InterpolatingParam id="2865" interp="linr"  time="-9999999/1" value="20" leadInLength="0/1"   name="rightClickSize"/>
            <Parameter id="2866"   name="rightClickSoundFilename">
             <Keyframes>
             <Keyframe id="2867"  time="-9999999/1" value="" leadInLength="0/1"  />
             </Keyframes>
            </Parameter>
            <InterpolatingParam id="2868" interp="linr"  time="-9999999/1" value="1" leadInLength="0/1"   name="rightClickSoundVolume"/>
            <Parameter id="2869"   name="rightClickType">
             <Keyframes>
             <Keyframe id="2870"  time="-9999999/1" value="0" leadInLength="0/1"  />
             </Keyframes>
            </Parameter>
            </Parameters>
            <MetaData>
             <entry key="effectIndex" val="0"/>
            </MetaData>
           </GenericEffect>
          </Effects>
          <Attributes>
           <Attribute id="2871" value="" name="ident"/>
          </Attributes>
          <ExtraData>
           <Entry key="ZoomPanBin">
            <ZoomPanBin id="2872"  >
             <ZoomPanKeyframes>
              <ZoomPanKeyframe id="2873" timeRangeEnd="-9999999/1" timeRangeDuration="0/1" interpolaterName="linr"  />
             </ZoomPanKeyframes>
            </ZoomPanBin>
           </Entry>
           <Entry key="CursorEffectBin">
            <CursorEffectBin id="2874"  >
             <CursorEffectKeyframes>
              <CursorEffectKeyframe id="2875" timeRangeEnd="-9999999/1" timeRangeDuration="0/1" interpolaterName=""  />
             </CursorEffectKeyframes>
            </CursorEffectBin>
           </Entry>
          </ExtraData>
         </ScreenVMFile>
         <MetaData>
          <entry key="AutoAppliedSmartFocus" val="False"/>
          <entry key="WinSubProjectDisplayName" val=""/>
         </MetaData>
        </UnifiedMedia>
        <UnifiedMedia id="2876"  >
         <AMFile id="2877" start="20467" duration="41" scalar="1/1" mediaStart="4648/1" mediaDuration="41/1" trackNumber="1" src="6" channelNumber="0,1" >
          <Parameters>
           <InterpolatingParam id="2878" interp="linr"  time="0/1" value="1" leadInLength="0/1"  name="volume"/>
           <Parameter id="2879"  name="captions"/>
          </Parameters>
          <Attributes>
           <Attribute id="2880" value="" name="ident"/>
           <Attribute id="2881" value="44100" name="sampleRate"/>
           <Attribute id="2882" value="16" name="bitDepth"/>
           <Attribute id="2883" value="1" name="gain"/>
           <Attribute id="2884" value="0" name="mixToMono"/>
          </Attributes>
         </AMFile>
         <ScreenVMFile id="2885" start="20467" duration="41" scalar="1/1" mediaStart="4648/1" mediaDuration="41/1" trackNumber="0" src="6" >
          <Transformer>
           <VectorParam id="2886"  name="translation">
            <InterpolatingParam id="2887" interp="linr"  time="-9999999/1" value="0" leadInLength="0/1"  />
            <InterpolatingParam id="2888" interp="linr"  time="-9999999/1" value="0" leadInLength="0/1"  />
            <InterpolatingParam id="2889" interp="linr"  time="-9999999/1" value="0" leadInLength="0/1"  />
           </VectorParam>
           <VectorParam id="2890"  name="rotation">
            <InterpolatingParam id="2891" interp="linr"  time="-9999999/1" value="0" leadInLength="0/1"  />
            <InterpolatingParam id="2892" interp="linr"  time="-9999999/1" value="0" leadInLength="0/1"  />
            <InterpolatingParam id="2893" interp="linr"  time="-9999999/1" value="0" leadInLength="0/1"  />
           </VectorParam>
           <VectorParam id="2894"  name="shear">
            <InterpolatingParam id="2895" interp="linr"  time="-9999999/1" value="0" leadInLength="0/1"  />
            <InterpolatingParam id="2896" interp="linr"  time="-9999999/1" value="0" leadInLength="0/1"  />
            <InterpolatingParam id="2897" interp="linr"  time="-9999999/1" value="0" leadInLength="0/1"  />
           </VectorParam>
           <VectorParam id="2898"  name="scale">
            <InterpolatingParam id="2899" interp="linr"  time="-9999999/1" value="0.625" leadInLength="0/1"  />
            <InterpolatingParam id="2900" interp="linr"  time="-9999999/1" value="0.625" leadInLength="0/1"  />
            <InterpolatingParam id="2901" interp="linr"  time="-9999999/1" value="1" leadInLength="0/1"  />
           </VectorParam>
           <VectorParam id="2902"  name="anchor">
            <InterpolatingParam id="2903" interp="linr"  time="0/1" value="0" leadInLength="0/1"  />
            <InterpolatingParam id="2904" interp="linr"  time="0/1" value="0" leadInLength="0/1"  />
            <InterpolatingParam id="2905" interp="linr"  time="0/1" value="0" leadInLength="0/1"  />
           </VectorParam>
          </Transformer>
          <Parameters>
           <VectorParam id="2906"  name="sourceCrop">
            <InterpolatingParam id="2907" interp="linr"  time="0/1" value="0" leadInLength="0/1"  />
            <InterpolatingParam id="2908" interp="linr"  time="0/1" value="0" leadInLength="0/1"  />
            <InterpolatingParam id="2909" interp="linr"  time="0/1" value="0" leadInLength="0/1"  />
            <InterpolatingParam id="2910" interp="linr"  time="0/1" value="0" leadInLength="0/1"  />
           </VectorParam>
           <VectorParam id="2911"  name="geometryCrop">
            <InterpolatingParam id="2912" interp="linr"  time="-9999999/1" value="0" leadInLength="0/1"  />
            <InterpolatingParam id="2913" interp="linr"  time="-9999999/1" value="0" leadInLength="0/1"  />
            <InterpolatingParam id="2914" interp="linr"  time="-9999999/1" value="0" leadInLength="0/1"  />
            <InterpolatingParam id="2915" interp="linr"  time="-9999999/1" value="0" leadInLength="0/1"  />
           </VectorParam>
           <InterpolatingParam id="2916" interp="linr"  time="-9999999/1" value="1" leadInLength="0/1"  name="opacity"/>
           <InterpolatingParam id="2917" interp="linr"  time="0/1" value="1" leadInLength="0/1"  name="cursorOpacity"/>
           <InterpolatingParam id="2918" interp="linr"  time="0/1" value="1" leadInLength="0/1"  name="cursorScale"/>
          </Parameters>
          <Effects>
           <GenericEffect id="2919" name = "CursorBaseEffectName" >
            <Parameters>
            <InterpolatingParam id="2920" interp="linr"  time="-9999999/1" value="1" leadInLength="0/1"   name="cursorSize"/>
            <InterpolatingParam id="2921" interp="linr"  time="-9999999/1" value="0" leadInLength="0/1"   name="highlightBlurRadius"/>
            <InterpolatingParam id="2922" interp="linr"  time="-9999999/1" value="0" leadInLength="0/1"   name="highlightColorBlue"/>
            <InterpolatingParam id="2923" interp="linr"  time="-9999999/1" value="255" leadInLength="0/1"   name="highlightColorGreen"/>
            <InterpolatingParam id="2924" interp="linr"  time="-9999999/1" value="255" leadInLength="0/1"   name="highlightColorRed"/>
            <InterpolatingParam id="2925" interp="linr"  time="-9999999/1" value="5" leadInLength="0/1"   name="highlightFeatherSize"/>
            <InterpolatingParam id="2926" interp="linr"  time="-9999999/1" value="2" leadInLength="0/1"   name="highlightMagnification"/>
            <InterpolatingParam id="2927" interp="linr"  time="-9999999/1" value="1" leadInLength="0/1"   name="highlightOpacity"/>
            <InterpolatingParam id="2928" interp="linr"  time="-9999999/1" value="45" leadInLength="0/1"   name="highlightSize"/>
            <Parameter id="2929"   name="highlightType">
             <Keyframes>
             <Keyframe id="2930"  time="-9999999/1" value="0" leadInLength="0/1"  />
             </Keyframes>
            </Parameter>
            <InterpolatingParam id="2931" interp="linr"  time="-9999999/1" value="0" leadInLength="0/1"   name="leftClickColorBlue"/>
            <InterpolatingParam id="2932" interp="linr"  time="-9999999/1" value="0" leadInLength="0/1"   name="leftClickColorGreen"/>
            <InterpolatingParam id="2933" interp="linr"  time="-9999999/1" value="255" leadInLength="0/1"   name="leftClickColorRed"/>
            <InterpolatingParam id="2934" interp="linr"  time="-9999999/1" value="0.80000000000000004" leadInLength="0/1"   name="leftClickDuration"/>
            <InterpolatingParam id="2935" interp="linr"  time="-9999999/1" value="20" leadInLength="0/1"   name="leftClickSize"/>
            <Parameter id="2936"   name="leftClickSoundFilename">
             <Keyframes>
             <Keyframe id="2937"  time="-9999999/1" value="" leadInLength="0/1"  />
             </Keyframes>
            </Parameter>
            <InterpolatingParam id="2938" interp="linr"  time="-9999999/1" value="1" leadInLength="0/1"   name="leftClickSoundVolume"/>
            <Parameter id="2939"   name="leftClickType">
             <Keyframes>
             <Keyframe id="2940"  time="-9999999/1" value="0" leadInLength="0/1"  />
             </Keyframes>
            </Parameter>
            <InterpolatingParam id="2941" interp="linr"  time="-9999999/1" value="1" leadInLength="0/1"   name="opacity"/>
            <InterpolatingParam id="2942" interp="linr"  time="-9999999/1" value="255" leadInLength="0/1"   name="rightClickColorBlue"/>
            <InterpolatingParam id="2943" interp="linr"  time="-9999999/1" value="0" leadInLength="0/1"   name="rightClickColorGreen"/>
            <InterpolatingParam id="2944" interp="linr"  time="-9999999/1" value="0" leadInLength="0/1"   name="rightClickColorRed"/>
            <InterpolatingParam id="2945" interp="linr"  time="-9999999/1" value="0.80000000000000004" leadInLength="0/1"   name="rightClickDuration"/>
            <InterpolatingParam id="2946" interp="linr"  time="-9999999/1" value="20" leadInLength="0/1"   name="rightClickSize"/>
            <Parameter id="2947"   name="rightClickSoundFilename">
             <Keyframes>
             <Keyframe id="2948"  time="-9999999/1" value="" leadInLength="0/1"  />
             </Keyframes>
            </Parameter>
            <InterpolatingParam id="2949" interp="linr"  time="-9999999/1" value="1" leadInLength="0/1"   name="rightClickSoundVolume"/>
            <Parameter id="2950"   name="rightClickType">
             <Keyframes>
             <Keyframe id="2951"  time="-9999999/1" value="0" leadInLength="0/1"  />
             </Keyframes>
            </Parameter>
            </Parameters>
            <MetaData>
             <entry key="effectIndex" val="0"/>
            </MetaData>
           </GenericEffect>
          </Effects>
          <Attributes>
           <Attribute id="2952" value="" name="ident"/>
          </Attributes>
          <ExtraData>
           <Entry key="ZoomPanBin">
            <ZoomPanBin id="2953"  >
             <ZoomPanKeyframes>
              <ZoomPanKeyframe id="2954" timeRangeEnd="-9999999/1" timeRangeDuration="0/1" interpolaterName="linr"  />
             </ZoomPanKeyframes>
            </ZoomPanBin>
           </Entry>
           <Entry key="CursorEffectBin">
            <CursorEffectBin id="2955"  >
             <CursorEffectKeyframes>
              <CursorEffectKeyframe id="2956" timeRangeEnd="-9999999/1" timeRangeDuration="0/1" interpolaterName=""  />
             </CursorEffectKeyframes>
            </CursorEffectBin>
           </Entry>
          </ExtraData>
         </ScreenVMFile>
         <MetaData>
          <entry key="AutoAppliedSmartFocus" val="False"/>
          <entry key="WinSubProjectDisplayName" val=""/>
         </MetaData>
        </UnifiedMedia>
       </Medias>
      </GenericTrack>
      <GenericTrack id="2957"  >
       <Attributes>
        <Attribute id="2958" value="" name="ident"/>
        <Attribute id="2959" value="0" name="audioMuted"/>
        <Attribute id="2960" value="0" name="videoHidden"/>
       </Attributes>
       <MetaData>
        <entry key="IsLocked" val="False"/>
        <entry key="WinTrackHeight" val="62"/>
       </MetaData>
       <Medias>
        <Callout id="2961" start="0" duration="474" scalar="1/1" mediaStart="-673/1" mediaDuration="474/1" >
         <Transformer>
          <VectorParam id="2962"  name="translation">
           <InterpolatingParam id="2963" interp="linr"  time="-9999999/1" value="214.63054607494342" leadInLength="0/1"  />
           <InterpolatingParam id="2964" interp="linr"  time="-9999999/1" value="72.345475154522205" leadInLength="0/1"  />
           <InterpolatingParam id="2965" interp="linr"  time="-9999999/1" value="0" leadInLength="0/1"  />
          </VectorParam>
          <VectorParam id="2966"  name="rotation">
           <InterpolatingParam id="2967" interp="linr"  time="-9999999/1" value="0" leadInLength="0/1"  />
           <InterpolatingParam id="2968" interp="linr"  time="-9999999/1" value="0" leadInLength="0/1"  />
           <InterpolatingParam id="2969" interp="linr"  time="-9999999/1" value="0" leadInLength="0/1"  />
          </VectorParam>
          <VectorParam id="2970"  name="shear">
           <InterpolatingParam id="2971" interp="linr"  time="-9999999/1" value="0" leadInLength="0/1"  />
           <InterpolatingParam id="2972" interp="linr"  time="-9999999/1" value="0" leadInLength="0/1"  />
           <InterpolatingParam id="2973" interp="linr"  time="-9999999/1" value="0" leadInLength="0/1"  />
          </VectorParam>
          <VectorParam id="2974"  name="scale">
           <InterpolatingParam id="2975" interp="linr"  time="-9999999/1" value="1.5294498485346872" leadInLength="0/1"  />
           <InterpolatingParam id="2976" interp="linr"  time="-9999999/1" value="0.44144613890042478" leadInLength="0/1"  />
           <InterpolatingParam id="2977" interp="linr"  time="-9999999/1" value="1" leadInLength="0/1"  />
          </VectorParam>
          <VectorParam id="2978"  name="anchor">
           <InterpolatingParam id="2979" interp="linr"  time="0/1" value="0" leadInLength="0/1"  />
           <InterpolatingParam id="2980" interp="linr"  time="0/1" value="0" leadInLength="0/1"  />
           <InterpolatingParam id="2981" interp="linr"  time="0/1" value="0" leadInLength="0/1"  />
          </VectorParam>
         </Transformer>
         <Parameters>
          <VectorParam id="2982"  name="sourceCrop">
           <InterpolatingParam id="2983" interp="linr"  time="0/1" value="0" leadInLength="0/1"  />
           <InterpolatingParam id="2984" interp="linr"  time="0/1" value="0" leadInLength="0/1"  />
           <InterpolatingParam id="2985" interp="linr"  time="0/1" value="0" leadInLength="0/1"  />
           <InterpolatingParam id="2986" interp="linr"  time="0/1" value="0" leadInLength="0/1"  />
          </VectorParam>
          <VectorParam id="2987"  name="geometryCrop">
           <InterpolatingParam id="2988" interp="linr"  time="-9999999/1" value="0" leadInLength="0/1"  />
           <InterpolatingParam id="2989" interp="linr"  time="-9999999/1" value="0" leadInLength="0/1"  />
           <InterpolatingParam id="2990" interp="linr"  time="-9999999/1" value="0" leadInLength="0/1"  />
           <InterpolatingParam id="2991" interp="linr"  time="-9999999/1" value="0" leadInLength="0/1"  />
          </VectorParam>
          <InterpolatingParam id="2992" interp="linr"  time="-9999999/1" value="1" leadInLength="0/1"  name="opacity"/>
         </Parameters>
         <Effects>
          <GenericEffect id="2993" name = "DropShadow" >
           <Parameters>
           <InterpolatingParam id="2994" interp="linr"  time="0/1" value="315" leadInLength="0/1"   name="angle"/>
           <InterpolatingParam id="2995" interp="linr"  time="0/1" value="2" leadInLength="0/1"   name="blur"/>
           <Parameter id="2996"   name="enabled">
            <Keyframes>
            <Keyframe id="2997"  time="0/1" value="1" leadInLength="0/1"  />
            </Keyframes>
           </Parameter>
           <InterpolatingParam id="2998" interp="linr"  time="0/1" value="4" leadInLength="0/1"   name="offset"/>
           <InterpolatingParam id="2999" interp="linr"  time="0/1" value="0.75" leadInLength="0/1"   name="opacity"/>
           </Parameters>
          </GenericEffect>
         </Effects>
         <Attributes>
          <Attribute id="3000"  name="vectorNode">
           <VectorNode id="3001" kind="TypeWinXML"  >
            <DoubleParameters>
             <InterpolatingParam id="3002" interp="linr"  time="0/1" value="-1" leadInLength="0/1"  name="CutoutPercentage"/>
             <InterpolatingParam id="3003" interp="linr"  time="0/1" value="-1" leadInLength="0/1"  name="RoundedRectRadius"/>
             <InterpolatingParam id="3004" interp="linr"  time="0/1" value="5" leadInLength="0/1"  name="Style"/>
             <InterpolatingParam id="3005" interp="linr"  time="0/1" value="215" leadInLength="0/1"  name="borderColorBlue"/>
             <InterpolatingParam id="3006" interp="linr"  time="0/1" value="215" leadInLength="0/1"  name="borderColorGreen"/>
             <InterpolatingParam id="3007" interp="linr"  time="0/1" value="215" leadInLength="0/1"  name="borderColorRed"/>
             <InterpolatingParam id="3008" interp="linr"  time="0/1" value="1" leadInLength="0/1"  name="borderState"/>
             <InterpolatingParam id="3009" interp="linr"  time="0/1" value="5" leadInLength="0/1"  name="borderWidth"/>
             <InterpolatingParam id="3010" interp="linr"  time="0/1" value="0" leadInLength="0/1"  name="dimensionTime"/>
             <InterpolatingParam id="3011" interp="linr"  time="0/1" value="38" leadInLength="0/1"  name="fillColorBlue"/>
             <InterpolatingParam id="3012" interp="linr"  time="0/1" value="162" leadInLength="0/1"  name="fillColorGreen"/>
             <InterpolatingParam id="3013" interp="linr"  time="0/1" value="94" leadInLength="0/1"  name="fillColorRed"/>
             <InterpolatingParam id="3014" interp="linr"  time="0/1" value="1" leadInLength="0/1"  name="fillState"/>
             <InterpolatingParam id="3015" interp="linr"  time="0/1" value="0" leadInLength="0/1"  name="flipOnXAxis"/>
             <InterpolatingParam id="3016" interp="linr"  time="0/1" value="0" leadInLength="0/1"  name="flipOnYAxis"/>
             <InterpolatingParam id="3017" interp="linr"  time="0/1" value="158.38071895424835" leadInLength="0/1"  name="height"/>
             <InterpolatingParam id="3018" interp="linr"  time="0/1" value="0" leadInLength="0/1"  name="textDropShadow"/>
             <InterpolatingParam id="3019" interp="linr"  time="0/1" value="0" leadInLength="0/1"  name="textIgnoresOpacity"/>
             <InterpolatingParam id="3020" interp="linr"  time="0/1" value="0.39862542955326463" leadInLength="0/1"  name="textRectHeight"/>
             <InterpolatingParam id="3021" interp="linr"  time="0/1" value="0.69899665551839463" leadInLength="0/1"  name="textRectWidth"/>
             <InterpolatingParam id="3022" interp="linr"  time="0/1" value="0.16722408026755853" leadInLength="0/1"  name="textRectX"/>
             <InterpolatingParam id="3023" interp="linr"  time="0/1" value="0.13745704467353953" leadInLength="0/1"  name="textRectY"/>
             <InterpolatingParam id="3024" interp="linr"  time="0/1" value="0" leadInLength="0/1"  name="textVerticalAlign"/>
             <InterpolatingParam id="3025" interp="linr"  time="0/1" value="213.5" leadInLength="0/1"  name="width"/>
            </DoubleParameters>
            <StringParameters>
             <Parameter id="3026"  name="VectorPath">
              <Keyframes>
              <Keyframe id="3027"  time="0/1" value="" leadInLength="0/1"  />
              </Keyframes>
             </Parameter>
             <Parameter id="3028"  name="filename">
              <Keyframes>
              <Keyframe id="3029"  time="0/1" value="D:\Program File(x86)\Camtasia 8\Media\Studio\Callouts\thought bubble.xml" leadInLength="0/1"  />
              </Keyframes>
             </Parameter>
             <Parameter id="3030"  name="name">
              <Keyframes>
              <Keyframe id="3031"  time="0/1" value="Thought Bubble" leadInLength="0/1"  />
              </Keyframes>
             </Parameter>
             <Parameter id="3032"  name="text">
              <Keyframes>
              <Keyframe id="3033"  time="0/1" value="{\rtf1\ansi\ansicpg1252\deff0\deflang1033{\fonttbl{\f0\fswiss\fprq2\fcharset0 Arial;}}&#xD;&#xa;{\colortbl ;\red255\green255\blue255;}&#xD;&#xa;\viewkind4\uc1\pard\qc\cf1\f0\fs32  created by A good man\par&#xD;&#xa;}&#xD;&#xa;" leadInLength="0/1"  />
              </Keyframes>
             </Parameter>
             <Parameter id="3034"  name="xmlContent">
              <Keyframes>
              <Keyframe id="3035"  time="0/1" value="﻿&lt;?xml version=&quot;1.0&quot;?&gt;&#xa;&#xa;&lt;Overlay version=&quot;1.0.1&quot;&gt;&#xa;&#xa;&lt;Overlay_Filename&gt;thought bubble.png&lt;/Overlay_Filename&gt;&#xa;&lt;Overlay_Name&gt;Thought Bubble&lt;/Overlay_Name&gt;&#xa;&lt;Text_Top&gt;40&lt;/Text_Top&gt;&#xa;&lt;Text_Left&gt;50&lt;/Text_Left&gt;&#xa;&lt;Text_Bottom&gt;135&lt;/Text_Bottom&gt;&#xa;&lt;Text_Right&gt;40&lt;/Text_Right&gt;&#xa;&lt;Fill_Color&gt;1&lt;/Fill_Color&gt;&#xa;&lt;Border_Color&gt;1&lt;/Border_Color&gt;&#xa;&lt;Initial_Fill_Color&gt;0xffe05f00&lt;/Initial_Fill_Color&gt;&#xa;&lt;Initial_Border_Color&gt;0xffd7d7d7&lt;/Initial_Border_Color&gt;&#xa;&lt;VectorProps&gt;&#xa;&lt;figure&gt;&#xa;&lt;svg&gt;M231.236,220.455c4.274-10.199-22.321-20.646-25.327-3.621c-6.013-9.018-22.04-9.543-21.712,6.902&#xa;&#x9;&#x9;c-9.792-4-17.766,18.423-1.725,18.746c-5.006,8.01-1.233,22.701,15.025,11.016c1.175,11.686,23.479,12.866,27.487-0.15&#xa;&#x9;&#x9;c12.021,8.008,22.368-1.978,15.575-14.871C253.58,237.473,248.667,210.255,231.236,220.455z M170.091,264.848&#xa;&#x9;&#x9;c-5.684-9.481-17.997,0.938-13.499,7.813c-9.708,3.786-2.604,14.442,3.552,11.36c-2.84,6.875,13.974,11.131,15.396,0.953&#xa;&#x9;&#x9;c9.474,2.84,13.503-6.869,7.339-13.261C188.8,261.529,174.593,256.085,170.091,264.848z M266.969,148.188&#xa;&#x9;&#x9;c1.092-2.606,0.763-5.224-0.528-7.625c48.96-4.531,34.808-84.104,3.999-77.258c19.327-48.1-60.096-62.411-70.499-35.828&#xa;&#x9;&#x9;c-9.581-37.415-78.697-32.691-83.214-9.246c-35.828-31.205-79.713,1.227-75.118,21.96C5.954,38.702-14.666,88.35,12.415,103.747&#xa;&#x9;&#x9;c-25.664,28.6,19.658,69.295,41.422,56.346c-11.074,33.872,62.632,50.539,68.229,25.554c10.506,29.141,53.287,25.16,74.089,11.069&#xa;&#x9;&#x9;c2.957,5.521,10.269,7.511,22.782-1.483c1.672,16.637,33.43,18.317,39.135-0.217c17.113,11.401,31.847-2.812,22.176-21.172&#xa;&#x9;&#x9;C298.78,172.417,291.786,133.667,266.969,148.188z&lt;/svg&gt;&#xa;&lt;/figure&gt;&#xa;&lt;borderWidth&gt;5.00&lt;/borderWidth&gt;&#xa;&lt;seamY&gt;100.00&lt;/seamY&gt;&#xa;&lt;shapeWidth&gt;299&lt;/shapeWidth&gt;&#xa;&lt;shapeHeight&gt;291&lt;/shapeHeight&gt;&#xa;&lt;/VectorProps&gt;&#xa;&lt;Style&gt;5&lt;/Style&gt;&#xa;&lt;/Overlay&gt;&#xa;" leadInLength="0/1"  />
              </Keyframes>
             </Parameter>
            </StringParameters>
           </VectorNode>
          </Attribute>
         </Attributes>
         <MetaData>
          <entry key="WinSubProjectDisplayName" val=""/>
         </MetaData>
         <LeftEdgeMods length="30/1" groupName="OpacityFade">
          <EdgeMod parameter="2992">
           <FadeInFunc id="3036"  />
          </EdgeMod>
         </LeftEdgeMods>
         <RightEdgeMods length="30/1" groupName="OpacityFade">
          <EdgeMod parameter="2992">
           <FadeOutFunc id="3037"  />
          </EdgeMod>
         </RightEdgeMods>
         <ExtraData>
          <Entry key="ZoomPanBin">
           <ZoomPanBin id="3038"  >
            <ZoomPanKeyframes>
             <ZoomPanKeyframe id="3039" timeRangeEnd="-9999999/1" timeRangeDuration="0/1" interpolaterName="linr"  />
            </ZoomPanKeyframes>
           </ZoomPanBin>
          </Entry>
         </ExtraData>
        </Callout>
       </Medias>
      </GenericTrack>
      <GenericTrack id="3040"  >
       <Attributes>
        <Attribute id="3041" value="" name="ident"/>
        <Attribute id="3042" value="0" name="audioMuted"/>
        <Attribute id="3043" value="0" name="videoHidden"/>
       </Attributes>
       <MetaData>
        <entry key="IsLocked" val="False"/>
        <entry key="WinTrackHeight" val="62"/>
       </MetaData>
       <Medias>
       </Medias>
      </GenericTrack>
      <GenericTrack id="3044"  >
       <Attributes>
        <Attribute id="3045" value="" name="ident"/>
        <Attribute id="3046" value="0" name="audioMuted"/>
        <Attribute id="3047" value="0" name="videoHidden"/>
       </Attributes>
       <MetaData>
        <entry key="IsLocked" val="False"/>
        <entry key="WinTrackHeight" val="62"/>
       </MetaData>
       <Medias>
       </Medias>
      </GenericTrack>
     </Tracks>
    </GenericMixer>
   <CaptionAttributes id="3048"  >
    <Attribute id="3049" value="1" name="captionsEnabled"/>
    <Attribute id="3050" value="Arial" name="captionsFontName"/>
    <Attribute id="3051" value="18" name="captionsFontSize"/>
    <Attribute id="3052" value="(0,0,0,255)" name="captionsBackgroundColor"/>
    <Attribute id="3053" value="(255,255,255,255)" name="captionsForegroundColor"/>
    <Attribute id="3054" value="en" name="lang"/>
    <Attribute id="3055" value="0" name="captionsAlignment"/>
    <Attribute id="3056" value="1" name="captionsDefaultFontSize"/>
    <Attribute id="3057" value="0.5" name="captionsOpacity"/>
    <Attribute id="3058" value="1" name="captionsBackgroundEnabled"/>
    <Attribute id="3059" value="1" name="captionsBackgroundOnlyAroundText"/>
   </CaptionAttributes>
   <Parameters>
    <VectorParam id="3060"  name="eyePosition">
     <InterpolatingParam id="3061" interp="linr"  time="0/1" value="0" leadInLength="0/1"  />
     <InterpolatingParam id="3062" interp="linr"  time="0/1" value="0" leadInLength="0/1"  />
     <InterpolatingParam id="3063" interp="linr"  time="0/1" value="3000" leadInLength="0/1"  />
    </VectorParam>
    <VectorParam id="3064"  name="eyeLookAtPosition">
     <InterpolatingParam id="3065" interp="linr"  time="0/1" value="0" leadInLength="0/1"  />
     <InterpolatingParam id="3066" interp="linr"  time="0/1" value="0" leadInLength="0/1"  />
     <InterpolatingParam id="3067" interp="linr"  time="0/1" value="0" leadInLength="0/1"  />
    </VectorParam>
    <VectorParam id="3068"  name="eyeUpVector">
     <InterpolatingParam id="3069" interp="linr"  time="0/1" value="0" leadInLength="0/1"  />
     <InterpolatingParam id="3070" interp="linr"  time="0/1" value="1" leadInLength="0/1"  />
     <InterpolatingParam id="3071" interp="linr"  time="0/1" value="0" leadInLength="0/1"  />
    </VectorParam>
    <InterpolatingParam id="3072" interp="linr"  time="0/1" value="0.159659967" leadInLength="0/1"  name="fov"/>
    <InterpolatingParam id="3073" interp="linr"  time="0/1" value="1.5" leadInLength="0/1"  name="nearClipDistance"/>
    <InterpolatingParam id="3074" interp="linr"  time="0/1" value="6000" leadInLength="0/1"  name="farClipDistance"/>
   </Parameters>
  </Timeline>
 </Project>
</GoProject>
</CSMLData>

</Project_Data>
